G04 #@! TF.FileFunction,Paste,Bot*
%FSLAX46Y46*%
G04 Gerber Fmt 4.6, Leading zero omitted, Abs format (unit mm)*
G04 Created by KiCad (PCBNEW 4.0.7) date 01/31/18 14:47:41*
%MOMM*%
%LPD*%
G01*
G04 APERTURE LIST*
%ADD10C,0.100000*%
%ADD11R,1.250000X1.000000*%
%ADD12R,2.000000X1.000000*%
%ADD13R,0.700000X1.300000*%
%ADD14R,1.300000X0.700000*%
G04 APERTURE END LIST*
D10*
G36*
X167495400Y-114615600D02*
X165295400Y-114615600D01*
X165295400Y-113615600D01*
X167495400Y-113615600D01*
X167495400Y-114615600D01*
X167495400Y-114615600D01*
G37*
G36*
X167495400Y-110615600D02*
X165295400Y-110615600D01*
X165295400Y-109615600D01*
X167495400Y-109615600D01*
X167495400Y-110615600D01*
X167495400Y-110615600D01*
G37*
G36*
X165395400Y-112615600D02*
X164395400Y-112615600D01*
X164395400Y-111615600D01*
X165395400Y-111615600D01*
X165395400Y-112615600D01*
X165395400Y-112615600D01*
G37*
D11*
X108458000Y-117465600D03*
X108458000Y-119465600D03*
X106705400Y-117491000D03*
X106705400Y-119491000D03*
X135813800Y-90154000D03*
X135813800Y-88154000D03*
X103200200Y-114106200D03*
X103200200Y-112106200D03*
X166395400Y-105934000D03*
X166395400Y-107934000D03*
X164185600Y-106975400D03*
X164185600Y-108975400D03*
X176733200Y-92516200D03*
X176733200Y-90516200D03*
X150876000Y-112893600D03*
X150876000Y-114893600D03*
D12*
X185977800Y-98105200D03*
X185977800Y-100105200D03*
X185977800Y-102105200D03*
X185977800Y-104105200D03*
X185977800Y-106105200D03*
X185977800Y-108105200D03*
X185977800Y-110105200D03*
X185977800Y-112105200D03*
X169977800Y-112105200D03*
X169977800Y-110105200D03*
X169977800Y-108105200D03*
X169977800Y-106105200D03*
X169977800Y-104105200D03*
X169977800Y-102105200D03*
X169977800Y-100105200D03*
X169977800Y-98105200D03*
D13*
X136794200Y-85039200D03*
X138694200Y-85039200D03*
D14*
X163728400Y-84795400D03*
X163728400Y-82895400D03*
X166217600Y-84795400D03*
X166217600Y-82895400D03*
X168757600Y-84795400D03*
X168757600Y-82895400D03*
M02*
