M48
;DRILL file {KiCad 4.0.7} date 01/31/18 14:54:29
;FORMAT={-:-/ absolute / inch / decimal}
FMAT,2
INCH,TZ
T1C0.016
T2C0.039
T3C0.060
T4C0.087
%
G90
G05
M72
T1
X3.118Y-3.825
X3.21Y-3.888
X3.221Y-3.675
X3.226Y-3.426
X3.269Y-3.822
X3.282Y-3.333
X3.392Y-4.706
X3.416Y-3.821
X3.489Y-3.322
X3.5Y-3.672
X3.549Y-3.915
X3.588Y-3.965
X3.777Y-3.325
X3.7781Y-4.4009
X3.783Y-3.423
X3.783Y-3.672
X3.985Y-3.603
X4.024Y-3.773
X4.041Y-3.726
X4.081Y-3.398
X4.101Y-4.172
X4.126Y-4.503
X4.129Y-3.601
X4.142Y-4.331
X4.182Y-3.744
X4.287Y-3.599
X4.33Y-3.7
X4.36Y-3.724
X4.415Y-4.133
X4.433Y-3.575
X4.447Y-3.631
X4.451Y-3.746
X4.47Y-3.603
X4.479Y-3.716
X4.48Y-3.771
X4.513Y-4.05
X4.607Y-4.021
X4.647Y-4.251
X4.825Y-3.9
X4.833Y-3.348
X4.876Y-3.585
X4.876Y-3.618
X4.876Y-3.651
X4.876Y-3.684
X4.876Y-3.717
X4.876Y-3.751
X4.876Y-3.784
X4.876Y-3.817
X4.876Y-3.85
X4.876Y-3.883
X4.89Y-3.549
X4.945Y-3.941
X4.996Y-3.04
X5.066Y-3.985
X5.067Y-3.795
X5.089Y-3.579
X5.109Y-3.768
X5.112Y-3.552
X5.129Y-3.316
X5.179Y-3.166
X5.229Y-4.026
X5.244Y-3.345
X5.265Y-3.541
X5.282Y-3.575
X5.283Y-3.607
X5.299Y-3.259
X5.315Y-3.608
X5.341Y-3.857
X5.345Y-3.754
X5.371Y-3.233
X5.371Y-3.271
X5.375Y-3.74
X5.382Y-3.403
X5.419Y-3.404
X5.422Y-3.889
X5.425Y-3.22
X5.572Y-3.891
X5.589Y-3.577
X5.598Y-3.538
X5.631Y-4.206
X5.636Y-4.174
X5.646Y-3.333
X5.653Y-3.616
X5.654Y-3.648
X5.686Y-3.649
X5.706Y-3.898
X5.707Y-3.93
X5.712Y-3.373
X5.716Y-3.961
X5.846Y-3.522
X5.846Y-3.956
X5.847Y-3.994
X5.851Y-4.037
X5.879Y-3.522
X5.881Y-3.555
X5.909Y-3.435
X5.934Y-3.386
X5.943Y-3.909
X5.952Y-3.874
X5.983Y-3.864
X5.995Y-4.131
X6.006Y-3.841
X6.016Y-4.035
X6.04Y-4.126
X6.05Y-4.089
X6.111Y-3.658
X6.113Y-3.92
X6.118Y-3.967
X6.14Y-3.868
X6.144Y-3.651
X6.204Y-3.653
X6.206Y-3.941
X6.215Y-4.388
X6.22Y-4.424
X6.245Y-4.061
X6.255Y-3.573
X6.296Y-4.366
X6.297Y-4.332
X6.32Y-3.992
X6.321Y-3.745
X6.35Y-3.946
X6.367Y-4.128
X6.379Y-3.893
X6.399Y-3.867
X6.418Y-3.927
X6.433Y-3.792
X6.433Y-3.865
X6.45Y-3.735
X6.456Y-3.815
X6.465Y-4.559
X6.485Y-3.83
X6.495Y-3.93
X6.514Y-4.103
X6.539Y-4.127
X6.554Y-3.996
X6.645Y-3.709
X6.756Y-3.71
X6.758Y-3.67
X6.838Y-4.334
X6.9198Y-3.9392
X6.9213Y-3.5293
X6.928Y-3.078
X6.979Y-3.683
X7.005Y-3.274
X7.017Y-3.605
X7.033Y-4.171
X7.043Y-3.057
X7.054Y-3.652
X7.07Y-3.23
X7.08Y-3.711
X7.1Y-3.324
X7.184Y-3.567
X7.229Y-3.408
X7.255Y-3.867
X7.295Y-3.398
X7.3282Y-3.5288
X7.365Y-3.267
T2
X3.385Y-4.235
X3.385Y-4.3334
X3.385Y-4.4319
X3.571Y-4.14
X3.571Y-4.24
X4.359Y-4.41
X4.359Y-4.51
X4.359Y-4.61
X4.535Y-4.475
X4.535Y-4.575
X4.535Y-4.675
X4.608Y-3.122
X4.608Y-3.222
X4.608Y-3.322
X4.608Y-3.422
X4.608Y-3.522
X4.679Y-4.475
X4.679Y-4.575
X4.679Y-4.675
X4.708Y-3.122
X4.708Y-3.222
X4.708Y-3.322
X4.708Y-3.422
X4.708Y-3.522
X4.823Y-4.475
X4.823Y-4.575
X4.823Y-4.675
X4.967Y-4.475
X4.967Y-4.575
X4.967Y-4.675
X5.111Y-4.475
X5.111Y-4.575
X5.111Y-4.675
X5.15Y-3.082
X5.25Y-3.082
X5.255Y-4.475
X5.255Y-4.575
X5.255Y-4.675
X5.35Y-3.082
X5.399Y-4.475
X5.399Y-4.575
X5.399Y-4.675
X5.45Y-3.082
X5.543Y-4.475
X5.543Y-4.575
X5.543Y-4.675
X5.55Y-3.082
X5.65Y-3.082
X5.687Y-4.475
X5.687Y-4.575
X5.687Y-4.675
X5.831Y-4.475
X5.831Y-4.575
X5.831Y-4.675
X5.8427Y-3.162
X5.9411Y-3.162
X6.0396Y-3.162
X6.138Y-3.162
X6.3473Y-3.162
X6.4457Y-3.162
X6.5441Y-3.162
X6.6426Y-3.162
X6.653Y-4.598
X6.741Y-3.162
T3
X3.338Y-3.209
X3.538Y-3.209
X3.778Y-3.209
X3.978Y-3.209
X4.213Y-3.209
X4.413Y-3.209
T4
X3.105Y-3.102
X3.105Y-4.645
X7.398Y-3.102
X7.398Y-4.645
T0
M30
