G04 #@! TF.FileFunction,Legend,Bot*
%FSLAX46Y46*%
G04 Gerber Fmt 4.6, Leading zero omitted, Abs format (unit mm)*
G04 Created by KiCad (PCBNEW 4.0.7) date 01/30/18 00:16:16*
%MOMM*%
%LPD*%
G01*
G04 APERTURE LIST*
%ADD10C,0.100000*%
%ADD11C,0.125000*%
%ADD12C,0.250000*%
%ADD13C,0.150000*%
%ADD14C,0.120000*%
%ADD15C,0.010000*%
G04 APERTURE END LIST*
D10*
D11*
X148818553Y-77855000D02*
X148866172Y-77831190D01*
X148937600Y-77831190D01*
X149009029Y-77855000D01*
X149056648Y-77902619D01*
X149080457Y-77950238D01*
X149104267Y-78045476D01*
X149104267Y-78116905D01*
X149080457Y-78212143D01*
X149056648Y-78259762D01*
X149009029Y-78307381D01*
X148937600Y-78331190D01*
X148889981Y-78331190D01*
X148818553Y-78307381D01*
X148794743Y-78283571D01*
X148794743Y-78116905D01*
X148889981Y-78116905D01*
X148580457Y-78331190D02*
X148580457Y-77831190D01*
X148294743Y-78331190D01*
X148294743Y-77831190D01*
X148056647Y-78331190D02*
X148056647Y-77831190D01*
X147937600Y-77831190D01*
X147866171Y-77855000D01*
X147818552Y-77902619D01*
X147794743Y-77950238D01*
X147770933Y-78045476D01*
X147770933Y-78116905D01*
X147794743Y-78212143D01*
X147818552Y-78259762D01*
X147866171Y-78307381D01*
X147937600Y-78331190D01*
X148056647Y-78331190D01*
X151471237Y-78188333D02*
X151233142Y-78188333D01*
X151518856Y-78331190D02*
X151352189Y-77831190D01*
X151185523Y-78331190D01*
X150756952Y-78331190D02*
X151042666Y-78331190D01*
X150899809Y-78331190D02*
X150899809Y-77831190D01*
X150947428Y-77902619D01*
X150995047Y-77950238D01*
X151042666Y-77974048D01*
X150304571Y-77831190D02*
X150542666Y-77831190D01*
X150566476Y-78069286D01*
X150542666Y-78045476D01*
X150495047Y-78021667D01*
X150376000Y-78021667D01*
X150328381Y-78045476D01*
X150304571Y-78069286D01*
X150280762Y-78116905D01*
X150280762Y-78235952D01*
X150304571Y-78283571D01*
X150328381Y-78307381D01*
X150376000Y-78331190D01*
X150495047Y-78331190D01*
X150542666Y-78307381D01*
X150566476Y-78283571D01*
X154036637Y-78188333D02*
X153798542Y-78188333D01*
X154084256Y-78331190D02*
X153917589Y-77831190D01*
X153750923Y-78331190D01*
X153322352Y-78331190D02*
X153608066Y-78331190D01*
X153465209Y-78331190D02*
X153465209Y-77831190D01*
X153512828Y-77902619D01*
X153560447Y-77950238D01*
X153608066Y-77974048D01*
X152893781Y-77997857D02*
X152893781Y-78331190D01*
X153012828Y-77807381D02*
X153131876Y-78164524D01*
X152822352Y-78164524D01*
X156102037Y-77831190D02*
X156340132Y-77831190D01*
X156363942Y-78069286D01*
X156340132Y-78045476D01*
X156292513Y-78021667D01*
X156173466Y-78021667D01*
X156125847Y-78045476D01*
X156102037Y-78069286D01*
X156078228Y-78116905D01*
X156078228Y-78235952D01*
X156102037Y-78283571D01*
X156125847Y-78307381D01*
X156173466Y-78331190D01*
X156292513Y-78331190D01*
X156340132Y-78307381D01*
X156363942Y-78283571D01*
X155935371Y-77831190D02*
X155768704Y-78331190D01*
X155602038Y-77831190D01*
X171265837Y-77831190D02*
X171503932Y-77831190D01*
X171527742Y-78069286D01*
X171503932Y-78045476D01*
X171456313Y-78021667D01*
X171337266Y-78021667D01*
X171289647Y-78045476D01*
X171265837Y-78069286D01*
X171242028Y-78116905D01*
X171242028Y-78235952D01*
X171265837Y-78283571D01*
X171289647Y-78307381D01*
X171337266Y-78331190D01*
X171456313Y-78331190D01*
X171503932Y-78307381D01*
X171527742Y-78283571D01*
X171099171Y-77831190D02*
X170932504Y-78331190D01*
X170765838Y-77831190D01*
X168977428Y-78331190D02*
X169215523Y-78331190D01*
X169215523Y-77831190D01*
X168810761Y-78069286D02*
X168644095Y-78069286D01*
X168572666Y-78331190D02*
X168810761Y-78331190D01*
X168810761Y-77831190D01*
X168572666Y-77831190D01*
X168358380Y-78331190D02*
X168358380Y-77831190D01*
X168239333Y-77831190D01*
X168167904Y-77855000D01*
X168120285Y-77902619D01*
X168096476Y-77950238D01*
X168072666Y-78045476D01*
X168072666Y-78116905D01*
X168096476Y-78212143D01*
X168120285Y-78259762D01*
X168167904Y-78307381D01*
X168239333Y-78331190D01*
X168358380Y-78331190D01*
X167273943Y-78331190D02*
X167273943Y-77831190D01*
X167083467Y-77831190D01*
X167035848Y-77855000D01*
X167012039Y-77878810D01*
X166988229Y-77926429D01*
X166988229Y-77997857D01*
X167012039Y-78045476D01*
X167035848Y-78069286D01*
X167083467Y-78093095D01*
X167273943Y-78093095D01*
X166773943Y-78331190D02*
X166773943Y-77831190D01*
X166773943Y-78069286D02*
X166488229Y-78069286D01*
X166488229Y-78331190D02*
X166488229Y-77831190D01*
X166154895Y-77831190D02*
X166059657Y-77831190D01*
X166012038Y-77855000D01*
X165964419Y-77902619D01*
X165940610Y-77997857D01*
X165940610Y-78164524D01*
X165964419Y-78259762D01*
X166012038Y-78307381D01*
X166059657Y-78331190D01*
X166154895Y-78331190D01*
X166202514Y-78307381D01*
X166250133Y-78259762D01*
X166273943Y-78164524D01*
X166273943Y-77997857D01*
X166250133Y-77902619D01*
X166202514Y-77855000D01*
X166154895Y-77831190D01*
X165797752Y-77831190D02*
X165512038Y-77831190D01*
X165654895Y-78331190D02*
X165654895Y-77831190D01*
X165250133Y-77831190D02*
X165154895Y-77831190D01*
X165107276Y-77855000D01*
X165059657Y-77902619D01*
X165035848Y-77997857D01*
X165035848Y-78164524D01*
X165059657Y-78259762D01*
X165107276Y-78307381D01*
X165154895Y-78331190D01*
X165250133Y-78331190D01*
X165297752Y-78307381D01*
X165345371Y-78259762D01*
X165369181Y-78164524D01*
X165369181Y-77997857D01*
X165345371Y-77902619D01*
X165297752Y-77855000D01*
X165250133Y-77831190D01*
X164293466Y-78331190D02*
X164293466Y-77831190D01*
X164102990Y-77831190D01*
X164055371Y-77855000D01*
X164031562Y-77878810D01*
X164007752Y-77926429D01*
X164007752Y-77997857D01*
X164031562Y-78045476D01*
X164055371Y-78069286D01*
X164102990Y-78093095D01*
X164293466Y-78093095D01*
X163841085Y-77831190D02*
X163722038Y-78331190D01*
X163626800Y-77974048D01*
X163531562Y-78331190D01*
X163412514Y-77831190D01*
X162936323Y-78331190D02*
X163102990Y-78093095D01*
X163222037Y-78331190D02*
X163222037Y-77831190D01*
X163031561Y-77831190D01*
X162983942Y-77855000D01*
X162960133Y-77878810D01*
X162936323Y-77926429D01*
X162936323Y-77997857D01*
X162960133Y-78045476D01*
X162983942Y-78069286D01*
X163031561Y-78093095D01*
X163222037Y-78093095D01*
X161569353Y-77855000D02*
X161616972Y-77831190D01*
X161688400Y-77831190D01*
X161759829Y-77855000D01*
X161807448Y-77902619D01*
X161831257Y-77950238D01*
X161855067Y-78045476D01*
X161855067Y-78116905D01*
X161831257Y-78212143D01*
X161807448Y-78259762D01*
X161759829Y-78307381D01*
X161688400Y-78331190D01*
X161640781Y-78331190D01*
X161569353Y-78307381D01*
X161545543Y-78283571D01*
X161545543Y-78116905D01*
X161640781Y-78116905D01*
X161331257Y-78331190D02*
X161331257Y-77831190D01*
X161045543Y-78331190D01*
X161045543Y-77831190D01*
X160807447Y-78331190D02*
X160807447Y-77831190D01*
X160688400Y-77831190D01*
X160616971Y-77855000D01*
X160569352Y-77902619D01*
X160545543Y-77950238D01*
X160521733Y-78045476D01*
X160521733Y-78116905D01*
X160545543Y-78212143D01*
X160569352Y-78259762D01*
X160616971Y-78307381D01*
X160688400Y-78331190D01*
X160807447Y-78331190D01*
X163628724Y-88597610D02*
X163628724Y-89097610D01*
X163747771Y-89097610D01*
X163819200Y-89073800D01*
X163866819Y-89026181D01*
X163890628Y-88978562D01*
X163914438Y-88883324D01*
X163914438Y-88811895D01*
X163890628Y-88716657D01*
X163866819Y-88669038D01*
X163819200Y-88621419D01*
X163747771Y-88597610D01*
X163628724Y-88597610D01*
X164223962Y-89097610D02*
X164319200Y-89097610D01*
X164366819Y-89073800D01*
X164414438Y-89026181D01*
X164438247Y-88930943D01*
X164438247Y-88764276D01*
X164414438Y-88669038D01*
X164366819Y-88621419D01*
X164319200Y-88597610D01*
X164223962Y-88597610D01*
X164176343Y-88621419D01*
X164128724Y-88669038D01*
X164104914Y-88764276D01*
X164104914Y-88930943D01*
X164128724Y-89026181D01*
X164176343Y-89073800D01*
X164223962Y-89097610D01*
X165033486Y-88597610D02*
X165033486Y-89097610D01*
X165319200Y-88597610D01*
X165319200Y-89097610D01*
X165652534Y-89097610D02*
X165747772Y-89097610D01*
X165795391Y-89073800D01*
X165843010Y-89026181D01*
X165866819Y-88930943D01*
X165866819Y-88764276D01*
X165843010Y-88669038D01*
X165795391Y-88621419D01*
X165747772Y-88597610D01*
X165652534Y-88597610D01*
X165604915Y-88621419D01*
X165557296Y-88669038D01*
X165533486Y-88764276D01*
X165533486Y-88930943D01*
X165557296Y-89026181D01*
X165604915Y-89073800D01*
X165652534Y-89097610D01*
X166009677Y-89097610D02*
X166295391Y-89097610D01*
X166152534Y-88597610D02*
X166152534Y-89097610D01*
X166819200Y-88621419D02*
X166890629Y-88597610D01*
X167009676Y-88597610D01*
X167057295Y-88621419D01*
X167081105Y-88645229D01*
X167104914Y-88692848D01*
X167104914Y-88740467D01*
X167081105Y-88788086D01*
X167057295Y-88811895D01*
X167009676Y-88835705D01*
X166914438Y-88859514D01*
X166866819Y-88883324D01*
X166843010Y-88907133D01*
X166819200Y-88954752D01*
X166819200Y-89002371D01*
X166843010Y-89049990D01*
X166866819Y-89073800D01*
X166914438Y-89097610D01*
X167033486Y-89097610D01*
X167104914Y-89073800D01*
X167319200Y-88597610D02*
X167319200Y-89097610D01*
X167319200Y-88859514D02*
X167604914Y-88859514D01*
X167604914Y-88597610D02*
X167604914Y-89097610D01*
X167938248Y-89097610D02*
X168033486Y-89097610D01*
X168081105Y-89073800D01*
X168128724Y-89026181D01*
X168152533Y-88930943D01*
X168152533Y-88764276D01*
X168128724Y-88669038D01*
X168081105Y-88621419D01*
X168033486Y-88597610D01*
X167938248Y-88597610D01*
X167890629Y-88621419D01*
X167843010Y-88669038D01*
X167819200Y-88764276D01*
X167819200Y-88930943D01*
X167843010Y-89026181D01*
X167890629Y-89073800D01*
X167938248Y-89097610D01*
X168652534Y-88597610D02*
X168485867Y-88835705D01*
X168366820Y-88597610D02*
X168366820Y-89097610D01*
X168557296Y-89097610D01*
X168604915Y-89073800D01*
X168628724Y-89049990D01*
X168652534Y-89002371D01*
X168652534Y-88930943D01*
X168628724Y-88883324D01*
X168604915Y-88859514D01*
X168557296Y-88835705D01*
X168366820Y-88835705D01*
X168795391Y-89097610D02*
X169081105Y-89097610D01*
X168938248Y-88597610D02*
X168938248Y-89097610D01*
D12*
X118733219Y-108956505D02*
X119733219Y-108956505D01*
X119733219Y-108718410D01*
X119685600Y-108575552D01*
X119590362Y-108480314D01*
X119495124Y-108432695D01*
X119304648Y-108385076D01*
X119161790Y-108385076D01*
X118971314Y-108432695D01*
X118876076Y-108480314D01*
X118780838Y-108575552D01*
X118733219Y-108718410D01*
X118733219Y-108956505D01*
X118733219Y-107956505D02*
X119399886Y-107956505D01*
X119209410Y-107956505D02*
X119304648Y-107908886D01*
X119352267Y-107861267D01*
X119399886Y-107766029D01*
X119399886Y-107670790D01*
X118733219Y-106908885D02*
X119257029Y-106908885D01*
X119352267Y-106956504D01*
X119399886Y-107051742D01*
X119399886Y-107242219D01*
X119352267Y-107337457D01*
X118780838Y-106908885D02*
X118733219Y-107004123D01*
X118733219Y-107242219D01*
X118780838Y-107337457D01*
X118876076Y-107385076D01*
X118971314Y-107385076D01*
X119066552Y-107337457D01*
X119114171Y-107242219D01*
X119114171Y-107004123D01*
X119161790Y-106908885D01*
X118780838Y-106004123D02*
X118733219Y-106099361D01*
X118733219Y-106289838D01*
X118780838Y-106385076D01*
X118828457Y-106432695D01*
X118923695Y-106480314D01*
X119209410Y-106480314D01*
X119304648Y-106432695D01*
X119352267Y-106385076D01*
X119399886Y-106289838D01*
X119399886Y-106099361D01*
X119352267Y-106004123D01*
X118733219Y-105432695D02*
X118780838Y-105527933D01*
X118828457Y-105575552D01*
X118923695Y-105623171D01*
X119209410Y-105623171D01*
X119304648Y-105575552D01*
X119352267Y-105527933D01*
X119399886Y-105432695D01*
X119399886Y-105289837D01*
X119352267Y-105194599D01*
X119304648Y-105146980D01*
X119209410Y-105099361D01*
X118923695Y-105099361D01*
X118828457Y-105146980D01*
X118780838Y-105194599D01*
X118733219Y-105289837D01*
X118733219Y-105432695D01*
X118637981Y-104908885D02*
X118637981Y-104146980D01*
X118733219Y-103337456D02*
X119209410Y-103670790D01*
X118733219Y-103908885D02*
X119733219Y-103908885D01*
X119733219Y-103527932D01*
X119685600Y-103432694D01*
X119637981Y-103385075D01*
X119542743Y-103337456D01*
X119399886Y-103337456D01*
X119304648Y-103385075D01*
X119257029Y-103432694D01*
X119209410Y-103527932D01*
X119209410Y-103908885D01*
X118780838Y-102527932D02*
X118733219Y-102623170D01*
X118733219Y-102813647D01*
X118780838Y-102908885D01*
X118876076Y-102956504D01*
X119257029Y-102956504D01*
X119352267Y-102908885D01*
X119399886Y-102813647D01*
X119399886Y-102623170D01*
X119352267Y-102527932D01*
X119257029Y-102480313D01*
X119161790Y-102480313D01*
X119066552Y-102956504D01*
X119399886Y-102146980D02*
X118733219Y-101908885D01*
X119399886Y-101670789D01*
X118733219Y-100766027D02*
X118733219Y-101337456D01*
X118733219Y-101051742D02*
X119733219Y-101051742D01*
X119590362Y-101146980D01*
X119495124Y-101242218D01*
X119447505Y-101337456D01*
X116983219Y-108385076D02*
X117459410Y-108718410D01*
X116983219Y-108956505D02*
X117983219Y-108956505D01*
X117983219Y-108575552D01*
X117935600Y-108480314D01*
X117887981Y-108432695D01*
X117792743Y-108385076D01*
X117649886Y-108385076D01*
X117554648Y-108432695D01*
X117507029Y-108480314D01*
X117459410Y-108575552D01*
X117459410Y-108956505D01*
X116983219Y-107813648D02*
X117030838Y-107908886D01*
X117078457Y-107956505D01*
X117173695Y-108004124D01*
X117459410Y-108004124D01*
X117554648Y-107956505D01*
X117602267Y-107908886D01*
X117649886Y-107813648D01*
X117649886Y-107670790D01*
X117602267Y-107575552D01*
X117554648Y-107527933D01*
X117459410Y-107480314D01*
X117173695Y-107480314D01*
X117078457Y-107527933D01*
X117030838Y-107575552D01*
X116983219Y-107670790D01*
X116983219Y-107813648D01*
X117030838Y-106623171D02*
X116983219Y-106718409D01*
X116983219Y-106908886D01*
X117030838Y-107004124D01*
X117078457Y-107051743D01*
X117173695Y-107099362D01*
X117459410Y-107099362D01*
X117554648Y-107051743D01*
X117602267Y-107004124D01*
X117649886Y-106908886D01*
X117649886Y-106718409D01*
X117602267Y-106623171D01*
X116983219Y-106194600D02*
X117983219Y-106194600D01*
X117364171Y-106099362D02*
X116983219Y-105813647D01*
X117649886Y-105813647D02*
X117268933Y-106194600D01*
X117030838Y-105004123D02*
X116983219Y-105099361D01*
X116983219Y-105289838D01*
X117030838Y-105385076D01*
X117126076Y-105432695D01*
X117507029Y-105432695D01*
X117602267Y-105385076D01*
X117649886Y-105289838D01*
X117649886Y-105099361D01*
X117602267Y-105004123D01*
X117507029Y-104956504D01*
X117411790Y-104956504D01*
X117316552Y-105432695D01*
X117649886Y-104670790D02*
X117649886Y-104289838D01*
X117983219Y-104527933D02*
X117126076Y-104527933D01*
X117030838Y-104480314D01*
X116983219Y-104385076D01*
X116983219Y-104289838D01*
X117078457Y-102623170D02*
X117030838Y-102670789D01*
X116983219Y-102813646D01*
X116983219Y-102908884D01*
X117030838Y-103051742D01*
X117126076Y-103146980D01*
X117221314Y-103194599D01*
X117411790Y-103242218D01*
X117554648Y-103242218D01*
X117745124Y-103194599D01*
X117840362Y-103146980D01*
X117935600Y-103051742D01*
X117983219Y-102908884D01*
X117983219Y-102813646D01*
X117935600Y-102670789D01*
X117887981Y-102623170D01*
X116983219Y-102051742D02*
X117030838Y-102146980D01*
X117078457Y-102194599D01*
X117173695Y-102242218D01*
X117459410Y-102242218D01*
X117554648Y-102194599D01*
X117602267Y-102146980D01*
X117649886Y-102051742D01*
X117649886Y-101908884D01*
X117602267Y-101813646D01*
X117554648Y-101766027D01*
X117459410Y-101718408D01*
X117173695Y-101718408D01*
X117078457Y-101766027D01*
X117030838Y-101813646D01*
X116983219Y-101908884D01*
X116983219Y-102051742D01*
X117649886Y-101289837D02*
X116983219Y-101289837D01*
X117554648Y-101289837D02*
X117602267Y-101242218D01*
X117649886Y-101146980D01*
X117649886Y-101004122D01*
X117602267Y-100908884D01*
X117507029Y-100861265D01*
X116983219Y-100861265D01*
X117649886Y-100527932D02*
X117649886Y-100146980D01*
X117983219Y-100385075D02*
X117126076Y-100385075D01*
X117030838Y-100337456D01*
X116983219Y-100242218D01*
X116983219Y-100146980D01*
X116983219Y-99813646D02*
X117649886Y-99813646D01*
X117459410Y-99813646D02*
X117554648Y-99766027D01*
X117602267Y-99718408D01*
X117649886Y-99623170D01*
X117649886Y-99527931D01*
X116983219Y-99051741D02*
X117030838Y-99146979D01*
X117078457Y-99194598D01*
X117173695Y-99242217D01*
X117459410Y-99242217D01*
X117554648Y-99194598D01*
X117602267Y-99146979D01*
X117649886Y-99051741D01*
X117649886Y-98908883D01*
X117602267Y-98813645D01*
X117554648Y-98766026D01*
X117459410Y-98718407D01*
X117173695Y-98718407D01*
X117078457Y-98766026D01*
X117030838Y-98813645D01*
X116983219Y-98908883D01*
X116983219Y-99051741D01*
X116983219Y-98146979D02*
X117030838Y-98242217D01*
X117126076Y-98289836D01*
X117983219Y-98289836D01*
X117507029Y-96670787D02*
X117459410Y-96527930D01*
X117411790Y-96480311D01*
X117316552Y-96432692D01*
X117173695Y-96432692D01*
X117078457Y-96480311D01*
X117030838Y-96527930D01*
X116983219Y-96623168D01*
X116983219Y-97004121D01*
X117983219Y-97004121D01*
X117983219Y-96670787D01*
X117935600Y-96575549D01*
X117887981Y-96527930D01*
X117792743Y-96480311D01*
X117697505Y-96480311D01*
X117602267Y-96527930D01*
X117554648Y-96575549D01*
X117507029Y-96670787D01*
X117507029Y-97004121D01*
X116983219Y-95861264D02*
X117030838Y-95956502D01*
X117078457Y-96004121D01*
X117173695Y-96051740D01*
X117459410Y-96051740D01*
X117554648Y-96004121D01*
X117602267Y-95956502D01*
X117649886Y-95861264D01*
X117649886Y-95718406D01*
X117602267Y-95623168D01*
X117554648Y-95575549D01*
X117459410Y-95527930D01*
X117173695Y-95527930D01*
X117078457Y-95575549D01*
X117030838Y-95623168D01*
X116983219Y-95718406D01*
X116983219Y-95861264D01*
X116983219Y-94670787D02*
X117507029Y-94670787D01*
X117602267Y-94718406D01*
X117649886Y-94813644D01*
X117649886Y-95004121D01*
X117602267Y-95099359D01*
X117030838Y-94670787D02*
X116983219Y-94766025D01*
X116983219Y-95004121D01*
X117030838Y-95099359D01*
X117126076Y-95146978D01*
X117221314Y-95146978D01*
X117316552Y-95099359D01*
X117364171Y-95004121D01*
X117364171Y-94766025D01*
X117411790Y-94670787D01*
X116983219Y-94194597D02*
X117649886Y-94194597D01*
X117459410Y-94194597D02*
X117554648Y-94146978D01*
X117602267Y-94099359D01*
X117649886Y-94004121D01*
X117649886Y-93908882D01*
X116983219Y-93146977D02*
X117983219Y-93146977D01*
X117030838Y-93146977D02*
X116983219Y-93242215D01*
X116983219Y-93432692D01*
X117030838Y-93527930D01*
X117078457Y-93575549D01*
X117173695Y-93623168D01*
X117459410Y-93623168D01*
X117554648Y-93575549D01*
X117602267Y-93527930D01*
X117649886Y-93432692D01*
X117649886Y-93242215D01*
X117602267Y-93146977D01*
X115757029Y-108623171D02*
X115709410Y-108480314D01*
X115661790Y-108432695D01*
X115566552Y-108385076D01*
X115423695Y-108385076D01*
X115328457Y-108432695D01*
X115280838Y-108480314D01*
X115233219Y-108575552D01*
X115233219Y-108956505D01*
X116233219Y-108956505D01*
X116233219Y-108623171D01*
X116185600Y-108527933D01*
X116137981Y-108480314D01*
X116042743Y-108432695D01*
X115947505Y-108432695D01*
X115852267Y-108480314D01*
X115804648Y-108527933D01*
X115757029Y-108623171D01*
X115757029Y-108956505D01*
X115899886Y-108051743D02*
X115233219Y-107813648D01*
X115899886Y-107575552D02*
X115233219Y-107813648D01*
X114995124Y-107908886D01*
X114947505Y-107956505D01*
X114899886Y-108051743D01*
X116233219Y-106575552D02*
X115233219Y-106242219D01*
X116233219Y-105908885D01*
X115233219Y-105432695D02*
X115280838Y-105527933D01*
X115376076Y-105575552D01*
X116233219Y-105575552D01*
X115233219Y-104623170D02*
X115757029Y-104623170D01*
X115852267Y-104670789D01*
X115899886Y-104766027D01*
X115899886Y-104956504D01*
X115852267Y-105051742D01*
X115280838Y-104623170D02*
X115233219Y-104718408D01*
X115233219Y-104956504D01*
X115280838Y-105051742D01*
X115376076Y-105099361D01*
X115471314Y-105099361D01*
X115566552Y-105051742D01*
X115614171Y-104956504D01*
X115614171Y-104718408D01*
X115661790Y-104623170D01*
X115233219Y-103718408D02*
X116233219Y-103718408D01*
X115280838Y-103718408D02*
X115233219Y-103813646D01*
X115233219Y-104004123D01*
X115280838Y-104099361D01*
X115328457Y-104146980D01*
X115423695Y-104194599D01*
X115709410Y-104194599D01*
X115804648Y-104146980D01*
X115852267Y-104099361D01*
X115899886Y-104004123D01*
X115899886Y-103813646D01*
X115852267Y-103718408D01*
X115233219Y-102480313D02*
X116233219Y-102480313D01*
X116233219Y-102099360D01*
X116185600Y-102004122D01*
X116137981Y-101956503D01*
X116042743Y-101908884D01*
X115899886Y-101908884D01*
X115804648Y-101956503D01*
X115757029Y-102004122D01*
X115709410Y-102099360D01*
X115709410Y-102480313D01*
X115233219Y-101337456D02*
X115280838Y-101432694D01*
X115328457Y-101480313D01*
X115423695Y-101527932D01*
X115709410Y-101527932D01*
X115804648Y-101480313D01*
X115852267Y-101432694D01*
X115899886Y-101337456D01*
X115899886Y-101194598D01*
X115852267Y-101099360D01*
X115804648Y-101051741D01*
X115709410Y-101004122D01*
X115423695Y-101004122D01*
X115328457Y-101051741D01*
X115280838Y-101099360D01*
X115233219Y-101194598D01*
X115233219Y-101337456D01*
X115233219Y-100575551D02*
X115899886Y-100575551D01*
X115804648Y-100575551D02*
X115852267Y-100527932D01*
X115899886Y-100432694D01*
X115899886Y-100289836D01*
X115852267Y-100194598D01*
X115757029Y-100146979D01*
X115233219Y-100146979D01*
X115757029Y-100146979D02*
X115852267Y-100099360D01*
X115899886Y-100004122D01*
X115899886Y-99861265D01*
X115852267Y-99766027D01*
X115757029Y-99718408D01*
X115233219Y-99718408D01*
X115233219Y-99099361D02*
X115280838Y-99194599D01*
X115328457Y-99242218D01*
X115423695Y-99289837D01*
X115709410Y-99289837D01*
X115804648Y-99242218D01*
X115852267Y-99194599D01*
X115899886Y-99099361D01*
X115899886Y-98956503D01*
X115852267Y-98861265D01*
X115804648Y-98813646D01*
X115709410Y-98766027D01*
X115423695Y-98766027D01*
X115328457Y-98813646D01*
X115280838Y-98861265D01*
X115233219Y-98956503D01*
X115233219Y-99099361D01*
X115899886Y-97908884D02*
X115090362Y-97908884D01*
X114995124Y-97956503D01*
X114947505Y-98004122D01*
X114899886Y-98099361D01*
X114899886Y-98242218D01*
X114947505Y-98337456D01*
X115280838Y-97908884D02*
X115233219Y-98004122D01*
X115233219Y-98194599D01*
X115280838Y-98289837D01*
X115328457Y-98337456D01*
X115423695Y-98385075D01*
X115709410Y-98385075D01*
X115804648Y-98337456D01*
X115852267Y-98289837D01*
X115899886Y-98194599D01*
X115899886Y-98004122D01*
X115852267Y-97908884D01*
X115233219Y-97004122D02*
X115757029Y-97004122D01*
X115852267Y-97051741D01*
X115899886Y-97146979D01*
X115899886Y-97337456D01*
X115852267Y-97432694D01*
X115280838Y-97004122D02*
X115233219Y-97099360D01*
X115233219Y-97337456D01*
X115280838Y-97432694D01*
X115376076Y-97480313D01*
X115471314Y-97480313D01*
X115566552Y-97432694D01*
X115614171Y-97337456D01*
X115614171Y-97099360D01*
X115661790Y-97004122D01*
X115280838Y-96146979D02*
X115233219Y-96242217D01*
X115233219Y-96432694D01*
X115280838Y-96527932D01*
X115376076Y-96575551D01*
X115757029Y-96575551D01*
X115852267Y-96527932D01*
X115899886Y-96432694D01*
X115899886Y-96242217D01*
X115852267Y-96146979D01*
X115757029Y-96099360D01*
X115661790Y-96099360D01*
X115566552Y-96575551D01*
X115899886Y-95766027D02*
X115233219Y-95527932D01*
X115899886Y-95289836D01*
X113530838Y-108527933D02*
X113483219Y-108623171D01*
X113483219Y-108813648D01*
X113530838Y-108908886D01*
X113578457Y-108956505D01*
X113673695Y-109004124D01*
X113959410Y-109004124D01*
X114054648Y-108956505D01*
X114102267Y-108908886D01*
X114149886Y-108813648D01*
X114149886Y-108623171D01*
X114102267Y-108527933D01*
X114149886Y-107670790D02*
X113483219Y-107670790D01*
X114149886Y-108099362D02*
X113626076Y-108099362D01*
X113530838Y-108051743D01*
X113483219Y-107956505D01*
X113483219Y-107813647D01*
X113530838Y-107718409D01*
X113578457Y-107670790D01*
X113483219Y-107194600D02*
X114149886Y-107194600D01*
X113959410Y-107194600D02*
X114054648Y-107146981D01*
X114102267Y-107099362D01*
X114149886Y-107004124D01*
X114149886Y-106908885D01*
X113483219Y-106575552D02*
X114149886Y-106575552D01*
X113959410Y-106575552D02*
X114054648Y-106527933D01*
X114102267Y-106480314D01*
X114149886Y-106385076D01*
X114149886Y-106289837D01*
X113530838Y-105575551D02*
X113483219Y-105670789D01*
X113483219Y-105861266D01*
X113530838Y-105956504D01*
X113626076Y-106004123D01*
X114007029Y-106004123D01*
X114102267Y-105956504D01*
X114149886Y-105861266D01*
X114149886Y-105670789D01*
X114102267Y-105575551D01*
X114007029Y-105527932D01*
X113911790Y-105527932D01*
X113816552Y-106004123D01*
X114149886Y-105099361D02*
X113483219Y-105099361D01*
X114054648Y-105099361D02*
X114102267Y-105051742D01*
X114149886Y-104956504D01*
X114149886Y-104813646D01*
X114102267Y-104718408D01*
X114007029Y-104670789D01*
X113483219Y-104670789D01*
X114149886Y-104337456D02*
X114149886Y-103956504D01*
X114483219Y-104194599D02*
X113626076Y-104194599D01*
X113530838Y-104146980D01*
X113483219Y-104051742D01*
X113483219Y-103956504D01*
X113530838Y-103194598D02*
X113483219Y-103289836D01*
X113483219Y-103480313D01*
X113530838Y-103575551D01*
X113578457Y-103623170D01*
X113673695Y-103670789D01*
X113959410Y-103670789D01*
X114054648Y-103623170D01*
X114102267Y-103575551D01*
X114149886Y-103480313D01*
X114149886Y-103289836D01*
X114102267Y-103194598D01*
X113483219Y-102623170D02*
X113530838Y-102718408D01*
X113578457Y-102766027D01*
X113673695Y-102813646D01*
X113959410Y-102813646D01*
X114054648Y-102766027D01*
X114102267Y-102718408D01*
X114149886Y-102623170D01*
X114149886Y-102480312D01*
X114102267Y-102385074D01*
X114054648Y-102337455D01*
X113959410Y-102289836D01*
X113673695Y-102289836D01*
X113578457Y-102337455D01*
X113530838Y-102385074D01*
X113483219Y-102480312D01*
X113483219Y-102623170D01*
X114149886Y-101861265D02*
X113483219Y-101861265D01*
X114054648Y-101861265D02*
X114102267Y-101813646D01*
X114149886Y-101718408D01*
X114149886Y-101575550D01*
X114102267Y-101480312D01*
X114007029Y-101432693D01*
X113483219Y-101432693D01*
X114149886Y-101099360D02*
X114149886Y-100718408D01*
X114483219Y-100956503D02*
X113626076Y-100956503D01*
X113530838Y-100908884D01*
X113483219Y-100813646D01*
X113483219Y-100718408D01*
X113483219Y-100385074D02*
X114149886Y-100385074D01*
X113959410Y-100385074D02*
X114054648Y-100337455D01*
X114102267Y-100289836D01*
X114149886Y-100194598D01*
X114149886Y-100099359D01*
X113483219Y-99623169D02*
X113530838Y-99718407D01*
X113578457Y-99766026D01*
X113673695Y-99813645D01*
X113959410Y-99813645D01*
X114054648Y-99766026D01*
X114102267Y-99718407D01*
X114149886Y-99623169D01*
X114149886Y-99480311D01*
X114102267Y-99385073D01*
X114054648Y-99337454D01*
X113959410Y-99289835D01*
X113673695Y-99289835D01*
X113578457Y-99337454D01*
X113530838Y-99385073D01*
X113483219Y-99480311D01*
X113483219Y-99623169D01*
X113483219Y-98718407D02*
X113530838Y-98813645D01*
X113626076Y-98861264D01*
X114483219Y-98861264D01*
X113530838Y-98385073D02*
X113483219Y-98289835D01*
X113483219Y-98099359D01*
X113530838Y-98004120D01*
X113626076Y-97956501D01*
X113673695Y-97956501D01*
X113768933Y-98004120D01*
X113816552Y-98099359D01*
X113816552Y-98242216D01*
X113864171Y-98337454D01*
X113959410Y-98385073D01*
X114007029Y-98385073D01*
X114102267Y-98337454D01*
X114149886Y-98242216D01*
X114149886Y-98099359D01*
X114102267Y-98004120D01*
X114149886Y-97623168D02*
X113483219Y-97385073D01*
X114149886Y-97146977D02*
X113483219Y-97385073D01*
X113245124Y-97480311D01*
X113197505Y-97527930D01*
X113149886Y-97623168D01*
X113530838Y-96813644D02*
X113483219Y-96718406D01*
X113483219Y-96527930D01*
X113530838Y-96432691D01*
X113626076Y-96385072D01*
X113673695Y-96385072D01*
X113768933Y-96432691D01*
X113816552Y-96527930D01*
X113816552Y-96670787D01*
X113864171Y-96766025D01*
X113959410Y-96813644D01*
X114007029Y-96813644D01*
X114102267Y-96766025D01*
X114149886Y-96670787D01*
X114149886Y-96527930D01*
X114102267Y-96432691D01*
X114149886Y-96099358D02*
X114149886Y-95718406D01*
X114483219Y-95956501D02*
X113626076Y-95956501D01*
X113530838Y-95908882D01*
X113483219Y-95813644D01*
X113483219Y-95718406D01*
X113530838Y-95004119D02*
X113483219Y-95099357D01*
X113483219Y-95289834D01*
X113530838Y-95385072D01*
X113626076Y-95432691D01*
X114007029Y-95432691D01*
X114102267Y-95385072D01*
X114149886Y-95289834D01*
X114149886Y-95099357D01*
X114102267Y-95004119D01*
X114007029Y-94956500D01*
X113911790Y-94956500D01*
X113816552Y-95432691D01*
X113483219Y-94527929D02*
X114149886Y-94527929D01*
X114054648Y-94527929D02*
X114102267Y-94480310D01*
X114149886Y-94385072D01*
X114149886Y-94242214D01*
X114102267Y-94146976D01*
X114007029Y-94099357D01*
X113483219Y-94099357D01*
X114007029Y-94099357D02*
X114102267Y-94051738D01*
X114149886Y-93956500D01*
X114149886Y-93813643D01*
X114102267Y-93718405D01*
X114007029Y-93670786D01*
X113483219Y-93670786D01*
X113530838Y-93242215D02*
X113483219Y-93146977D01*
X113483219Y-92956501D01*
X113530838Y-92861262D01*
X113626076Y-92813643D01*
X113673695Y-92813643D01*
X113768933Y-92861262D01*
X113816552Y-92956501D01*
X113816552Y-93099358D01*
X113864171Y-93194596D01*
X113959410Y-93242215D01*
X114007029Y-93242215D01*
X114102267Y-93194596D01*
X114149886Y-93099358D01*
X114149886Y-92956501D01*
X114102267Y-92861262D01*
X113578457Y-92385072D02*
X113530838Y-92337453D01*
X113483219Y-92385072D01*
X113530838Y-92432691D01*
X113578457Y-92385072D01*
X113483219Y-92385072D01*
X113530838Y-91480310D02*
X113483219Y-91575548D01*
X113483219Y-91766025D01*
X113530838Y-91861263D01*
X113578457Y-91908882D01*
X113673695Y-91956501D01*
X113959410Y-91956501D01*
X114054648Y-91908882D01*
X114102267Y-91861263D01*
X114149886Y-91766025D01*
X114149886Y-91575548D01*
X114102267Y-91480310D01*
X113483219Y-90908882D02*
X113530838Y-91004120D01*
X113578457Y-91051739D01*
X113673695Y-91099358D01*
X113959410Y-91099358D01*
X114054648Y-91051739D01*
X114102267Y-91004120D01*
X114149886Y-90908882D01*
X114149886Y-90766024D01*
X114102267Y-90670786D01*
X114054648Y-90623167D01*
X113959410Y-90575548D01*
X113673695Y-90575548D01*
X113578457Y-90623167D01*
X113530838Y-90670786D01*
X113483219Y-90766024D01*
X113483219Y-90908882D01*
X113483219Y-90146977D02*
X114149886Y-90146977D01*
X114054648Y-90146977D02*
X114102267Y-90099358D01*
X114149886Y-90004120D01*
X114149886Y-89861262D01*
X114102267Y-89766024D01*
X114007029Y-89718405D01*
X113483219Y-89718405D01*
X114007029Y-89718405D02*
X114102267Y-89670786D01*
X114149886Y-89575548D01*
X114149886Y-89432691D01*
X114102267Y-89337453D01*
X114007029Y-89289834D01*
X113483219Y-89289834D01*
D13*
X164895400Y-113865600D02*
X164895400Y-110365600D01*
X164895400Y-110365600D02*
X167895400Y-110365600D01*
X167895400Y-110365600D02*
X167895400Y-113865600D01*
X167895400Y-113865600D02*
X164895400Y-113865600D01*
D14*
X107608000Y-118965600D02*
X107608000Y-117965600D01*
X109308000Y-117965600D02*
X109308000Y-118965600D01*
X105855400Y-118991000D02*
X105855400Y-117991000D01*
X107555400Y-117991000D02*
X107555400Y-118991000D01*
X136663800Y-88654000D02*
X136663800Y-89654000D01*
X134963800Y-89654000D02*
X134963800Y-88654000D01*
X104050200Y-112606200D02*
X104050200Y-113606200D01*
X102350200Y-113606200D02*
X102350200Y-112606200D01*
X165545400Y-107434000D02*
X165545400Y-106434000D01*
X167245400Y-106434000D02*
X167245400Y-107434000D01*
X163335600Y-108475400D02*
X163335600Y-107475400D01*
X165035600Y-107475400D02*
X165035600Y-108475400D01*
X177583200Y-91016200D02*
X177583200Y-92016200D01*
X175883200Y-92016200D02*
X175883200Y-91016200D01*
X150026000Y-114393600D02*
X150026000Y-113393600D01*
X151726000Y-113393600D02*
X151726000Y-114393600D01*
D10*
X186097800Y-96985200D02*
X177977800Y-96985200D01*
X171977800Y-113225200D02*
X169857800Y-113225200D01*
X169857800Y-113225200D02*
X169857800Y-113055200D01*
X186097800Y-113225200D02*
X183977800Y-113225200D01*
X186097800Y-113225200D02*
X186097800Y-113055200D01*
X171977800Y-96985200D02*
X169857800Y-96985200D01*
X169857800Y-96985200D02*
X169857800Y-97155200D01*
D14*
X138344200Y-84159200D02*
X137144200Y-84159200D01*
X137144200Y-85919200D02*
X138344200Y-85919200D01*
X162848400Y-83245400D02*
X162848400Y-84445400D01*
X164608400Y-84445400D02*
X164608400Y-83245400D01*
X165337600Y-83245400D02*
X165337600Y-84445400D01*
X167097600Y-84445400D02*
X167097600Y-83245400D01*
X167877600Y-83245400D02*
X167877600Y-84445400D01*
X169637600Y-84445400D02*
X169637600Y-83245400D01*
D15*
G36*
X151857990Y-96223467D02*
X151763843Y-96305765D01*
X151621387Y-96437951D01*
X151442450Y-96609110D01*
X151295100Y-96752869D01*
X150855343Y-97180544D01*
X150459772Y-97555667D01*
X150112341Y-97874795D01*
X149817001Y-98134483D01*
X149577707Y-98331287D01*
X149398411Y-98461762D01*
X149283065Y-98522466D01*
X149259452Y-98526600D01*
X149208097Y-98482939D01*
X149171484Y-98386900D01*
X149131197Y-98246090D01*
X149071079Y-98080870D01*
X149060223Y-98054531D01*
X148979014Y-97861862D01*
X148897892Y-98184119D01*
X148749667Y-98579619D01*
X148518020Y-98948327D01*
X148246845Y-99238591D01*
X148088500Y-99370363D01*
X147994225Y-99428093D01*
X147959182Y-99412399D01*
X147978531Y-99323900D01*
X147999607Y-99270188D01*
X148054587Y-99108469D01*
X148121868Y-98861794D01*
X148197987Y-98545577D01*
X148279482Y-98175233D01*
X148362891Y-97766176D01*
X148444751Y-97333820D01*
X148484131Y-97113077D01*
X148628942Y-96283753D01*
X148483001Y-96423573D01*
X148385546Y-96505576D01*
X148320335Y-96539685D01*
X148311061Y-96537394D01*
X148310522Y-96479410D01*
X148332406Y-96348962D01*
X148372210Y-96171556D01*
X148383793Y-96125359D01*
X148480249Y-95688238D01*
X148570277Y-95161814D01*
X148652892Y-94558237D01*
X148727108Y-93889658D01*
X148791940Y-93168227D01*
X148846401Y-92406094D01*
X148889506Y-91615411D01*
X148920270Y-90808327D01*
X148937705Y-89996994D01*
X148941121Y-89255600D01*
X148936872Y-88188800D01*
X148819873Y-88722200D01*
X148696893Y-89238012D01*
X148537138Y-89834565D01*
X148344260Y-90499389D01*
X148121910Y-91220014D01*
X147873740Y-91983971D01*
X147800778Y-92202000D01*
X147643314Y-92668665D01*
X147514683Y-93047396D01*
X147411809Y-93346721D01*
X147331611Y-93575165D01*
X147271013Y-93741253D01*
X147226936Y-93853511D01*
X147196303Y-93920465D01*
X147176034Y-93950641D01*
X147168001Y-93954652D01*
X147160898Y-93906466D01*
X147156372Y-93772202D01*
X147154549Y-93567354D01*
X147155554Y-93307414D01*
X147159513Y-93007876D01*
X147160069Y-92976752D01*
X147157256Y-92146360D01*
X147118628Y-91363282D01*
X147045397Y-90644970D01*
X146961978Y-90124840D01*
X146919673Y-89911872D01*
X146882712Y-89739610D01*
X146856013Y-89630235D01*
X146846325Y-89603192D01*
X146836597Y-89642839D01*
X146824361Y-89765046D01*
X146811180Y-89950854D01*
X146798620Y-90181306D01*
X146798598Y-90181752D01*
X146775673Y-90491191D01*
X146737382Y-90832613D01*
X146690050Y-91154088D01*
X146661332Y-91309065D01*
X146604700Y-91552706D01*
X146533258Y-91813374D01*
X146453889Y-92070713D01*
X146373473Y-92304365D01*
X146298891Y-92493972D01*
X146237025Y-92619177D01*
X146205637Y-92657200D01*
X146161018Y-92630131D01*
X146082171Y-92535107D01*
X145985599Y-92392201D01*
X145978881Y-92381376D01*
X145805167Y-92135428D01*
X145569198Y-91852078D01*
X145291347Y-91553045D01*
X144991986Y-91260046D01*
X144691487Y-90994800D01*
X144634550Y-90948208D01*
X144247444Y-90654200D01*
X143797270Y-90342524D01*
X143310884Y-90029766D01*
X142815143Y-89732512D01*
X142336905Y-89467352D01*
X141903024Y-89250870D01*
X141839058Y-89221654D01*
X141514315Y-89075551D01*
X142270858Y-89854181D01*
X142805459Y-90419108D01*
X143261847Y-90933926D01*
X143645675Y-91405879D01*
X143962593Y-91842208D01*
X144218253Y-92250158D01*
X144381724Y-92559399D01*
X144481000Y-92791099D01*
X144557979Y-93021666D01*
X144607998Y-93230096D01*
X144626393Y-93395389D01*
X144608502Y-93496540D01*
X144593361Y-93512565D01*
X144533292Y-93499887D01*
X144406483Y-93443308D01*
X144232612Y-93352355D01*
X144066399Y-93257434D01*
X143721753Y-93063395D01*
X143314732Y-92850073D01*
X142871898Y-92630145D01*
X142419814Y-92416292D01*
X141985042Y-92221191D01*
X141594146Y-92057521D01*
X141381881Y-91976078D01*
X140829588Y-91790369D01*
X140263149Y-91629127D01*
X139716333Y-91501108D01*
X139222905Y-91415065D01*
X139212721Y-91413685D01*
X138909057Y-91385455D01*
X138556461Y-91372824D01*
X138182025Y-91374868D01*
X137812843Y-91390667D01*
X137476007Y-91419298D01*
X137198610Y-91459838D01*
X137083800Y-91486155D01*
X136627824Y-91646913D01*
X136181883Y-91869121D01*
X135770915Y-92137196D01*
X135419857Y-92435553D01*
X135231013Y-92644090D01*
X135127983Y-92777392D01*
X135058670Y-92874657D01*
X135038289Y-92914007D01*
X135090872Y-92911013D01*
X135220510Y-92893891D01*
X135404148Y-92865837D01*
X135509000Y-92848713D01*
X135801344Y-92813336D01*
X136194081Y-92787856D01*
X136686484Y-92772309D01*
X137134600Y-92767122D01*
X137606463Y-92768095D01*
X137993360Y-92777326D01*
X138311747Y-92797078D01*
X138578081Y-92829613D01*
X138808818Y-92877192D01*
X139020415Y-92942079D01*
X139229329Y-93026534D01*
X139317755Y-93067212D01*
X139507460Y-93172863D01*
X139691901Y-93302461D01*
X139850192Y-93438062D01*
X139961444Y-93561722D01*
X140004768Y-93655495D01*
X140004800Y-93657438D01*
X139974400Y-93722240D01*
X139890979Y-93848881D01*
X139766204Y-94020854D01*
X139611745Y-94221655D01*
X139559316Y-94287604D01*
X138881288Y-95162753D01*
X138256988Y-96027407D01*
X137689820Y-96875396D01*
X137183187Y-97700550D01*
X136740493Y-98496702D01*
X136365141Y-99257682D01*
X136060535Y-99977321D01*
X135830078Y-100649450D01*
X135677175Y-101267899D01*
X135661739Y-101352206D01*
X135617776Y-101616617D01*
X135595341Y-101788489D01*
X135594884Y-101874676D01*
X135616855Y-101882029D01*
X135661705Y-101817400D01*
X135689042Y-101767473D01*
X135769256Y-101641352D01*
X135883970Y-101492172D01*
X136016187Y-101338215D01*
X136148913Y-101197764D01*
X136265150Y-101089102D01*
X136347902Y-101030513D01*
X136376141Y-101028364D01*
X136401639Y-101103128D01*
X136421057Y-101255636D01*
X136433994Y-101462190D01*
X136440045Y-101699093D01*
X136438808Y-101942647D01*
X136429882Y-102169155D01*
X136412861Y-102354918D01*
X136399975Y-102430812D01*
X136246792Y-102899265D01*
X136002691Y-103337632D01*
X135676460Y-103735351D01*
X135276889Y-104081862D01*
X134812765Y-104366603D01*
X134772400Y-104386745D01*
X134211703Y-104620770D01*
X133645734Y-104778541D01*
X133091786Y-104856811D01*
X132567150Y-104852330D01*
X132402351Y-104831975D01*
X132209418Y-104799319D01*
X132048007Y-104767127D01*
X131952035Y-104742185D01*
X131950214Y-104741502D01*
X131908168Y-104736997D01*
X131911099Y-104782139D01*
X131962472Y-104891951D01*
X132001972Y-104965832D01*
X132135016Y-105173203D01*
X132329356Y-105426857D01*
X132568337Y-105707916D01*
X132835305Y-105997500D01*
X133113605Y-106276729D01*
X133353316Y-106497714D01*
X133526575Y-106652297D01*
X133669430Y-106784169D01*
X133765648Y-106878056D01*
X133798734Y-106916814D01*
X133776430Y-106953586D01*
X133676211Y-106956053D01*
X133514147Y-106928504D01*
X133306307Y-106875228D01*
X133068759Y-106800515D01*
X132817574Y-106708655D01*
X132568820Y-106603935D01*
X132490899Y-106567715D01*
X132006330Y-106281399D01*
X131583207Y-105916638D01*
X131226085Y-105479164D01*
X130939517Y-104974710D01*
X130728057Y-104409007D01*
X130702318Y-104316289D01*
X130652508Y-104106789D01*
X130618689Y-103902098D01*
X130597990Y-103673608D01*
X130587543Y-103392707D01*
X130584769Y-103144054D01*
X130582177Y-102839827D01*
X130574779Y-102632734D01*
X130558315Y-102518306D01*
X130528524Y-102492078D01*
X130481148Y-102549584D01*
X130411925Y-102686358D01*
X130327208Y-102874024D01*
X130113879Y-103447291D01*
X129970362Y-104038430D01*
X129909305Y-104542371D01*
X129879871Y-105046341D01*
X129763991Y-104911623D01*
X129694833Y-104807968D01*
X129644912Y-104672205D01*
X129612643Y-104490549D01*
X129596444Y-104249212D01*
X129594730Y-103934408D01*
X129605825Y-103534789D01*
X129638544Y-103024606D01*
X129696818Y-102491731D01*
X129776806Y-101955905D01*
X129874667Y-101436871D01*
X129986560Y-100954370D01*
X130108643Y-100528144D01*
X130237077Y-100177935D01*
X130275673Y-100091909D01*
X130370540Y-99914782D01*
X130467486Y-99801188D01*
X130597750Y-99717333D01*
X130641796Y-99695824D01*
X131035278Y-99554150D01*
X131405219Y-99506914D01*
X131745318Y-99552283D01*
X132049278Y-99688421D01*
X132310799Y-99913496D01*
X132523581Y-100225674D01*
X132534517Y-100246851D01*
X132613824Y-100399264D01*
X132660927Y-100471138D01*
X132688712Y-100472979D01*
X132710068Y-100415293D01*
X132715505Y-100394397D01*
X132725355Y-100164709D01*
X132653743Y-99890548D01*
X132505637Y-99580851D01*
X132286004Y-99244557D01*
X131999810Y-98890606D01*
X131709854Y-98584452D01*
X131537366Y-98415456D01*
X131388525Y-98272540D01*
X131279609Y-98171145D01*
X131227682Y-98127173D01*
X131213465Y-98059901D01*
X131243440Y-97906863D01*
X131299060Y-97724881D01*
X131360824Y-97519598D01*
X131431192Y-97252643D01*
X131500466Y-96962282D01*
X131547138Y-96745961D01*
X131613471Y-96434896D01*
X131669373Y-96211514D01*
X131719649Y-96063043D01*
X131769102Y-95976713D01*
X131822535Y-95939756D01*
X131851883Y-95935800D01*
X131923052Y-95972530D01*
X131999284Y-96087332D01*
X132083959Y-96287123D01*
X132180457Y-96578823D01*
X132203491Y-96655619D01*
X132262684Y-96851125D01*
X132299963Y-96957450D01*
X132320399Y-96983359D01*
X132329067Y-96937623D01*
X132330773Y-96875600D01*
X132324807Y-96637577D01*
X132304427Y-96340635D01*
X132272397Y-96005744D01*
X132231481Y-95653869D01*
X132184442Y-95305980D01*
X132134046Y-94983042D01*
X132083054Y-94706025D01*
X132034233Y-94495894D01*
X132005188Y-94405656D01*
X132006086Y-94324238D01*
X132086526Y-94293759D01*
X132236927Y-94316376D01*
X132306233Y-94337889D01*
X132503514Y-94444572D01*
X132736489Y-94638352D01*
X133000241Y-94913195D01*
X133289851Y-95263067D01*
X133600404Y-95681934D01*
X133926983Y-96163763D01*
X134264669Y-96702519D01*
X134351903Y-96848181D01*
X134505602Y-97106654D01*
X134643911Y-97338293D01*
X134757470Y-97527497D01*
X134836917Y-97658664D01*
X134871251Y-97713800D01*
X134878812Y-97705763D01*
X134855025Y-97616234D01*
X134804650Y-97458689D01*
X134732446Y-97246603D01*
X134643174Y-96993452D01*
X134541593Y-96712712D01*
X134432463Y-96417857D01*
X134320544Y-96122364D01*
X134210596Y-95839708D01*
X134198360Y-95808800D01*
X133707444Y-94629384D01*
X133198686Y-93519540D01*
X132674431Y-92482825D01*
X132137022Y-91522798D01*
X131588805Y-90643016D01*
X131032121Y-89847038D01*
X130469317Y-89138419D01*
X129902736Y-88520720D01*
X129334722Y-87997496D01*
X128774450Y-87576840D01*
X128192980Y-87241672D01*
X127609921Y-87007936D01*
X127025720Y-86875485D01*
X126440824Y-86844172D01*
X125855681Y-86913850D01*
X125270737Y-87084371D01*
X124686439Y-87355589D01*
X124103235Y-87727355D01*
X123521571Y-88199523D01*
X122941894Y-88771945D01*
X122364652Y-89444475D01*
X122112157Y-89771257D01*
X122140435Y-89775601D01*
X122247935Y-89747836D01*
X122419203Y-89692721D01*
X122638787Y-89615016D01*
X122733417Y-89579903D01*
X123352427Y-89361951D01*
X123900823Y-89201179D01*
X124390483Y-89095459D01*
X124833285Y-89042662D01*
X125241108Y-89040658D01*
X125552519Y-89074574D01*
X125845504Y-89133992D01*
X126160191Y-89218323D01*
X126475903Y-89319886D01*
X126771962Y-89430998D01*
X127027693Y-89543981D01*
X127222418Y-89651151D01*
X127325779Y-89733314D01*
X127369266Y-89792480D01*
X127351288Y-89830905D01*
X127255978Y-89868492D01*
X127205802Y-89883819D01*
X127061783Y-89945468D01*
X126920172Y-90036178D01*
X126795399Y-90140800D01*
X126701897Y-90244182D01*
X126654095Y-90331177D01*
X126666427Y-90386633D01*
X126715437Y-90398600D01*
X126822217Y-90425624D01*
X126990362Y-90498443D01*
X127197940Y-90604682D01*
X127423017Y-90731962D01*
X127643662Y-90867908D01*
X127837942Y-91000142D01*
X127978402Y-91111313D01*
X128410273Y-91564248D01*
X128776238Y-92088200D01*
X129072467Y-92673755D01*
X129295130Y-93311498D01*
X129440395Y-93992015D01*
X129504433Y-94705891D01*
X129507251Y-94869000D01*
X129506402Y-95129169D01*
X129498339Y-95315483D01*
X129478613Y-95455654D01*
X129442776Y-95577390D01*
X129386380Y-95708401D01*
X129365440Y-95752302D01*
X129223605Y-95997460D01*
X129056917Y-96208797D01*
X128883963Y-96366600D01*
X128723325Y-96451155D01*
X128701803Y-96456233D01*
X128461359Y-96452815D01*
X128231916Y-96352200D01*
X128019808Y-96158683D01*
X127831365Y-95876562D01*
X127822359Y-95859600D01*
X127756023Y-95719243D01*
X127715666Y-95585993D01*
X127695022Y-95426429D01*
X127687826Y-95207127D01*
X127687396Y-95139668D01*
X127685150Y-94922369D01*
X127678027Y-94791023D01*
X127662720Y-94729993D01*
X127635921Y-94723644D01*
X127604366Y-94747085D01*
X127486590Y-94896770D01*
X127368085Y-95122749D01*
X127257231Y-95400126D01*
X127162408Y-95704003D01*
X127091995Y-96009485D01*
X127054372Y-96291675D01*
X127050379Y-96393000D01*
X127042228Y-96571760D01*
X127015384Y-96664531D01*
X126962960Y-96670512D01*
X126878073Y-96588901D01*
X126753837Y-96418895D01*
X126709706Y-96353306D01*
X126385762Y-95809651D01*
X126133384Y-95264619D01*
X125954874Y-94728485D01*
X125852538Y-94211523D01*
X125828679Y-93724008D01*
X125885600Y-93276214D01*
X125962770Y-93022253D01*
X125979750Y-92962548D01*
X125949237Y-92957793D01*
X125850567Y-93004993D01*
X125849071Y-93005766D01*
X125679956Y-93125123D01*
X125502164Y-93300456D01*
X125344999Y-93498131D01*
X125237769Y-93684513D01*
X125222292Y-93725116D01*
X125181328Y-93943206D01*
X125172524Y-94226816D01*
X125193421Y-94545949D01*
X125241560Y-94870605D01*
X125314484Y-95170785D01*
X125349351Y-95275400D01*
X125602252Y-95872904D01*
X125936932Y-96511693D01*
X126347299Y-97182042D01*
X126827265Y-97874227D01*
X127370742Y-98578523D01*
X127566115Y-98815677D01*
X127709338Y-98992653D01*
X127823983Y-99145498D01*
X127896270Y-99255137D01*
X127914400Y-99297775D01*
X127898910Y-99361503D01*
X127856705Y-99501307D01*
X127794186Y-99698039D01*
X127717753Y-99932549D01*
X127633805Y-100185691D01*
X127548743Y-100438314D01*
X127468966Y-100671272D01*
X127400875Y-100865414D01*
X127350870Y-101001594D01*
X127325350Y-101060663D01*
X127325080Y-101060987D01*
X127283956Y-101035740D01*
X127184442Y-100952492D01*
X127041092Y-100823967D01*
X126868457Y-100662889D01*
X126853121Y-100648316D01*
X126104559Y-99999533D01*
X125275290Y-99398015D01*
X124378145Y-98851359D01*
X123425951Y-98367161D01*
X122431540Y-97953018D01*
X122101924Y-97834951D01*
X121929827Y-97778173D01*
X121800187Y-97739995D01*
X121737948Y-97727682D01*
X121736073Y-97728395D01*
X121768289Y-97762572D01*
X121866637Y-97844727D01*
X122015627Y-97962334D01*
X122189149Y-98094869D01*
X122456770Y-98311201D01*
X122770308Y-98588733D01*
X123111837Y-98909630D01*
X123463430Y-99256056D01*
X123807161Y-99610177D01*
X124125104Y-99954156D01*
X124399333Y-100270157D01*
X124500794Y-100394816D01*
X124793732Y-100780057D01*
X125109729Y-101223604D01*
X125429908Y-101697027D01*
X125735395Y-102171896D01*
X126007315Y-102619781D01*
X126177826Y-102920800D01*
X126341400Y-103228587D01*
X126491620Y-103524628D01*
X126622236Y-103795277D01*
X126726999Y-104026889D01*
X126799658Y-104205817D01*
X126833964Y-104318416D01*
X126832380Y-104349954D01*
X126766094Y-104349893D01*
X126650832Y-104287259D01*
X126503795Y-104176574D01*
X126342180Y-104032359D01*
X126183186Y-103869136D01*
X126044013Y-103701427D01*
X126012164Y-103657400D01*
X125963859Y-103592042D01*
X125940690Y-103583607D01*
X125938466Y-103645803D01*
X125952996Y-103792334D01*
X125957794Y-103835200D01*
X125993890Y-104067603D01*
X126052785Y-104299674D01*
X126139863Y-104541249D01*
X126260508Y-104802164D01*
X126420104Y-105092255D01*
X126624036Y-105421359D01*
X126877688Y-105799312D01*
X127186445Y-106235949D01*
X127527848Y-106703428D01*
X128070287Y-107438056D01*
X127674844Y-107544694D01*
X127119458Y-107731263D01*
X126523195Y-108000576D01*
X125895684Y-108347220D01*
X125246552Y-108765780D01*
X124585425Y-109250843D01*
X124446777Y-109360002D01*
X124258602Y-109512301D01*
X124105284Y-109640963D01*
X124001208Y-109733574D01*
X123960757Y-109777717D01*
X123960985Y-109779318D01*
X124013936Y-109773130D01*
X124142891Y-109742282D01*
X124326792Y-109692132D01*
X124486182Y-109645653D01*
X125226140Y-109433379D01*
X125884908Y-109264658D01*
X126472625Y-109138530D01*
X126999431Y-109054033D01*
X127475465Y-109010206D01*
X127910865Y-109006087D01*
X128315771Y-109040715D01*
X128700321Y-109113128D01*
X129047298Y-109213113D01*
X129388792Y-109335450D01*
X129701366Y-109462726D01*
X129971959Y-109588300D01*
X130187506Y-109705531D01*
X130334945Y-109807775D01*
X130401212Y-109888390D01*
X130403600Y-109902739D01*
X130354269Y-110036431D01*
X130211919Y-110160163D01*
X129985019Y-110268786D01*
X129682037Y-110357150D01*
X129642030Y-110365922D01*
X129415598Y-110414650D01*
X129280188Y-110448490D01*
X129227506Y-110473995D01*
X129249264Y-110497715D01*
X129337168Y-110526202D01*
X129413000Y-110546897D01*
X129900214Y-110654796D01*
X130442756Y-110733807D01*
X131012995Y-110782662D01*
X131583298Y-110800093D01*
X132126033Y-110784831D01*
X132613569Y-110735608D01*
X132804912Y-110702578D01*
X133610863Y-110496817D01*
X134371466Y-110209603D01*
X135094676Y-109836549D01*
X135788451Y-109373265D01*
X136460746Y-108815362D01*
X136782047Y-108508800D01*
X137469151Y-107760629D01*
X138078353Y-106958816D01*
X138617074Y-106092696D01*
X139043706Y-105258188D01*
X139148222Y-105037963D01*
X139238545Y-104855814D01*
X139305777Y-104729107D01*
X139341019Y-104675209D01*
X139342817Y-104674456D01*
X139379577Y-104714164D01*
X139464586Y-104823556D01*
X139587768Y-104989130D01*
X139739045Y-105197382D01*
X139873538Y-105385656D01*
X140038695Y-105617927D01*
X140181959Y-105818343D01*
X140293673Y-105973482D01*
X140364183Y-106069925D01*
X140384456Y-106095801D01*
X140385597Y-106047735D01*
X140384310Y-105914403D01*
X140380866Y-105712105D01*
X140375538Y-105457137D01*
X140369753Y-105212157D01*
X140367833Y-104510074D01*
X140394258Y-103769959D01*
X140446873Y-103004806D01*
X140523524Y-102227612D01*
X140622056Y-101451372D01*
X140740317Y-100689082D01*
X140876151Y-99953738D01*
X141027406Y-99258337D01*
X141191925Y-98615873D01*
X141367557Y-98039342D01*
X141552146Y-97541742D01*
X141692105Y-97234230D01*
X141896231Y-96864775D01*
X142092558Y-96588227D01*
X142289041Y-96397121D01*
X142493637Y-96283991D01*
X142714300Y-96241375D01*
X142751084Y-96240600D01*
X143002833Y-96286257D01*
X143253474Y-96424321D01*
X143504376Y-96656436D01*
X143756910Y-96984246D01*
X144012443Y-97409393D01*
X144272346Y-97933521D01*
X144396881Y-98215651D01*
X144488516Y-98437343D01*
X144583450Y-98678814D01*
X144674861Y-98921168D01*
X144755925Y-99145506D01*
X144819819Y-99332930D01*
X144859720Y-99464543D01*
X144868806Y-99521446D01*
X144868478Y-99521856D01*
X144824413Y-99500715D01*
X144724459Y-99430352D01*
X144600625Y-99334216D01*
X144349222Y-99152692D01*
X144084155Y-98996007D01*
X143841078Y-98884428D01*
X143764000Y-98858676D01*
X143637000Y-98821994D01*
X143750532Y-98905239D01*
X143847763Y-99003352D01*
X143953888Y-99149067D01*
X144047747Y-99308037D01*
X144108183Y-99445918D01*
X144119600Y-99504366D01*
X144109775Y-99547544D01*
X144064753Y-99558818D01*
X143961217Y-99538608D01*
X143852901Y-99509183D01*
X143705156Y-99478081D01*
X143505417Y-99450136D01*
X143274764Y-99426580D01*
X143034274Y-99408645D01*
X142805029Y-99397563D01*
X142608107Y-99394566D01*
X142464588Y-99400887D01*
X142395552Y-99417756D01*
X142392400Y-99423822D01*
X142435269Y-99470737D01*
X142540709Y-99524598D01*
X142563429Y-99533235D01*
X142731777Y-99614952D01*
X142952060Y-99752102D01*
X143203169Y-99929500D01*
X143463992Y-100131964D01*
X143713416Y-100344309D01*
X143794989Y-100418972D01*
X144134341Y-100736400D01*
X143860271Y-100775387D01*
X143468183Y-100876725D01*
X143131637Y-101062070D01*
X142848807Y-101332856D01*
X142617871Y-101690516D01*
X142569827Y-101789742D01*
X142492649Y-101971485D01*
X142429710Y-102154911D01*
X142379121Y-102353833D01*
X142338993Y-102582065D01*
X142307439Y-102853420D01*
X142282569Y-103181711D01*
X142262495Y-103580751D01*
X142245329Y-104064355D01*
X142241540Y-104190800D01*
X142228031Y-104625742D01*
X142214891Y-104973560D01*
X142200899Y-105248718D01*
X142184835Y-105465681D01*
X142165479Y-105638911D01*
X142141610Y-105782874D01*
X142112009Y-105912033D01*
X142089425Y-105993839D01*
X141978101Y-106323623D01*
X141840733Y-106618139D01*
X141661705Y-106903647D01*
X141425398Y-107206408D01*
X141247282Y-107409864D01*
X141066417Y-107613155D01*
X140944408Y-107760740D01*
X140869950Y-107870395D01*
X140831736Y-107959900D01*
X140818460Y-108047030D01*
X140817601Y-108085487D01*
X140845623Y-108295517D01*
X140936982Y-108502332D01*
X141102617Y-108727854D01*
X141183714Y-108819123D01*
X141426172Y-109012774D01*
X141707318Y-109116646D01*
X142016628Y-109129844D01*
X142343573Y-109051474D01*
X142583499Y-108938122D01*
X142804026Y-108799612D01*
X142975729Y-108655740D01*
X143115352Y-108484755D01*
X143239643Y-108264909D01*
X143365346Y-107974451D01*
X143406014Y-107869827D01*
X143591262Y-107398397D01*
X143750836Y-107021772D01*
X143886261Y-106736864D01*
X143999061Y-106540585D01*
X144090759Y-106429849D01*
X144128781Y-106405748D01*
X144260600Y-106354602D01*
X144413981Y-106296440D01*
X144416106Y-106295645D01*
X144477045Y-106262666D01*
X144477045Y-104665569D01*
X144408335Y-104662197D01*
X144364985Y-104577862D01*
X144340930Y-104406288D01*
X144330106Y-104141198D01*
X144328693Y-104054943D01*
X144322800Y-103614285D01*
X144822385Y-103152170D01*
X145136406Y-102866976D01*
X145384224Y-102653499D01*
X145564919Y-102512484D01*
X145677573Y-102444673D01*
X145704270Y-102438200D01*
X145741661Y-102478775D01*
X145731431Y-102591233D01*
X145680401Y-102761673D01*
X145595391Y-102976198D01*
X145483224Y-103220906D01*
X145350719Y-103481898D01*
X145204697Y-103745275D01*
X145051980Y-103997137D01*
X144899387Y-104223584D01*
X144753742Y-104410717D01*
X144714806Y-104454533D01*
X144577180Y-104594256D01*
X144477045Y-104665569D01*
X144477045Y-106262666D01*
X144527965Y-106235109D01*
X144632508Y-106132870D01*
X144739718Y-105974583D01*
X144859575Y-105745904D01*
X144977035Y-105489599D01*
X145109558Y-105210732D01*
X145249456Y-104969179D01*
X145414639Y-104740247D01*
X145623020Y-104499241D01*
X145892511Y-104221467D01*
X145908167Y-104205917D01*
X146197397Y-103930938D01*
X146437309Y-103731316D01*
X146638568Y-103600406D01*
X146811840Y-103531562D01*
X146967791Y-103518141D01*
X147004932Y-103522603D01*
X147155583Y-103571742D01*
X147273225Y-103651662D01*
X147281900Y-103661483D01*
X147347826Y-103813590D01*
X147367272Y-104040409D01*
X147342145Y-104327313D01*
X147274353Y-104659675D01*
X147165802Y-105022869D01*
X147071430Y-105275653D01*
X146961663Y-105547706D01*
X147160534Y-105390197D01*
X147427941Y-105153303D01*
X147673698Y-104889013D01*
X147877295Y-104622073D01*
X148018224Y-104377224D01*
X148037413Y-104332257D01*
X148120072Y-104028110D01*
X148159330Y-103664517D01*
X148155509Y-103273747D01*
X148108932Y-102888064D01*
X148019920Y-102539734D01*
X148019496Y-102538506D01*
X147887176Y-102156212D01*
X148422445Y-101598706D01*
X149176862Y-100760658D01*
X149874187Y-99880372D01*
X150502090Y-98975014D01*
X151048241Y-98061746D01*
X151280146Y-97620804D01*
X151404435Y-97366266D01*
X151529433Y-97098390D01*
X151647302Y-96835354D01*
X151750202Y-96595335D01*
X151830295Y-96396511D01*
X151879741Y-96257060D01*
X151892000Y-96201972D01*
X151857990Y-96223467D01*
X151857990Y-96223467D01*
G37*
X151857990Y-96223467D02*
X151763843Y-96305765D01*
X151621387Y-96437951D01*
X151442450Y-96609110D01*
X151295100Y-96752869D01*
X150855343Y-97180544D01*
X150459772Y-97555667D01*
X150112341Y-97874795D01*
X149817001Y-98134483D01*
X149577707Y-98331287D01*
X149398411Y-98461762D01*
X149283065Y-98522466D01*
X149259452Y-98526600D01*
X149208097Y-98482939D01*
X149171484Y-98386900D01*
X149131197Y-98246090D01*
X149071079Y-98080870D01*
X149060223Y-98054531D01*
X148979014Y-97861862D01*
X148897892Y-98184119D01*
X148749667Y-98579619D01*
X148518020Y-98948327D01*
X148246845Y-99238591D01*
X148088500Y-99370363D01*
X147994225Y-99428093D01*
X147959182Y-99412399D01*
X147978531Y-99323900D01*
X147999607Y-99270188D01*
X148054587Y-99108469D01*
X148121868Y-98861794D01*
X148197987Y-98545577D01*
X148279482Y-98175233D01*
X148362891Y-97766176D01*
X148444751Y-97333820D01*
X148484131Y-97113077D01*
X148628942Y-96283753D01*
X148483001Y-96423573D01*
X148385546Y-96505576D01*
X148320335Y-96539685D01*
X148311061Y-96537394D01*
X148310522Y-96479410D01*
X148332406Y-96348962D01*
X148372210Y-96171556D01*
X148383793Y-96125359D01*
X148480249Y-95688238D01*
X148570277Y-95161814D01*
X148652892Y-94558237D01*
X148727108Y-93889658D01*
X148791940Y-93168227D01*
X148846401Y-92406094D01*
X148889506Y-91615411D01*
X148920270Y-90808327D01*
X148937705Y-89996994D01*
X148941121Y-89255600D01*
X148936872Y-88188800D01*
X148819873Y-88722200D01*
X148696893Y-89238012D01*
X148537138Y-89834565D01*
X148344260Y-90499389D01*
X148121910Y-91220014D01*
X147873740Y-91983971D01*
X147800778Y-92202000D01*
X147643314Y-92668665D01*
X147514683Y-93047396D01*
X147411809Y-93346721D01*
X147331611Y-93575165D01*
X147271013Y-93741253D01*
X147226936Y-93853511D01*
X147196303Y-93920465D01*
X147176034Y-93950641D01*
X147168001Y-93954652D01*
X147160898Y-93906466D01*
X147156372Y-93772202D01*
X147154549Y-93567354D01*
X147155554Y-93307414D01*
X147159513Y-93007876D01*
X147160069Y-92976752D01*
X147157256Y-92146360D01*
X147118628Y-91363282D01*
X147045397Y-90644970D01*
X146961978Y-90124840D01*
X146919673Y-89911872D01*
X146882712Y-89739610D01*
X146856013Y-89630235D01*
X146846325Y-89603192D01*
X146836597Y-89642839D01*
X146824361Y-89765046D01*
X146811180Y-89950854D01*
X146798620Y-90181306D01*
X146798598Y-90181752D01*
X146775673Y-90491191D01*
X146737382Y-90832613D01*
X146690050Y-91154088D01*
X146661332Y-91309065D01*
X146604700Y-91552706D01*
X146533258Y-91813374D01*
X146453889Y-92070713D01*
X146373473Y-92304365D01*
X146298891Y-92493972D01*
X146237025Y-92619177D01*
X146205637Y-92657200D01*
X146161018Y-92630131D01*
X146082171Y-92535107D01*
X145985599Y-92392201D01*
X145978881Y-92381376D01*
X145805167Y-92135428D01*
X145569198Y-91852078D01*
X145291347Y-91553045D01*
X144991986Y-91260046D01*
X144691487Y-90994800D01*
X144634550Y-90948208D01*
X144247444Y-90654200D01*
X143797270Y-90342524D01*
X143310884Y-90029766D01*
X142815143Y-89732512D01*
X142336905Y-89467352D01*
X141903024Y-89250870D01*
X141839058Y-89221654D01*
X141514315Y-89075551D01*
X142270858Y-89854181D01*
X142805459Y-90419108D01*
X143261847Y-90933926D01*
X143645675Y-91405879D01*
X143962593Y-91842208D01*
X144218253Y-92250158D01*
X144381724Y-92559399D01*
X144481000Y-92791099D01*
X144557979Y-93021666D01*
X144607998Y-93230096D01*
X144626393Y-93395389D01*
X144608502Y-93496540D01*
X144593361Y-93512565D01*
X144533292Y-93499887D01*
X144406483Y-93443308D01*
X144232612Y-93352355D01*
X144066399Y-93257434D01*
X143721753Y-93063395D01*
X143314732Y-92850073D01*
X142871898Y-92630145D01*
X142419814Y-92416292D01*
X141985042Y-92221191D01*
X141594146Y-92057521D01*
X141381881Y-91976078D01*
X140829588Y-91790369D01*
X140263149Y-91629127D01*
X139716333Y-91501108D01*
X139222905Y-91415065D01*
X139212721Y-91413685D01*
X138909057Y-91385455D01*
X138556461Y-91372824D01*
X138182025Y-91374868D01*
X137812843Y-91390667D01*
X137476007Y-91419298D01*
X137198610Y-91459838D01*
X137083800Y-91486155D01*
X136627824Y-91646913D01*
X136181883Y-91869121D01*
X135770915Y-92137196D01*
X135419857Y-92435553D01*
X135231013Y-92644090D01*
X135127983Y-92777392D01*
X135058670Y-92874657D01*
X135038289Y-92914007D01*
X135090872Y-92911013D01*
X135220510Y-92893891D01*
X135404148Y-92865837D01*
X135509000Y-92848713D01*
X135801344Y-92813336D01*
X136194081Y-92787856D01*
X136686484Y-92772309D01*
X137134600Y-92767122D01*
X137606463Y-92768095D01*
X137993360Y-92777326D01*
X138311747Y-92797078D01*
X138578081Y-92829613D01*
X138808818Y-92877192D01*
X139020415Y-92942079D01*
X139229329Y-93026534D01*
X139317755Y-93067212D01*
X139507460Y-93172863D01*
X139691901Y-93302461D01*
X139850192Y-93438062D01*
X139961444Y-93561722D01*
X140004768Y-93655495D01*
X140004800Y-93657438D01*
X139974400Y-93722240D01*
X139890979Y-93848881D01*
X139766204Y-94020854D01*
X139611745Y-94221655D01*
X139559316Y-94287604D01*
X138881288Y-95162753D01*
X138256988Y-96027407D01*
X137689820Y-96875396D01*
X137183187Y-97700550D01*
X136740493Y-98496702D01*
X136365141Y-99257682D01*
X136060535Y-99977321D01*
X135830078Y-100649450D01*
X135677175Y-101267899D01*
X135661739Y-101352206D01*
X135617776Y-101616617D01*
X135595341Y-101788489D01*
X135594884Y-101874676D01*
X135616855Y-101882029D01*
X135661705Y-101817400D01*
X135689042Y-101767473D01*
X135769256Y-101641352D01*
X135883970Y-101492172D01*
X136016187Y-101338215D01*
X136148913Y-101197764D01*
X136265150Y-101089102D01*
X136347902Y-101030513D01*
X136376141Y-101028364D01*
X136401639Y-101103128D01*
X136421057Y-101255636D01*
X136433994Y-101462190D01*
X136440045Y-101699093D01*
X136438808Y-101942647D01*
X136429882Y-102169155D01*
X136412861Y-102354918D01*
X136399975Y-102430812D01*
X136246792Y-102899265D01*
X136002691Y-103337632D01*
X135676460Y-103735351D01*
X135276889Y-104081862D01*
X134812765Y-104366603D01*
X134772400Y-104386745D01*
X134211703Y-104620770D01*
X133645734Y-104778541D01*
X133091786Y-104856811D01*
X132567150Y-104852330D01*
X132402351Y-104831975D01*
X132209418Y-104799319D01*
X132048007Y-104767127D01*
X131952035Y-104742185D01*
X131950214Y-104741502D01*
X131908168Y-104736997D01*
X131911099Y-104782139D01*
X131962472Y-104891951D01*
X132001972Y-104965832D01*
X132135016Y-105173203D01*
X132329356Y-105426857D01*
X132568337Y-105707916D01*
X132835305Y-105997500D01*
X133113605Y-106276729D01*
X133353316Y-106497714D01*
X133526575Y-106652297D01*
X133669430Y-106784169D01*
X133765648Y-106878056D01*
X133798734Y-106916814D01*
X133776430Y-106953586D01*
X133676211Y-106956053D01*
X133514147Y-106928504D01*
X133306307Y-106875228D01*
X133068759Y-106800515D01*
X132817574Y-106708655D01*
X132568820Y-106603935D01*
X132490899Y-106567715D01*
X132006330Y-106281399D01*
X131583207Y-105916638D01*
X131226085Y-105479164D01*
X130939517Y-104974710D01*
X130728057Y-104409007D01*
X130702318Y-104316289D01*
X130652508Y-104106789D01*
X130618689Y-103902098D01*
X130597990Y-103673608D01*
X130587543Y-103392707D01*
X130584769Y-103144054D01*
X130582177Y-102839827D01*
X130574779Y-102632734D01*
X130558315Y-102518306D01*
X130528524Y-102492078D01*
X130481148Y-102549584D01*
X130411925Y-102686358D01*
X130327208Y-102874024D01*
X130113879Y-103447291D01*
X129970362Y-104038430D01*
X129909305Y-104542371D01*
X129879871Y-105046341D01*
X129763991Y-104911623D01*
X129694833Y-104807968D01*
X129644912Y-104672205D01*
X129612643Y-104490549D01*
X129596444Y-104249212D01*
X129594730Y-103934408D01*
X129605825Y-103534789D01*
X129638544Y-103024606D01*
X129696818Y-102491731D01*
X129776806Y-101955905D01*
X129874667Y-101436871D01*
X129986560Y-100954370D01*
X130108643Y-100528144D01*
X130237077Y-100177935D01*
X130275673Y-100091909D01*
X130370540Y-99914782D01*
X130467486Y-99801188D01*
X130597750Y-99717333D01*
X130641796Y-99695824D01*
X131035278Y-99554150D01*
X131405219Y-99506914D01*
X131745318Y-99552283D01*
X132049278Y-99688421D01*
X132310799Y-99913496D01*
X132523581Y-100225674D01*
X132534517Y-100246851D01*
X132613824Y-100399264D01*
X132660927Y-100471138D01*
X132688712Y-100472979D01*
X132710068Y-100415293D01*
X132715505Y-100394397D01*
X132725355Y-100164709D01*
X132653743Y-99890548D01*
X132505637Y-99580851D01*
X132286004Y-99244557D01*
X131999810Y-98890606D01*
X131709854Y-98584452D01*
X131537366Y-98415456D01*
X131388525Y-98272540D01*
X131279609Y-98171145D01*
X131227682Y-98127173D01*
X131213465Y-98059901D01*
X131243440Y-97906863D01*
X131299060Y-97724881D01*
X131360824Y-97519598D01*
X131431192Y-97252643D01*
X131500466Y-96962282D01*
X131547138Y-96745961D01*
X131613471Y-96434896D01*
X131669373Y-96211514D01*
X131719649Y-96063043D01*
X131769102Y-95976713D01*
X131822535Y-95939756D01*
X131851883Y-95935800D01*
X131923052Y-95972530D01*
X131999284Y-96087332D01*
X132083959Y-96287123D01*
X132180457Y-96578823D01*
X132203491Y-96655619D01*
X132262684Y-96851125D01*
X132299963Y-96957450D01*
X132320399Y-96983359D01*
X132329067Y-96937623D01*
X132330773Y-96875600D01*
X132324807Y-96637577D01*
X132304427Y-96340635D01*
X132272397Y-96005744D01*
X132231481Y-95653869D01*
X132184442Y-95305980D01*
X132134046Y-94983042D01*
X132083054Y-94706025D01*
X132034233Y-94495894D01*
X132005188Y-94405656D01*
X132006086Y-94324238D01*
X132086526Y-94293759D01*
X132236927Y-94316376D01*
X132306233Y-94337889D01*
X132503514Y-94444572D01*
X132736489Y-94638352D01*
X133000241Y-94913195D01*
X133289851Y-95263067D01*
X133600404Y-95681934D01*
X133926983Y-96163763D01*
X134264669Y-96702519D01*
X134351903Y-96848181D01*
X134505602Y-97106654D01*
X134643911Y-97338293D01*
X134757470Y-97527497D01*
X134836917Y-97658664D01*
X134871251Y-97713800D01*
X134878812Y-97705763D01*
X134855025Y-97616234D01*
X134804650Y-97458689D01*
X134732446Y-97246603D01*
X134643174Y-96993452D01*
X134541593Y-96712712D01*
X134432463Y-96417857D01*
X134320544Y-96122364D01*
X134210596Y-95839708D01*
X134198360Y-95808800D01*
X133707444Y-94629384D01*
X133198686Y-93519540D01*
X132674431Y-92482825D01*
X132137022Y-91522798D01*
X131588805Y-90643016D01*
X131032121Y-89847038D01*
X130469317Y-89138419D01*
X129902736Y-88520720D01*
X129334722Y-87997496D01*
X128774450Y-87576840D01*
X128192980Y-87241672D01*
X127609921Y-87007936D01*
X127025720Y-86875485D01*
X126440824Y-86844172D01*
X125855681Y-86913850D01*
X125270737Y-87084371D01*
X124686439Y-87355589D01*
X124103235Y-87727355D01*
X123521571Y-88199523D01*
X122941894Y-88771945D01*
X122364652Y-89444475D01*
X122112157Y-89771257D01*
X122140435Y-89775601D01*
X122247935Y-89747836D01*
X122419203Y-89692721D01*
X122638787Y-89615016D01*
X122733417Y-89579903D01*
X123352427Y-89361951D01*
X123900823Y-89201179D01*
X124390483Y-89095459D01*
X124833285Y-89042662D01*
X125241108Y-89040658D01*
X125552519Y-89074574D01*
X125845504Y-89133992D01*
X126160191Y-89218323D01*
X126475903Y-89319886D01*
X126771962Y-89430998D01*
X127027693Y-89543981D01*
X127222418Y-89651151D01*
X127325779Y-89733314D01*
X127369266Y-89792480D01*
X127351288Y-89830905D01*
X127255978Y-89868492D01*
X127205802Y-89883819D01*
X127061783Y-89945468D01*
X126920172Y-90036178D01*
X126795399Y-90140800D01*
X126701897Y-90244182D01*
X126654095Y-90331177D01*
X126666427Y-90386633D01*
X126715437Y-90398600D01*
X126822217Y-90425624D01*
X126990362Y-90498443D01*
X127197940Y-90604682D01*
X127423017Y-90731962D01*
X127643662Y-90867908D01*
X127837942Y-91000142D01*
X127978402Y-91111313D01*
X128410273Y-91564248D01*
X128776238Y-92088200D01*
X129072467Y-92673755D01*
X129295130Y-93311498D01*
X129440395Y-93992015D01*
X129504433Y-94705891D01*
X129507251Y-94869000D01*
X129506402Y-95129169D01*
X129498339Y-95315483D01*
X129478613Y-95455654D01*
X129442776Y-95577390D01*
X129386380Y-95708401D01*
X129365440Y-95752302D01*
X129223605Y-95997460D01*
X129056917Y-96208797D01*
X128883963Y-96366600D01*
X128723325Y-96451155D01*
X128701803Y-96456233D01*
X128461359Y-96452815D01*
X128231916Y-96352200D01*
X128019808Y-96158683D01*
X127831365Y-95876562D01*
X127822359Y-95859600D01*
X127756023Y-95719243D01*
X127715666Y-95585993D01*
X127695022Y-95426429D01*
X127687826Y-95207127D01*
X127687396Y-95139668D01*
X127685150Y-94922369D01*
X127678027Y-94791023D01*
X127662720Y-94729993D01*
X127635921Y-94723644D01*
X127604366Y-94747085D01*
X127486590Y-94896770D01*
X127368085Y-95122749D01*
X127257231Y-95400126D01*
X127162408Y-95704003D01*
X127091995Y-96009485D01*
X127054372Y-96291675D01*
X127050379Y-96393000D01*
X127042228Y-96571760D01*
X127015384Y-96664531D01*
X126962960Y-96670512D01*
X126878073Y-96588901D01*
X126753837Y-96418895D01*
X126709706Y-96353306D01*
X126385762Y-95809651D01*
X126133384Y-95264619D01*
X125954874Y-94728485D01*
X125852538Y-94211523D01*
X125828679Y-93724008D01*
X125885600Y-93276214D01*
X125962770Y-93022253D01*
X125979750Y-92962548D01*
X125949237Y-92957793D01*
X125850567Y-93004993D01*
X125849071Y-93005766D01*
X125679956Y-93125123D01*
X125502164Y-93300456D01*
X125344999Y-93498131D01*
X125237769Y-93684513D01*
X125222292Y-93725116D01*
X125181328Y-93943206D01*
X125172524Y-94226816D01*
X125193421Y-94545949D01*
X125241560Y-94870605D01*
X125314484Y-95170785D01*
X125349351Y-95275400D01*
X125602252Y-95872904D01*
X125936932Y-96511693D01*
X126347299Y-97182042D01*
X126827265Y-97874227D01*
X127370742Y-98578523D01*
X127566115Y-98815677D01*
X127709338Y-98992653D01*
X127823983Y-99145498D01*
X127896270Y-99255137D01*
X127914400Y-99297775D01*
X127898910Y-99361503D01*
X127856705Y-99501307D01*
X127794186Y-99698039D01*
X127717753Y-99932549D01*
X127633805Y-100185691D01*
X127548743Y-100438314D01*
X127468966Y-100671272D01*
X127400875Y-100865414D01*
X127350870Y-101001594D01*
X127325350Y-101060663D01*
X127325080Y-101060987D01*
X127283956Y-101035740D01*
X127184442Y-100952492D01*
X127041092Y-100823967D01*
X126868457Y-100662889D01*
X126853121Y-100648316D01*
X126104559Y-99999533D01*
X125275290Y-99398015D01*
X124378145Y-98851359D01*
X123425951Y-98367161D01*
X122431540Y-97953018D01*
X122101924Y-97834951D01*
X121929827Y-97778173D01*
X121800187Y-97739995D01*
X121737948Y-97727682D01*
X121736073Y-97728395D01*
X121768289Y-97762572D01*
X121866637Y-97844727D01*
X122015627Y-97962334D01*
X122189149Y-98094869D01*
X122456770Y-98311201D01*
X122770308Y-98588733D01*
X123111837Y-98909630D01*
X123463430Y-99256056D01*
X123807161Y-99610177D01*
X124125104Y-99954156D01*
X124399333Y-100270157D01*
X124500794Y-100394816D01*
X124793732Y-100780057D01*
X125109729Y-101223604D01*
X125429908Y-101697027D01*
X125735395Y-102171896D01*
X126007315Y-102619781D01*
X126177826Y-102920800D01*
X126341400Y-103228587D01*
X126491620Y-103524628D01*
X126622236Y-103795277D01*
X126726999Y-104026889D01*
X126799658Y-104205817D01*
X126833964Y-104318416D01*
X126832380Y-104349954D01*
X126766094Y-104349893D01*
X126650832Y-104287259D01*
X126503795Y-104176574D01*
X126342180Y-104032359D01*
X126183186Y-103869136D01*
X126044013Y-103701427D01*
X126012164Y-103657400D01*
X125963859Y-103592042D01*
X125940690Y-103583607D01*
X125938466Y-103645803D01*
X125952996Y-103792334D01*
X125957794Y-103835200D01*
X125993890Y-104067603D01*
X126052785Y-104299674D01*
X126139863Y-104541249D01*
X126260508Y-104802164D01*
X126420104Y-105092255D01*
X126624036Y-105421359D01*
X126877688Y-105799312D01*
X127186445Y-106235949D01*
X127527848Y-106703428D01*
X128070287Y-107438056D01*
X127674844Y-107544694D01*
X127119458Y-107731263D01*
X126523195Y-108000576D01*
X125895684Y-108347220D01*
X125246552Y-108765780D01*
X124585425Y-109250843D01*
X124446777Y-109360002D01*
X124258602Y-109512301D01*
X124105284Y-109640963D01*
X124001208Y-109733574D01*
X123960757Y-109777717D01*
X123960985Y-109779318D01*
X124013936Y-109773130D01*
X124142891Y-109742282D01*
X124326792Y-109692132D01*
X124486182Y-109645653D01*
X125226140Y-109433379D01*
X125884908Y-109264658D01*
X126472625Y-109138530D01*
X126999431Y-109054033D01*
X127475465Y-109010206D01*
X127910865Y-109006087D01*
X128315771Y-109040715D01*
X128700321Y-109113128D01*
X129047298Y-109213113D01*
X129388792Y-109335450D01*
X129701366Y-109462726D01*
X129971959Y-109588300D01*
X130187506Y-109705531D01*
X130334945Y-109807775D01*
X130401212Y-109888390D01*
X130403600Y-109902739D01*
X130354269Y-110036431D01*
X130211919Y-110160163D01*
X129985019Y-110268786D01*
X129682037Y-110357150D01*
X129642030Y-110365922D01*
X129415598Y-110414650D01*
X129280188Y-110448490D01*
X129227506Y-110473995D01*
X129249264Y-110497715D01*
X129337168Y-110526202D01*
X129413000Y-110546897D01*
X129900214Y-110654796D01*
X130442756Y-110733807D01*
X131012995Y-110782662D01*
X131583298Y-110800093D01*
X132126033Y-110784831D01*
X132613569Y-110735608D01*
X132804912Y-110702578D01*
X133610863Y-110496817D01*
X134371466Y-110209603D01*
X135094676Y-109836549D01*
X135788451Y-109373265D01*
X136460746Y-108815362D01*
X136782047Y-108508800D01*
X137469151Y-107760629D01*
X138078353Y-106958816D01*
X138617074Y-106092696D01*
X139043706Y-105258188D01*
X139148222Y-105037963D01*
X139238545Y-104855814D01*
X139305777Y-104729107D01*
X139341019Y-104675209D01*
X139342817Y-104674456D01*
X139379577Y-104714164D01*
X139464586Y-104823556D01*
X139587768Y-104989130D01*
X139739045Y-105197382D01*
X139873538Y-105385656D01*
X140038695Y-105617927D01*
X140181959Y-105818343D01*
X140293673Y-105973482D01*
X140364183Y-106069925D01*
X140384456Y-106095801D01*
X140385597Y-106047735D01*
X140384310Y-105914403D01*
X140380866Y-105712105D01*
X140375538Y-105457137D01*
X140369753Y-105212157D01*
X140367833Y-104510074D01*
X140394258Y-103769959D01*
X140446873Y-103004806D01*
X140523524Y-102227612D01*
X140622056Y-101451372D01*
X140740317Y-100689082D01*
X140876151Y-99953738D01*
X141027406Y-99258337D01*
X141191925Y-98615873D01*
X141367557Y-98039342D01*
X141552146Y-97541742D01*
X141692105Y-97234230D01*
X141896231Y-96864775D01*
X142092558Y-96588227D01*
X142289041Y-96397121D01*
X142493637Y-96283991D01*
X142714300Y-96241375D01*
X142751084Y-96240600D01*
X143002833Y-96286257D01*
X143253474Y-96424321D01*
X143504376Y-96656436D01*
X143756910Y-96984246D01*
X144012443Y-97409393D01*
X144272346Y-97933521D01*
X144396881Y-98215651D01*
X144488516Y-98437343D01*
X144583450Y-98678814D01*
X144674861Y-98921168D01*
X144755925Y-99145506D01*
X144819819Y-99332930D01*
X144859720Y-99464543D01*
X144868806Y-99521446D01*
X144868478Y-99521856D01*
X144824413Y-99500715D01*
X144724459Y-99430352D01*
X144600625Y-99334216D01*
X144349222Y-99152692D01*
X144084155Y-98996007D01*
X143841078Y-98884428D01*
X143764000Y-98858676D01*
X143637000Y-98821994D01*
X143750532Y-98905239D01*
X143847763Y-99003352D01*
X143953888Y-99149067D01*
X144047747Y-99308037D01*
X144108183Y-99445918D01*
X144119600Y-99504366D01*
X144109775Y-99547544D01*
X144064753Y-99558818D01*
X143961217Y-99538608D01*
X143852901Y-99509183D01*
X143705156Y-99478081D01*
X143505417Y-99450136D01*
X143274764Y-99426580D01*
X143034274Y-99408645D01*
X142805029Y-99397563D01*
X142608107Y-99394566D01*
X142464588Y-99400887D01*
X142395552Y-99417756D01*
X142392400Y-99423822D01*
X142435269Y-99470737D01*
X142540709Y-99524598D01*
X142563429Y-99533235D01*
X142731777Y-99614952D01*
X142952060Y-99752102D01*
X143203169Y-99929500D01*
X143463992Y-100131964D01*
X143713416Y-100344309D01*
X143794989Y-100418972D01*
X144134341Y-100736400D01*
X143860271Y-100775387D01*
X143468183Y-100876725D01*
X143131637Y-101062070D01*
X142848807Y-101332856D01*
X142617871Y-101690516D01*
X142569827Y-101789742D01*
X142492649Y-101971485D01*
X142429710Y-102154911D01*
X142379121Y-102353833D01*
X142338993Y-102582065D01*
X142307439Y-102853420D01*
X142282569Y-103181711D01*
X142262495Y-103580751D01*
X142245329Y-104064355D01*
X142241540Y-104190800D01*
X142228031Y-104625742D01*
X142214891Y-104973560D01*
X142200899Y-105248718D01*
X142184835Y-105465681D01*
X142165479Y-105638911D01*
X142141610Y-105782874D01*
X142112009Y-105912033D01*
X142089425Y-105993839D01*
X141978101Y-106323623D01*
X141840733Y-106618139D01*
X141661705Y-106903647D01*
X141425398Y-107206408D01*
X141247282Y-107409864D01*
X141066417Y-107613155D01*
X140944408Y-107760740D01*
X140869950Y-107870395D01*
X140831736Y-107959900D01*
X140818460Y-108047030D01*
X140817601Y-108085487D01*
X140845623Y-108295517D01*
X140936982Y-108502332D01*
X141102617Y-108727854D01*
X141183714Y-108819123D01*
X141426172Y-109012774D01*
X141707318Y-109116646D01*
X142016628Y-109129844D01*
X142343573Y-109051474D01*
X142583499Y-108938122D01*
X142804026Y-108799612D01*
X142975729Y-108655740D01*
X143115352Y-108484755D01*
X143239643Y-108264909D01*
X143365346Y-107974451D01*
X143406014Y-107869827D01*
X143591262Y-107398397D01*
X143750836Y-107021772D01*
X143886261Y-106736864D01*
X143999061Y-106540585D01*
X144090759Y-106429849D01*
X144128781Y-106405748D01*
X144260600Y-106354602D01*
X144413981Y-106296440D01*
X144416106Y-106295645D01*
X144477045Y-106262666D01*
X144477045Y-104665569D01*
X144408335Y-104662197D01*
X144364985Y-104577862D01*
X144340930Y-104406288D01*
X144330106Y-104141198D01*
X144328693Y-104054943D01*
X144322800Y-103614285D01*
X144822385Y-103152170D01*
X145136406Y-102866976D01*
X145384224Y-102653499D01*
X145564919Y-102512484D01*
X145677573Y-102444673D01*
X145704270Y-102438200D01*
X145741661Y-102478775D01*
X145731431Y-102591233D01*
X145680401Y-102761673D01*
X145595391Y-102976198D01*
X145483224Y-103220906D01*
X145350719Y-103481898D01*
X145204697Y-103745275D01*
X145051980Y-103997137D01*
X144899387Y-104223584D01*
X144753742Y-104410717D01*
X144714806Y-104454533D01*
X144577180Y-104594256D01*
X144477045Y-104665569D01*
X144477045Y-106262666D01*
X144527965Y-106235109D01*
X144632508Y-106132870D01*
X144739718Y-105974583D01*
X144859575Y-105745904D01*
X144977035Y-105489599D01*
X145109558Y-105210732D01*
X145249456Y-104969179D01*
X145414639Y-104740247D01*
X145623020Y-104499241D01*
X145892511Y-104221467D01*
X145908167Y-104205917D01*
X146197397Y-103930938D01*
X146437309Y-103731316D01*
X146638568Y-103600406D01*
X146811840Y-103531562D01*
X146967791Y-103518141D01*
X147004932Y-103522603D01*
X147155583Y-103571742D01*
X147273225Y-103651662D01*
X147281900Y-103661483D01*
X147347826Y-103813590D01*
X147367272Y-104040409D01*
X147342145Y-104327313D01*
X147274353Y-104659675D01*
X147165802Y-105022869D01*
X147071430Y-105275653D01*
X146961663Y-105547706D01*
X147160534Y-105390197D01*
X147427941Y-105153303D01*
X147673698Y-104889013D01*
X147877295Y-104622073D01*
X148018224Y-104377224D01*
X148037413Y-104332257D01*
X148120072Y-104028110D01*
X148159330Y-103664517D01*
X148155509Y-103273747D01*
X148108932Y-102888064D01*
X148019920Y-102539734D01*
X148019496Y-102538506D01*
X147887176Y-102156212D01*
X148422445Y-101598706D01*
X149176862Y-100760658D01*
X149874187Y-99880372D01*
X150502090Y-98975014D01*
X151048241Y-98061746D01*
X151280146Y-97620804D01*
X151404435Y-97366266D01*
X151529433Y-97098390D01*
X151647302Y-96835354D01*
X151750202Y-96595335D01*
X151830295Y-96396511D01*
X151879741Y-96257060D01*
X151892000Y-96201972D01*
X151857990Y-96223467D01*
G36*
X140436600Y-106146600D02*
X140411200Y-106172000D01*
X140436600Y-106197400D01*
X140462000Y-106172000D01*
X140436600Y-106146600D01*
X140436600Y-106146600D01*
G37*
X140436600Y-106146600D02*
X140411200Y-106172000D01*
X140436600Y-106197400D01*
X140462000Y-106172000D01*
X140436600Y-106146600D01*
D11*
X163684733Y-111557667D02*
X163684733Y-111795762D01*
X163827590Y-111510048D02*
X163327590Y-111676715D01*
X163827590Y-111843381D01*
X163565686Y-112010048D02*
X163565686Y-112176714D01*
X163827590Y-112248143D02*
X163827590Y-112010048D01*
X163327590Y-112010048D01*
X163327590Y-112248143D01*
X163827590Y-112724333D02*
X163827590Y-112438619D01*
X163827590Y-112581476D02*
X163327590Y-112581476D01*
X163399019Y-112533857D01*
X163446638Y-112486238D01*
X163470448Y-112438619D01*
D13*
X108815143Y-115504934D02*
X108862762Y-115457315D01*
X108910381Y-115314458D01*
X108910381Y-115219220D01*
X108862762Y-115076362D01*
X108767524Y-114981124D01*
X108672286Y-114933505D01*
X108481810Y-114885886D01*
X108338952Y-114885886D01*
X108148476Y-114933505D01*
X108053238Y-114981124D01*
X107958000Y-115076362D01*
X107910381Y-115219220D01*
X107910381Y-115314458D01*
X107958000Y-115457315D01*
X108005619Y-115504934D01*
X108910381Y-116457315D02*
X108910381Y-115885886D01*
X108910381Y-116171600D02*
X107910381Y-116171600D01*
X108053238Y-116076362D01*
X108148476Y-115981124D01*
X108196095Y-115885886D01*
X107113343Y-115454134D02*
X107160962Y-115406515D01*
X107208581Y-115263658D01*
X107208581Y-115168420D01*
X107160962Y-115025562D01*
X107065724Y-114930324D01*
X106970486Y-114882705D01*
X106780010Y-114835086D01*
X106637152Y-114835086D01*
X106446676Y-114882705D01*
X106351438Y-114930324D01*
X106256200Y-115025562D01*
X106208581Y-115168420D01*
X106208581Y-115263658D01*
X106256200Y-115406515D01*
X106303819Y-115454134D01*
X106303819Y-115835086D02*
X106256200Y-115882705D01*
X106208581Y-115977943D01*
X106208581Y-116216039D01*
X106256200Y-116311277D01*
X106303819Y-116358896D01*
X106399057Y-116406515D01*
X106494295Y-116406515D01*
X106637152Y-116358896D01*
X107208581Y-115787467D01*
X107208581Y-116406515D01*
X137948943Y-88987334D02*
X137996562Y-88939715D01*
X138044181Y-88796858D01*
X138044181Y-88701620D01*
X137996562Y-88558762D01*
X137901324Y-88463524D01*
X137806086Y-88415905D01*
X137615610Y-88368286D01*
X137472752Y-88368286D01*
X137282276Y-88415905D01*
X137187038Y-88463524D01*
X137091800Y-88558762D01*
X137044181Y-88701620D01*
X137044181Y-88796858D01*
X137091800Y-88939715D01*
X137139419Y-88987334D01*
X137044181Y-89320667D02*
X137044181Y-89939715D01*
X137425133Y-89606381D01*
X137425133Y-89749239D01*
X137472752Y-89844477D01*
X137520371Y-89892096D01*
X137615610Y-89939715D01*
X137853705Y-89939715D01*
X137948943Y-89892096D01*
X137996562Y-89844477D01*
X138044181Y-89749239D01*
X138044181Y-89463524D01*
X137996562Y-89368286D01*
X137948943Y-89320667D01*
X105208343Y-112914134D02*
X105255962Y-112866515D01*
X105303581Y-112723658D01*
X105303581Y-112628420D01*
X105255962Y-112485562D01*
X105160724Y-112390324D01*
X105065486Y-112342705D01*
X104875010Y-112295086D01*
X104732152Y-112295086D01*
X104541676Y-112342705D01*
X104446438Y-112390324D01*
X104351200Y-112485562D01*
X104303581Y-112628420D01*
X104303581Y-112723658D01*
X104351200Y-112866515D01*
X104398819Y-112914134D01*
X104303581Y-113771277D02*
X104303581Y-113580800D01*
X104351200Y-113485562D01*
X104398819Y-113437943D01*
X104541676Y-113342705D01*
X104732152Y-113295086D01*
X105113105Y-113295086D01*
X105208343Y-113342705D01*
X105255962Y-113390324D01*
X105303581Y-113485562D01*
X105303581Y-113676039D01*
X105255962Y-113771277D01*
X105208343Y-113818896D01*
X105113105Y-113866515D01*
X104875010Y-113866515D01*
X104779771Y-113818896D01*
X104732152Y-113771277D01*
X104684533Y-113676039D01*
X104684533Y-113485562D01*
X104732152Y-113390324D01*
X104779771Y-113342705D01*
X104875010Y-113295086D01*
X166777943Y-103039943D02*
X166825562Y-102992324D01*
X166873181Y-102849467D01*
X166873181Y-102754229D01*
X166825562Y-102611371D01*
X166730324Y-102516133D01*
X166635086Y-102468514D01*
X166444610Y-102420895D01*
X166301752Y-102420895D01*
X166111276Y-102468514D01*
X166016038Y-102516133D01*
X165920800Y-102611371D01*
X165873181Y-102754229D01*
X165873181Y-102849467D01*
X165920800Y-102992324D01*
X165968419Y-103039943D01*
X166873181Y-103992324D02*
X166873181Y-103420895D01*
X166873181Y-103706609D02*
X165873181Y-103706609D01*
X166016038Y-103611371D01*
X166111276Y-103516133D01*
X166158895Y-103420895D01*
X166206514Y-104849467D02*
X166873181Y-104849467D01*
X165825562Y-104611371D02*
X166539848Y-104373276D01*
X166539848Y-104992324D01*
X162967943Y-107307143D02*
X163015562Y-107259524D01*
X163063181Y-107116667D01*
X163063181Y-107021429D01*
X163015562Y-106878571D01*
X162920324Y-106783333D01*
X162825086Y-106735714D01*
X162634610Y-106688095D01*
X162491752Y-106688095D01*
X162301276Y-106735714D01*
X162206038Y-106783333D01*
X162110800Y-106878571D01*
X162063181Y-107021429D01*
X162063181Y-107116667D01*
X162110800Y-107259524D01*
X162158419Y-107307143D01*
X162158419Y-107688095D02*
X162110800Y-107735714D01*
X162063181Y-107830952D01*
X162063181Y-108069048D01*
X162110800Y-108164286D01*
X162158419Y-108211905D01*
X162253657Y-108259524D01*
X162348895Y-108259524D01*
X162491752Y-108211905D01*
X163063181Y-107640476D01*
X163063181Y-108259524D01*
X162063181Y-109164286D02*
X162063181Y-108688095D01*
X162539371Y-108640476D01*
X162491752Y-108688095D01*
X162444133Y-108783333D01*
X162444133Y-109021429D01*
X162491752Y-109116667D01*
X162539371Y-109164286D01*
X162634610Y-109211905D01*
X162872705Y-109211905D01*
X162967943Y-109164286D01*
X163015562Y-109116667D01*
X163063181Y-109021429D01*
X163063181Y-108783333D01*
X163015562Y-108688095D01*
X162967943Y-108640476D01*
X178590343Y-90873343D02*
X178637962Y-90825724D01*
X178685581Y-90682867D01*
X178685581Y-90587629D01*
X178637962Y-90444771D01*
X178542724Y-90349533D01*
X178447486Y-90301914D01*
X178257010Y-90254295D01*
X178114152Y-90254295D01*
X177923676Y-90301914D01*
X177828438Y-90349533D01*
X177733200Y-90444771D01*
X177685581Y-90587629D01*
X177685581Y-90682867D01*
X177733200Y-90825724D01*
X177780819Y-90873343D01*
X177780819Y-91254295D02*
X177733200Y-91301914D01*
X177685581Y-91397152D01*
X177685581Y-91635248D01*
X177733200Y-91730486D01*
X177780819Y-91778105D01*
X177876057Y-91825724D01*
X177971295Y-91825724D01*
X178114152Y-91778105D01*
X178685581Y-91206676D01*
X178685581Y-91825724D01*
X177685581Y-92682867D02*
X177685581Y-92492390D01*
X177733200Y-92397152D01*
X177780819Y-92349533D01*
X177923676Y-92254295D01*
X178114152Y-92206676D01*
X178495105Y-92206676D01*
X178590343Y-92254295D01*
X178637962Y-92301914D01*
X178685581Y-92397152D01*
X178685581Y-92587629D01*
X178637962Y-92682867D01*
X178590343Y-92730486D01*
X178495105Y-92778105D01*
X178257010Y-92778105D01*
X178161771Y-92730486D01*
X178114152Y-92682867D01*
X178066533Y-92587629D01*
X178066533Y-92397152D01*
X178114152Y-92301914D01*
X178161771Y-92254295D01*
X178257010Y-92206676D01*
X151334743Y-109923343D02*
X151382362Y-109875724D01*
X151429981Y-109732867D01*
X151429981Y-109637629D01*
X151382362Y-109494771D01*
X151287124Y-109399533D01*
X151191886Y-109351914D01*
X151001410Y-109304295D01*
X150858552Y-109304295D01*
X150668076Y-109351914D01*
X150572838Y-109399533D01*
X150477600Y-109494771D01*
X150429981Y-109637629D01*
X150429981Y-109732867D01*
X150477600Y-109875724D01*
X150525219Y-109923343D01*
X150525219Y-110304295D02*
X150477600Y-110351914D01*
X150429981Y-110447152D01*
X150429981Y-110685248D01*
X150477600Y-110780486D01*
X150525219Y-110828105D01*
X150620457Y-110875724D01*
X150715695Y-110875724D01*
X150858552Y-110828105D01*
X151429981Y-110256676D01*
X151429981Y-110875724D01*
X150429981Y-111209057D02*
X150429981Y-111875724D01*
X151429981Y-111447152D01*
X185739705Y-95057581D02*
X185739705Y-95867105D01*
X185692086Y-95962343D01*
X185644467Y-96009962D01*
X185549229Y-96057581D01*
X185358752Y-96057581D01*
X185263514Y-96009962D01*
X185215895Y-95962343D01*
X185168276Y-95867105D01*
X185168276Y-95057581D01*
X184787324Y-95057581D02*
X184168276Y-95057581D01*
X184501610Y-95438533D01*
X184358752Y-95438533D01*
X184263514Y-95486152D01*
X184215895Y-95533771D01*
X184168276Y-95629010D01*
X184168276Y-95867105D01*
X184215895Y-95962343D01*
X184263514Y-96009962D01*
X184358752Y-96057581D01*
X184644467Y-96057581D01*
X184739705Y-96009962D01*
X184787324Y-95962343D01*
X138387057Y-87141581D02*
X138720391Y-86665390D01*
X138958486Y-87141581D02*
X138958486Y-86141581D01*
X138577533Y-86141581D01*
X138482295Y-86189200D01*
X138434676Y-86236819D01*
X138387057Y-86332057D01*
X138387057Y-86474914D01*
X138434676Y-86570152D01*
X138482295Y-86617771D01*
X138577533Y-86665390D01*
X138958486Y-86665390D01*
X138053724Y-86141581D02*
X137434676Y-86141581D01*
X137768010Y-86522533D01*
X137625152Y-86522533D01*
X137529914Y-86570152D01*
X137482295Y-86617771D01*
X137434676Y-86713010D01*
X137434676Y-86951105D01*
X137482295Y-87046343D01*
X137529914Y-87093962D01*
X137625152Y-87141581D01*
X137910867Y-87141581D01*
X138006105Y-87093962D01*
X138053724Y-87046343D01*
X136577533Y-86141581D02*
X136768010Y-86141581D01*
X136863248Y-86189200D01*
X136910867Y-86236819D01*
X137006105Y-86379676D01*
X137053724Y-86570152D01*
X137053724Y-86951105D01*
X137006105Y-87046343D01*
X136958486Y-87093962D01*
X136863248Y-87141581D01*
X136672771Y-87141581D01*
X136577533Y-87093962D01*
X136529914Y-87046343D01*
X136482295Y-86951105D01*
X136482295Y-86713010D01*
X136529914Y-86617771D01*
X136577533Y-86570152D01*
X136672771Y-86522533D01*
X136863248Y-86522533D01*
X136958486Y-86570152D01*
X137006105Y-86617771D01*
X137053724Y-86713010D01*
X164256981Y-86225143D02*
X163780790Y-85891809D01*
X164256981Y-85653714D02*
X163256981Y-85653714D01*
X163256981Y-86034667D01*
X163304600Y-86129905D01*
X163352219Y-86177524D01*
X163447457Y-86225143D01*
X163590314Y-86225143D01*
X163685552Y-86177524D01*
X163733171Y-86129905D01*
X163780790Y-86034667D01*
X163780790Y-85653714D01*
X163256981Y-86558476D02*
X163256981Y-87177524D01*
X163637933Y-86844190D01*
X163637933Y-86987048D01*
X163685552Y-87082286D01*
X163733171Y-87129905D01*
X163828410Y-87177524D01*
X164066505Y-87177524D01*
X164161743Y-87129905D01*
X164209362Y-87082286D01*
X164256981Y-86987048D01*
X164256981Y-86701333D01*
X164209362Y-86606095D01*
X164161743Y-86558476D01*
X163685552Y-87748952D02*
X163637933Y-87653714D01*
X163590314Y-87606095D01*
X163495076Y-87558476D01*
X163447457Y-87558476D01*
X163352219Y-87606095D01*
X163304600Y-87653714D01*
X163256981Y-87748952D01*
X163256981Y-87939429D01*
X163304600Y-88034667D01*
X163352219Y-88082286D01*
X163447457Y-88129905D01*
X163495076Y-88129905D01*
X163590314Y-88082286D01*
X163637933Y-88034667D01*
X163685552Y-87939429D01*
X163685552Y-87748952D01*
X163733171Y-87653714D01*
X163780790Y-87606095D01*
X163876029Y-87558476D01*
X164066505Y-87558476D01*
X164161743Y-87606095D01*
X164209362Y-87653714D01*
X164256981Y-87748952D01*
X164256981Y-87939429D01*
X164209362Y-88034667D01*
X164161743Y-88082286D01*
X164066505Y-88129905D01*
X163876029Y-88129905D01*
X163780790Y-88082286D01*
X163733171Y-88034667D01*
X163685552Y-87939429D01*
X166695381Y-86250543D02*
X166219190Y-85917209D01*
X166695381Y-85679114D02*
X165695381Y-85679114D01*
X165695381Y-86060067D01*
X165743000Y-86155305D01*
X165790619Y-86202924D01*
X165885857Y-86250543D01*
X166028714Y-86250543D01*
X166123952Y-86202924D01*
X166171571Y-86155305D01*
X166219190Y-86060067D01*
X166219190Y-85679114D01*
X165695381Y-86583876D02*
X165695381Y-87202924D01*
X166076333Y-86869590D01*
X166076333Y-87012448D01*
X166123952Y-87107686D01*
X166171571Y-87155305D01*
X166266810Y-87202924D01*
X166504905Y-87202924D01*
X166600143Y-87155305D01*
X166647762Y-87107686D01*
X166695381Y-87012448D01*
X166695381Y-86726733D01*
X166647762Y-86631495D01*
X166600143Y-86583876D01*
X166695381Y-87679114D02*
X166695381Y-87869590D01*
X166647762Y-87964829D01*
X166600143Y-88012448D01*
X166457286Y-88107686D01*
X166266810Y-88155305D01*
X165885857Y-88155305D01*
X165790619Y-88107686D01*
X165743000Y-88060067D01*
X165695381Y-87964829D01*
X165695381Y-87774352D01*
X165743000Y-87679114D01*
X165790619Y-87631495D01*
X165885857Y-87583876D01*
X166123952Y-87583876D01*
X166219190Y-87631495D01*
X166266810Y-87679114D01*
X166314429Y-87774352D01*
X166314429Y-87964829D01*
X166266810Y-88060067D01*
X166219190Y-88107686D01*
X166123952Y-88155305D01*
X169311581Y-86174343D02*
X168835390Y-85841009D01*
X169311581Y-85602914D02*
X168311581Y-85602914D01*
X168311581Y-85983867D01*
X168359200Y-86079105D01*
X168406819Y-86126724D01*
X168502057Y-86174343D01*
X168644914Y-86174343D01*
X168740152Y-86126724D01*
X168787771Y-86079105D01*
X168835390Y-85983867D01*
X168835390Y-85602914D01*
X168644914Y-87031486D02*
X169311581Y-87031486D01*
X168263962Y-86793390D02*
X168978248Y-86555295D01*
X168978248Y-87174343D01*
X168311581Y-87745771D02*
X168311581Y-87841010D01*
X168359200Y-87936248D01*
X168406819Y-87983867D01*
X168502057Y-88031486D01*
X168692533Y-88079105D01*
X168930629Y-88079105D01*
X169121105Y-88031486D01*
X169216343Y-87983867D01*
X169263962Y-87936248D01*
X169311581Y-87841010D01*
X169311581Y-87745771D01*
X169263962Y-87650533D01*
X169216343Y-87602914D01*
X169121105Y-87555295D01*
X168930629Y-87507676D01*
X168692533Y-87507676D01*
X168502057Y-87555295D01*
X168406819Y-87602914D01*
X168359200Y-87650533D01*
X168311581Y-87745771D01*
M02*
