G04 #@! TF.FileFunction,Legend,Top*
%FSLAX46Y46*%
G04 Gerber Fmt 4.6, Leading zero omitted, Abs format (unit mm)*
G04 Created by KiCad (PCBNEW 4.0.7) date 01/31/18 14:54:27*
%MOMM*%
%LPD*%
G01*
G04 APERTURE LIST*
%ADD10C,0.100000*%
%ADD11C,0.125000*%
%ADD12C,0.200000*%
%ADD13C,0.250000*%
%ADD14C,0.300000*%
%ADD15C,0.120000*%
%ADD16C,0.150000*%
G04 APERTURE END LIST*
D10*
D11*
X132892848Y-79685390D02*
X133178562Y-79685390D01*
X133035705Y-80185390D02*
X133035705Y-79685390D01*
X133297610Y-79685390D02*
X133630943Y-80185390D01*
X133630943Y-79685390D02*
X133297610Y-80185390D01*
X135806667Y-80159990D02*
X135640000Y-79921895D01*
X135520953Y-80159990D02*
X135520953Y-79659990D01*
X135711429Y-79659990D01*
X135759048Y-79683800D01*
X135782857Y-79707610D01*
X135806667Y-79755229D01*
X135806667Y-79826657D01*
X135782857Y-79874276D01*
X135759048Y-79898086D01*
X135711429Y-79921895D01*
X135520953Y-79921895D01*
X135973334Y-79659990D02*
X136306667Y-80159990D01*
X136306667Y-79659990D02*
X135973334Y-80159990D01*
X140627943Y-80185390D02*
X140627943Y-79685390D01*
X140913657Y-80185390D01*
X140913657Y-79685390D01*
X141437467Y-80137771D02*
X141413657Y-80161581D01*
X141342229Y-80185390D01*
X141294610Y-80185390D01*
X141223181Y-80161581D01*
X141175562Y-80113962D01*
X141151753Y-80066343D01*
X141127943Y-79971105D01*
X141127943Y-79899676D01*
X141151753Y-79804438D01*
X141175562Y-79756819D01*
X141223181Y-79709200D01*
X141294610Y-79685390D01*
X141342229Y-79685390D01*
X141413657Y-79709200D01*
X141437467Y-79733010D01*
X143179847Y-79734600D02*
X143132228Y-79710790D01*
X143060800Y-79710790D01*
X142989371Y-79734600D01*
X142941752Y-79782219D01*
X142917943Y-79829838D01*
X142894133Y-79925076D01*
X142894133Y-79996505D01*
X142917943Y-80091743D01*
X142941752Y-80139362D01*
X142989371Y-80186981D01*
X143060800Y-80210790D01*
X143108419Y-80210790D01*
X143179847Y-80186981D01*
X143203657Y-80163171D01*
X143203657Y-79996505D01*
X143108419Y-79996505D01*
X143417943Y-80210790D02*
X143417943Y-79710790D01*
X143703657Y-80210790D01*
X143703657Y-79710790D01*
X143941753Y-80210790D02*
X143941753Y-79710790D01*
X144060800Y-79710790D01*
X144132229Y-79734600D01*
X144179848Y-79782219D01*
X144203657Y-79829838D01*
X144227467Y-79925076D01*
X144227467Y-79996505D01*
X144203657Y-80091743D01*
X144179848Y-80139362D01*
X144132229Y-80186981D01*
X144060800Y-80210790D01*
X143941753Y-80210790D01*
X138360163Y-79659990D02*
X138122068Y-79659990D01*
X138098258Y-79898086D01*
X138122068Y-79874276D01*
X138169687Y-79850467D01*
X138288734Y-79850467D01*
X138336353Y-79874276D01*
X138360163Y-79898086D01*
X138383972Y-79945705D01*
X138383972Y-80064752D01*
X138360163Y-80112371D01*
X138336353Y-80136181D01*
X138288734Y-80159990D01*
X138169687Y-80159990D01*
X138122068Y-80136181D01*
X138098258Y-80112371D01*
X138526829Y-79659990D02*
X138693496Y-80159990D01*
X138860162Y-79659990D01*
X130187772Y-80185390D02*
X130187772Y-79685390D01*
X130306819Y-79685390D01*
X130378248Y-79709200D01*
X130425867Y-79756819D01*
X130449676Y-79804438D01*
X130473486Y-79899676D01*
X130473486Y-79971105D01*
X130449676Y-80066343D01*
X130425867Y-80113962D01*
X130378248Y-80161581D01*
X130306819Y-80185390D01*
X130187772Y-80185390D01*
X130616343Y-79685390D02*
X130902057Y-79685390D01*
X130759200Y-80185390D02*
X130759200Y-79685390D01*
X131354438Y-80185390D02*
X131187771Y-79947295D01*
X131068724Y-80185390D02*
X131068724Y-79685390D01*
X131259200Y-79685390D01*
X131306819Y-79709200D01*
X131330628Y-79733010D01*
X131354438Y-79780629D01*
X131354438Y-79852057D01*
X131330628Y-79899676D01*
X131306819Y-79923486D01*
X131259200Y-79947295D01*
X131068724Y-79947295D01*
D12*
X108915200Y-117322600D02*
X108966000Y-117322600D01*
X108915200Y-117881400D02*
X108915200Y-117322600D01*
X108915200Y-111226600D02*
X108915200Y-111734600D01*
X108915200Y-111252000D02*
X109143800Y-111252000D01*
X108915200Y-114223800D02*
X109093000Y-114223800D01*
X108915200Y-113715800D02*
X108915200Y-114223800D01*
X108915200Y-114884200D02*
X109118400Y-114884200D01*
X108915200Y-115366800D02*
X108915200Y-114884200D01*
X108915200Y-117881400D02*
X109118400Y-117881400D01*
D11*
X108590590Y-116376437D02*
X108590590Y-116614532D01*
X108828686Y-116638342D01*
X108804876Y-116614532D01*
X108781067Y-116566913D01*
X108781067Y-116447866D01*
X108804876Y-116400247D01*
X108828686Y-116376437D01*
X108876305Y-116352628D01*
X108995352Y-116352628D01*
X109042971Y-116376437D01*
X109066781Y-116400247D01*
X109090590Y-116447866D01*
X109090590Y-116566913D01*
X109066781Y-116614532D01*
X109042971Y-116638342D01*
X108590590Y-116209771D02*
X109090590Y-116043104D01*
X108590590Y-115876438D01*
X108615990Y-113171219D02*
X109115990Y-113004552D01*
X108615990Y-112837886D01*
X109115990Y-112671219D02*
X108615990Y-112671219D01*
X109115990Y-112433124D02*
X108615990Y-112433124D01*
X109115990Y-112147410D01*
X108615990Y-112147410D01*
X109648762Y-119195681D02*
X109720191Y-119219490D01*
X109839238Y-119219490D01*
X109886857Y-119195681D01*
X109910667Y-119171871D01*
X109934476Y-119124252D01*
X109934476Y-119076633D01*
X109910667Y-119029014D01*
X109886857Y-119005205D01*
X109839238Y-118981395D01*
X109744000Y-118957586D01*
X109696381Y-118933776D01*
X109672572Y-118909967D01*
X109648762Y-118862348D01*
X109648762Y-118814729D01*
X109672572Y-118767110D01*
X109696381Y-118743300D01*
X109744000Y-118719490D01*
X109863048Y-118719490D01*
X109934476Y-118743300D01*
X110148762Y-118957586D02*
X110315428Y-118957586D01*
X110386857Y-119219490D02*
X110148762Y-119219490D01*
X110148762Y-118719490D01*
X110386857Y-118719490D01*
X110886857Y-119219490D02*
X110720190Y-118981395D01*
X110601143Y-119219490D02*
X110601143Y-118719490D01*
X110791619Y-118719490D01*
X110839238Y-118743300D01*
X110863047Y-118767110D01*
X110886857Y-118814729D01*
X110886857Y-118886157D01*
X110863047Y-118933776D01*
X110839238Y-118957586D01*
X110791619Y-118981395D01*
X110601143Y-118981395D01*
X111029714Y-118719490D02*
X111196381Y-119219490D01*
X111363047Y-118719490D01*
X111624952Y-118719490D02*
X111720190Y-118719490D01*
X111767809Y-118743300D01*
X111815428Y-118790919D01*
X111839237Y-118886157D01*
X111839237Y-119052824D01*
X111815428Y-119148062D01*
X111767809Y-119195681D01*
X111720190Y-119219490D01*
X111624952Y-119219490D01*
X111577333Y-119195681D01*
X111529714Y-119148062D01*
X111505904Y-119052824D01*
X111505904Y-118886157D01*
X111529714Y-118790919D01*
X111577333Y-118743300D01*
X111624952Y-118719490D01*
X110077334Y-120094490D02*
X110077334Y-119594490D01*
X110267810Y-119594490D01*
X110315429Y-119618300D01*
X110339238Y-119642110D01*
X110363048Y-119689729D01*
X110363048Y-119761157D01*
X110339238Y-119808776D01*
X110315429Y-119832586D01*
X110267810Y-119856395D01*
X110077334Y-119856395D01*
X110529715Y-119594490D02*
X110648762Y-120094490D01*
X110744000Y-119737348D01*
X110839238Y-120094490D01*
X110958286Y-119594490D01*
X111434477Y-120094490D02*
X111267810Y-119856395D01*
X111148763Y-120094490D02*
X111148763Y-119594490D01*
X111339239Y-119594490D01*
X111386858Y-119618300D01*
X111410667Y-119642110D01*
X111434477Y-119689729D01*
X111434477Y-119761157D01*
X111410667Y-119808776D01*
X111386858Y-119832586D01*
X111339239Y-119856395D01*
X111148763Y-119856395D01*
D13*
X89446267Y-103550981D02*
X89446267Y-102550981D01*
X89827220Y-102550981D01*
X89922458Y-102598600D01*
X89970077Y-102646219D01*
X90017696Y-102741457D01*
X90017696Y-102884314D01*
X89970077Y-102979552D01*
X89922458Y-103027171D01*
X89827220Y-103074790D01*
X89446267Y-103074790D01*
X90351029Y-102550981D02*
X90589124Y-103550981D01*
X90779601Y-102836695D01*
X90970077Y-103550981D01*
X91208172Y-102550981D01*
X92160553Y-103550981D02*
X91827219Y-103074790D01*
X91589124Y-103550981D02*
X91589124Y-102550981D01*
X91970077Y-102550981D01*
X92065315Y-102598600D01*
X92112934Y-102646219D01*
X92160553Y-102741457D01*
X92160553Y-102884314D01*
X92112934Y-102979552D01*
X92065315Y-103027171D01*
X91970077Y-103074790D01*
X91589124Y-103074790D01*
X117438610Y-93162381D02*
X117438610Y-92162381D01*
X117867181Y-93114762D02*
X118010038Y-93162381D01*
X118248134Y-93162381D01*
X118343372Y-93114762D01*
X118390991Y-93067143D01*
X118438610Y-92971905D01*
X118438610Y-92876667D01*
X118390991Y-92781429D01*
X118343372Y-92733810D01*
X118248134Y-92686190D01*
X118057657Y-92638571D01*
X117962419Y-92590952D01*
X117914800Y-92543333D01*
X117867181Y-92448095D01*
X117867181Y-92352857D01*
X117914800Y-92257619D01*
X117962419Y-92210000D01*
X118057657Y-92162381D01*
X118295753Y-92162381D01*
X118438610Y-92210000D01*
X118867181Y-93162381D02*
X118867181Y-92162381D01*
X119248134Y-92162381D01*
X119343372Y-92210000D01*
X119390991Y-92257619D01*
X119438610Y-92352857D01*
X119438610Y-92495714D01*
X119390991Y-92590952D01*
X119343372Y-92638571D01*
X119248134Y-92686190D01*
X118867181Y-92686190D01*
D11*
X115366847Y-77169200D02*
X115319228Y-77145390D01*
X115247800Y-77145390D01*
X115176371Y-77169200D01*
X115128752Y-77216819D01*
X115104943Y-77264438D01*
X115081133Y-77359676D01*
X115081133Y-77431105D01*
X115104943Y-77526343D01*
X115128752Y-77573962D01*
X115176371Y-77621581D01*
X115247800Y-77645390D01*
X115295419Y-77645390D01*
X115366847Y-77621581D01*
X115390657Y-77597771D01*
X115390657Y-77431105D01*
X115295419Y-77431105D01*
X115604943Y-77645390D02*
X115604943Y-77145390D01*
X115890657Y-77645390D01*
X115890657Y-77145390D01*
X116128753Y-77645390D02*
X116128753Y-77145390D01*
X116247800Y-77145390D01*
X116319229Y-77169200D01*
X116366848Y-77216819D01*
X116390657Y-77264438D01*
X116414467Y-77359676D01*
X116414467Y-77431105D01*
X116390657Y-77526343D01*
X116366848Y-77573962D01*
X116319229Y-77621581D01*
X116247800Y-77645390D01*
X116128753Y-77645390D01*
X120423086Y-77670790D02*
X120423086Y-77170790D01*
X120589752Y-77527933D01*
X120756419Y-77170790D01*
X120756419Y-77670790D01*
X120994515Y-77670790D02*
X120994515Y-77170790D01*
X121208800Y-77646981D02*
X121280229Y-77670790D01*
X121399276Y-77670790D01*
X121446895Y-77646981D01*
X121470705Y-77623171D01*
X121494514Y-77575552D01*
X121494514Y-77527933D01*
X121470705Y-77480314D01*
X121446895Y-77456505D01*
X121399276Y-77432695D01*
X121304038Y-77408886D01*
X121256419Y-77385076D01*
X121232610Y-77361267D01*
X121208800Y-77313648D01*
X121208800Y-77266029D01*
X121232610Y-77218410D01*
X121256419Y-77194600D01*
X121304038Y-77170790D01*
X121423086Y-77170790D01*
X121494514Y-77194600D01*
X121804038Y-77170790D02*
X121899276Y-77170790D01*
X121946895Y-77194600D01*
X121994514Y-77242219D01*
X122018323Y-77337457D01*
X122018323Y-77504124D01*
X121994514Y-77599362D01*
X121946895Y-77646981D01*
X121899276Y-77670790D01*
X121804038Y-77670790D01*
X121756419Y-77646981D01*
X121708800Y-77599362D01*
X121684990Y-77504124D01*
X121684990Y-77337457D01*
X121708800Y-77242219D01*
X121756419Y-77194600D01*
X121804038Y-77170790D01*
X115500163Y-91064590D02*
X115262068Y-91064590D01*
X115238258Y-91302686D01*
X115262068Y-91278876D01*
X115309687Y-91255067D01*
X115428734Y-91255067D01*
X115476353Y-91278876D01*
X115500163Y-91302686D01*
X115523972Y-91350305D01*
X115523972Y-91469352D01*
X115500163Y-91516971D01*
X115476353Y-91540781D01*
X115428734Y-91564590D01*
X115309687Y-91564590D01*
X115262068Y-91540781D01*
X115238258Y-91516971D01*
X115666829Y-91064590D02*
X115833496Y-91564590D01*
X116000162Y-91064590D01*
X120524686Y-91539190D02*
X120524686Y-91039190D01*
X120691352Y-91396333D01*
X120858019Y-91039190D01*
X120858019Y-91539190D01*
X121191353Y-91039190D02*
X121286591Y-91039190D01*
X121334210Y-91063000D01*
X121381829Y-91110619D01*
X121405638Y-91205857D01*
X121405638Y-91372524D01*
X121381829Y-91467762D01*
X121334210Y-91515381D01*
X121286591Y-91539190D01*
X121191353Y-91539190D01*
X121143734Y-91515381D01*
X121096115Y-91467762D01*
X121072305Y-91372524D01*
X121072305Y-91205857D01*
X121096115Y-91110619D01*
X121143734Y-91063000D01*
X121191353Y-91039190D01*
X121596115Y-91515381D02*
X121667544Y-91539190D01*
X121786591Y-91539190D01*
X121834210Y-91515381D01*
X121858020Y-91491571D01*
X121881829Y-91443952D01*
X121881829Y-91396333D01*
X121858020Y-91348714D01*
X121834210Y-91324905D01*
X121786591Y-91301095D01*
X121691353Y-91277286D01*
X121643734Y-91253476D01*
X121619925Y-91229667D01*
X121596115Y-91182048D01*
X121596115Y-91134429D01*
X121619925Y-91086810D01*
X121643734Y-91063000D01*
X121691353Y-91039190D01*
X121810401Y-91039190D01*
X121881829Y-91063000D01*
X122096115Y-91539190D02*
X122096115Y-91039190D01*
D14*
X150260857Y-113091543D02*
X150332286Y-113162972D01*
X150403714Y-113305829D01*
X150260857Y-113591543D01*
X150332286Y-113734400D01*
X150403714Y-113805829D01*
X150260857Y-115520115D02*
X150260857Y-116662972D01*
X149689429Y-116091543D02*
X150832286Y-116091543D01*
X150260857Y-118520115D02*
X150260857Y-119662972D01*
D13*
X165577924Y-84024743D02*
X165530305Y-84072362D01*
X165387448Y-84119981D01*
X165292210Y-84119981D01*
X165149352Y-84072362D01*
X165054114Y-83977124D01*
X165006495Y-83881886D01*
X164958876Y-83691410D01*
X164958876Y-83548552D01*
X165006495Y-83358076D01*
X165054114Y-83262838D01*
X165149352Y-83167600D01*
X165292210Y-83119981D01*
X165387448Y-83119981D01*
X165530305Y-83167600D01*
X165577924Y-83215219D01*
X165958876Y-83834267D02*
X166435067Y-83834267D01*
X165863638Y-84119981D02*
X166196971Y-83119981D01*
X166530305Y-84119981D01*
X166863638Y-84119981D02*
X166863638Y-83119981D01*
X167196972Y-83834267D01*
X167530305Y-83119981D01*
X167530305Y-84119981D01*
X148215885Y-83094581D02*
X148787314Y-83094581D01*
X148501599Y-84094581D02*
X148501599Y-83094581D01*
X149120647Y-83570771D02*
X149453981Y-83570771D01*
X149596838Y-84094581D02*
X149120647Y-84094581D01*
X149120647Y-83094581D01*
X149596838Y-83094581D01*
X149977790Y-84046962D02*
X150120647Y-84094581D01*
X150358743Y-84094581D01*
X150453981Y-84046962D01*
X150501600Y-83999343D01*
X150549219Y-83904105D01*
X150549219Y-83808867D01*
X150501600Y-83713629D01*
X150453981Y-83666010D01*
X150358743Y-83618390D01*
X150168266Y-83570771D01*
X150073028Y-83523152D01*
X150025409Y-83475533D01*
X149977790Y-83380295D01*
X149977790Y-83285057D01*
X150025409Y-83189819D01*
X150073028Y-83142200D01*
X150168266Y-83094581D01*
X150406362Y-83094581D01*
X150549219Y-83142200D01*
X150834933Y-83094581D02*
X151406362Y-83094581D01*
X151120647Y-84094581D02*
X151120647Y-83094581D01*
X151501600Y-84189819D02*
X152263505Y-84189819D01*
X152453981Y-84046962D02*
X152596838Y-84094581D01*
X152834934Y-84094581D01*
X152930172Y-84046962D01*
X152977791Y-83999343D01*
X153025410Y-83904105D01*
X153025410Y-83808867D01*
X152977791Y-83713629D01*
X152930172Y-83666010D01*
X152834934Y-83618390D01*
X152644457Y-83570771D01*
X152549219Y-83523152D01*
X152501600Y-83475533D01*
X152453981Y-83380295D01*
X152453981Y-83285057D01*
X152501600Y-83189819D01*
X152549219Y-83142200D01*
X152644457Y-83094581D01*
X152882553Y-83094581D01*
X153025410Y-83142200D01*
X153311124Y-83094581D02*
X153882553Y-83094581D01*
X153596838Y-84094581D02*
X153596838Y-83094581D01*
X154168267Y-83808867D02*
X154644458Y-83808867D01*
X154073029Y-84094581D02*
X154406362Y-83094581D01*
X154739696Y-84094581D01*
X155073029Y-84094581D02*
X155073029Y-83094581D01*
X155644458Y-84094581D01*
X155644458Y-83094581D01*
X156120648Y-84094581D02*
X156120648Y-83094581D01*
X156358743Y-83094581D01*
X156501601Y-83142200D01*
X156596839Y-83237438D01*
X156644458Y-83332676D01*
X156692077Y-83523152D01*
X156692077Y-83666010D01*
X156644458Y-83856486D01*
X156596839Y-83951724D01*
X156501601Y-84046962D01*
X156358743Y-84094581D01*
X156120648Y-84094581D01*
X106548610Y-77319143D02*
X106500991Y-77366762D01*
X106358134Y-77414381D01*
X106262896Y-77414381D01*
X106120038Y-77366762D01*
X106024800Y-77271524D01*
X105977181Y-77176286D01*
X105929562Y-76985810D01*
X105929562Y-76842952D01*
X105977181Y-76652476D01*
X106024800Y-76557238D01*
X106120038Y-76462000D01*
X106262896Y-76414381D01*
X106358134Y-76414381D01*
X106500991Y-76462000D01*
X106548610Y-76509619D01*
X106977181Y-77414381D02*
X106977181Y-76414381D01*
X106977181Y-76890571D02*
X107548610Y-76890571D01*
X107548610Y-77414381D02*
X107548610Y-76414381D01*
X107977181Y-77128667D02*
X108453372Y-77128667D01*
X107881943Y-77414381D02*
X108215276Y-76414381D01*
X108548610Y-77414381D01*
X109453372Y-77414381D02*
X109120038Y-76938190D01*
X108881943Y-77414381D02*
X108881943Y-76414381D01*
X109262896Y-76414381D01*
X109358134Y-76462000D01*
X109405753Y-76509619D01*
X109453372Y-76604857D01*
X109453372Y-76747714D01*
X109405753Y-76842952D01*
X109358134Y-76890571D01*
X109262896Y-76938190D01*
X108881943Y-76938190D01*
X110405753Y-76462000D02*
X110310515Y-76414381D01*
X110167658Y-76414381D01*
X110024800Y-76462000D01*
X109929562Y-76557238D01*
X109881943Y-76652476D01*
X109834324Y-76842952D01*
X109834324Y-76985810D01*
X109881943Y-77176286D01*
X109929562Y-77271524D01*
X110024800Y-77366762D01*
X110167658Y-77414381D01*
X110262896Y-77414381D01*
X110405753Y-77366762D01*
X110453372Y-77319143D01*
X110453372Y-76985810D01*
X110262896Y-76985810D01*
X110881943Y-76890571D02*
X111215277Y-76890571D01*
X111358134Y-77414381D02*
X110881943Y-77414381D01*
X110881943Y-76414381D01*
X111358134Y-76414381D01*
X111548610Y-77509619D02*
X112310515Y-77509619D01*
X112881944Y-76890571D02*
X113024801Y-76938190D01*
X113072420Y-76985810D01*
X113120039Y-77081048D01*
X113120039Y-77223905D01*
X113072420Y-77319143D01*
X113024801Y-77366762D01*
X112929563Y-77414381D01*
X112548610Y-77414381D01*
X112548610Y-76414381D01*
X112881944Y-76414381D01*
X112977182Y-76462000D01*
X113024801Y-76509619D01*
X113072420Y-76604857D01*
X113072420Y-76700095D01*
X113024801Y-76795333D01*
X112977182Y-76842952D01*
X112881944Y-76890571D01*
X112548610Y-76890571D01*
X84145810Y-77293743D02*
X84098191Y-77341362D01*
X83955334Y-77388981D01*
X83860096Y-77388981D01*
X83717238Y-77341362D01*
X83622000Y-77246124D01*
X83574381Y-77150886D01*
X83526762Y-76960410D01*
X83526762Y-76817552D01*
X83574381Y-76627076D01*
X83622000Y-76531838D01*
X83717238Y-76436600D01*
X83860096Y-76388981D01*
X83955334Y-76388981D01*
X84098191Y-76436600D01*
X84145810Y-76484219D01*
X84574381Y-77388981D02*
X84574381Y-76388981D01*
X84574381Y-76865171D02*
X85145810Y-76865171D01*
X85145810Y-77388981D02*
X85145810Y-76388981D01*
X85574381Y-77103267D02*
X86050572Y-77103267D01*
X85479143Y-77388981D02*
X85812476Y-76388981D01*
X86145810Y-77388981D01*
X87050572Y-77388981D02*
X86717238Y-76912790D01*
X86479143Y-77388981D02*
X86479143Y-76388981D01*
X86860096Y-76388981D01*
X86955334Y-76436600D01*
X87002953Y-76484219D01*
X87050572Y-76579457D01*
X87050572Y-76722314D01*
X87002953Y-76817552D01*
X86955334Y-76865171D01*
X86860096Y-76912790D01*
X86479143Y-76912790D01*
X88002953Y-76436600D02*
X87907715Y-76388981D01*
X87764858Y-76388981D01*
X87622000Y-76436600D01*
X87526762Y-76531838D01*
X87479143Y-76627076D01*
X87431524Y-76817552D01*
X87431524Y-76960410D01*
X87479143Y-77150886D01*
X87526762Y-77246124D01*
X87622000Y-77341362D01*
X87764858Y-77388981D01*
X87860096Y-77388981D01*
X88002953Y-77341362D01*
X88050572Y-77293743D01*
X88050572Y-76960410D01*
X87860096Y-76960410D01*
X88479143Y-76865171D02*
X88812477Y-76865171D01*
X88955334Y-77388981D02*
X88479143Y-77388981D01*
X88479143Y-76388981D01*
X88955334Y-76388981D01*
X89145810Y-77484219D02*
X89907715Y-77484219D01*
X90717239Y-77293743D02*
X90669620Y-77341362D01*
X90526763Y-77388981D01*
X90431525Y-77388981D01*
X90288667Y-77341362D01*
X90193429Y-77246124D01*
X90145810Y-77150886D01*
X90098191Y-76960410D01*
X90098191Y-76817552D01*
X90145810Y-76627076D01*
X90193429Y-76531838D01*
X90288667Y-76436600D01*
X90431525Y-76388981D01*
X90526763Y-76388981D01*
X90669620Y-76436600D01*
X90717239Y-76484219D01*
X95444038Y-77319143D02*
X95396419Y-77366762D01*
X95253562Y-77414381D01*
X95158324Y-77414381D01*
X95015466Y-77366762D01*
X94920228Y-77271524D01*
X94872609Y-77176286D01*
X94824990Y-76985810D01*
X94824990Y-76842952D01*
X94872609Y-76652476D01*
X94920228Y-76557238D01*
X95015466Y-76462000D01*
X95158324Y-76414381D01*
X95253562Y-76414381D01*
X95396419Y-76462000D01*
X95444038Y-76509619D01*
X95872609Y-77414381D02*
X95872609Y-76414381D01*
X95872609Y-76890571D02*
X96444038Y-76890571D01*
X96444038Y-77414381D02*
X96444038Y-76414381D01*
X96872609Y-77128667D02*
X97348800Y-77128667D01*
X96777371Y-77414381D02*
X97110704Y-76414381D01*
X97444038Y-77414381D01*
X98348800Y-77414381D02*
X98015466Y-76938190D01*
X97777371Y-77414381D02*
X97777371Y-76414381D01*
X98158324Y-76414381D01*
X98253562Y-76462000D01*
X98301181Y-76509619D01*
X98348800Y-76604857D01*
X98348800Y-76747714D01*
X98301181Y-76842952D01*
X98253562Y-76890571D01*
X98158324Y-76938190D01*
X97777371Y-76938190D01*
X99301181Y-76462000D02*
X99205943Y-76414381D01*
X99063086Y-76414381D01*
X98920228Y-76462000D01*
X98824990Y-76557238D01*
X98777371Y-76652476D01*
X98729752Y-76842952D01*
X98729752Y-76985810D01*
X98777371Y-77176286D01*
X98824990Y-77271524D01*
X98920228Y-77366762D01*
X99063086Y-77414381D01*
X99158324Y-77414381D01*
X99301181Y-77366762D01*
X99348800Y-77319143D01*
X99348800Y-76985810D01*
X99158324Y-76985810D01*
X99777371Y-76890571D02*
X100110705Y-76890571D01*
X100253562Y-77414381D02*
X99777371Y-77414381D01*
X99777371Y-76414381D01*
X100253562Y-76414381D01*
X100444038Y-77509619D02*
X101205943Y-77509619D01*
X101396419Y-77128667D02*
X101872610Y-77128667D01*
X101301181Y-77414381D02*
X101634514Y-76414381D01*
X101967848Y-77414381D01*
D11*
X87787990Y-112821789D02*
X88287990Y-112655122D01*
X87787990Y-112488456D01*
X88287990Y-112321789D02*
X87787990Y-112321789D01*
X88287990Y-112083694D02*
X87787990Y-112083694D01*
X88287990Y-111797980D01*
X87787990Y-111797980D01*
X87787990Y-110964647D02*
X87787990Y-111059885D01*
X87811800Y-111107504D01*
X87835610Y-111131313D01*
X87907038Y-111178932D01*
X88002276Y-111202742D01*
X88192752Y-111202742D01*
X88240371Y-111178932D01*
X88264181Y-111155123D01*
X88287990Y-111107504D01*
X88287990Y-111012266D01*
X88264181Y-110964647D01*
X88240371Y-110940837D01*
X88192752Y-110917028D01*
X88073705Y-110917028D01*
X88026086Y-110940837D01*
X88002276Y-110964647D01*
X87978467Y-111012266D01*
X87978467Y-111107504D01*
X88002276Y-111155123D01*
X88026086Y-111178932D01*
X88073705Y-111202742D01*
X88097514Y-110702742D02*
X88097514Y-110321790D01*
X88287990Y-109821790D02*
X88287990Y-110107504D01*
X88287990Y-109964647D02*
X87787990Y-109964647D01*
X87859419Y-110012266D01*
X87907038Y-110059885D01*
X87930848Y-110107504D01*
X87787990Y-109369409D02*
X87787990Y-109607504D01*
X88026086Y-109631314D01*
X88002276Y-109607504D01*
X87978467Y-109559885D01*
X87978467Y-109440838D01*
X88002276Y-109393219D01*
X88026086Y-109369409D01*
X88073705Y-109345600D01*
X88192752Y-109345600D01*
X88240371Y-109369409D01*
X88264181Y-109393219D01*
X88287990Y-109440838D01*
X88287990Y-109559885D01*
X88264181Y-109607504D01*
X88240371Y-109631314D01*
X87787990Y-109202743D02*
X88287990Y-109036076D01*
X87787990Y-108869410D01*
D15*
X173771400Y-82764800D02*
X173771400Y-76814800D01*
X173771400Y-76814800D02*
X158671400Y-76814800D01*
X158671400Y-76814800D02*
X158671400Y-82764800D01*
X158671400Y-82764800D02*
X173771400Y-82764800D01*
X170471400Y-82764800D02*
X170471400Y-82014800D01*
X170471400Y-82014800D02*
X161971400Y-82014800D01*
X161971400Y-82014800D02*
X161971400Y-82764800D01*
X161971400Y-82764800D02*
X170471400Y-82764800D01*
X173771400Y-82764800D02*
X173771400Y-82014800D01*
X173771400Y-82014800D02*
X171971400Y-82014800D01*
X171971400Y-82014800D02*
X171971400Y-82764800D01*
X171971400Y-82764800D02*
X173771400Y-82764800D01*
X160471400Y-82764800D02*
X160471400Y-82014800D01*
X160471400Y-82014800D02*
X158671400Y-82014800D01*
X158671400Y-82014800D02*
X158671400Y-82764800D01*
X158671400Y-82764800D02*
X160471400Y-82764800D01*
X173771400Y-80514800D02*
X173021400Y-80514800D01*
X173021400Y-80514800D02*
X173021400Y-77564800D01*
X173021400Y-77564800D02*
X166221400Y-77564800D01*
X158671400Y-80514800D02*
X159421400Y-80514800D01*
X159421400Y-80514800D02*
X159421400Y-77564800D01*
X159421400Y-77564800D02*
X166221400Y-77564800D01*
X171571400Y-83064800D02*
X174071400Y-83064800D01*
X174071400Y-83064800D02*
X174071400Y-80564800D01*
X183595615Y-117725160D02*
G75*
G02X182681000Y-117341000I-124615J984160D01*
G01*
X172766385Y-117725160D02*
G75*
G03X173681000Y-117341000I124615J984160D01*
G01*
X182671661Y-117329671D02*
G75*
G03X173681000Y-117341000I-4490661J-3711329D01*
G01*
X184931000Y-116191000D02*
G75*
G02X183481000Y-117741000I-1500000J-50000D01*
G01*
X171431000Y-116191000D02*
G75*
G03X172881000Y-117741000I1500000J-50000D01*
G01*
X184931000Y-114141000D02*
X184931000Y-116241000D01*
X171431000Y-114141000D02*
X171431000Y-116241000D01*
X171431000Y-110141000D02*
X171431000Y-108691000D01*
X171431000Y-108691000D02*
X174031000Y-106091000D01*
X174031000Y-106091000D02*
X174031000Y-105291000D01*
X174031000Y-105291000D02*
X182331000Y-105291000D01*
X182331000Y-105291000D02*
X182331000Y-106091000D01*
X182331000Y-106091000D02*
X184931000Y-108691000D01*
X184931000Y-108691000D02*
X184931000Y-110141000D01*
X120134800Y-109890400D02*
X132734800Y-109890400D01*
X132734800Y-109890400D02*
X132734800Y-104790400D01*
X132734800Y-104790400D02*
X120134800Y-104790400D01*
X154080200Y-120866200D02*
X153580200Y-120966200D01*
X155380200Y-120566200D02*
X154080200Y-120866200D01*
X156880200Y-120366200D02*
X155380200Y-120566200D01*
X158180200Y-120266200D02*
X156880200Y-120366200D01*
X159980200Y-120266200D02*
X158180200Y-120266200D01*
X161280200Y-120366200D02*
X159980200Y-120266200D01*
X162080200Y-120466200D02*
X161280200Y-120366200D01*
X163780200Y-120766200D02*
X162080200Y-120466200D01*
X164580200Y-120966200D02*
X163780200Y-120766200D01*
X164080200Y-121566200D02*
X154080200Y-121566200D01*
X153580200Y-121066200D02*
G75*
G03X154080200Y-121566200I500000J0D01*
G01*
X164580200Y-120066200D02*
X164580200Y-121066200D01*
X153580200Y-120066200D02*
X153580200Y-121066200D01*
X165990200Y-120066200D02*
X152170200Y-120066200D01*
X152170200Y-106146200D02*
X165990200Y-106146200D01*
X152170200Y-108846200D02*
X152170200Y-106146200D01*
X164080200Y-121566200D02*
G75*
G03X164580200Y-121066200I0J500000D01*
G01*
X152170200Y-120066200D02*
X152170200Y-119666200D01*
X152170200Y-117146200D02*
X152170200Y-111366200D01*
X165990200Y-108846200D02*
X165990200Y-106146200D01*
X165990200Y-117146200D02*
X165990200Y-111366200D01*
X165990200Y-120066200D02*
X165990200Y-119666200D01*
D16*
X154686000Y-94716600D02*
X154686000Y-102336600D01*
X158242000Y-102336600D02*
X158242000Y-94716600D01*
X154686000Y-94716600D02*
X158242000Y-94716600D01*
X158242000Y-102336600D02*
X154686000Y-102336600D01*
X158093210Y-101828600D02*
G75*
G03X158093210Y-101828600I-359210J0D01*
G01*
X155829000Y-102336600D02*
X155829000Y-101574600D01*
X155829000Y-101574600D02*
X157099000Y-101574600D01*
X157099000Y-101574600D02*
X157099000Y-102336600D01*
X131864600Y-88837000D02*
X131864600Y-89562000D01*
X146214600Y-88837000D02*
X146214600Y-89637000D01*
X146214600Y-103187000D02*
X146214600Y-102387000D01*
X131864600Y-103187000D02*
X131864600Y-102387000D01*
X131864600Y-88837000D02*
X132664600Y-88837000D01*
X131864600Y-103187000D02*
X132664600Y-103187000D01*
X146214600Y-103187000D02*
X145414600Y-103187000D01*
X146214600Y-88837000D02*
X145414600Y-88837000D01*
X131864600Y-89562000D02*
X130589600Y-89562000D01*
D15*
X158455200Y-82764800D02*
X158455200Y-76814800D01*
X158455200Y-76814800D02*
X145855200Y-76814800D01*
X145855200Y-76814800D02*
X145855200Y-82764800D01*
X145855200Y-82764800D02*
X158455200Y-82764800D01*
X155155200Y-82764800D02*
X155155200Y-82014800D01*
X155155200Y-82014800D02*
X149155200Y-82014800D01*
X149155200Y-82014800D02*
X149155200Y-82764800D01*
X149155200Y-82764800D02*
X155155200Y-82764800D01*
X158455200Y-82764800D02*
X158455200Y-82014800D01*
X158455200Y-82014800D02*
X156655200Y-82014800D01*
X156655200Y-82014800D02*
X156655200Y-82764800D01*
X156655200Y-82764800D02*
X158455200Y-82764800D01*
X147655200Y-82764800D02*
X147655200Y-82014800D01*
X147655200Y-82014800D02*
X145855200Y-82014800D01*
X145855200Y-82014800D02*
X145855200Y-82764800D01*
X145855200Y-82764800D02*
X147655200Y-82764800D01*
X158455200Y-80514800D02*
X157705200Y-80514800D01*
X157705200Y-80514800D02*
X157705200Y-77564800D01*
X157705200Y-77564800D02*
X152155200Y-77564800D01*
X145855200Y-80514800D02*
X146605200Y-80514800D01*
X146605200Y-80514800D02*
X146605200Y-77564800D01*
X146605200Y-77564800D02*
X152155200Y-77564800D01*
X156255200Y-83064800D02*
X158755200Y-83064800D01*
X158755200Y-83064800D02*
X158755200Y-80564800D01*
X106564800Y-105452800D02*
X106564800Y-104452800D01*
X104864800Y-104452800D02*
X104864800Y-105452800D01*
X100662200Y-86418300D02*
X100662200Y-87348300D01*
X100662200Y-89578300D02*
X100662200Y-88648300D01*
X100662200Y-89578300D02*
X102822200Y-89578300D01*
X100662200Y-86418300D02*
X102122200Y-86418300D01*
X108218700Y-86418300D02*
X108218700Y-87348300D01*
X108218700Y-89578300D02*
X108218700Y-88648300D01*
X108218700Y-89578300D02*
X110378700Y-89578300D01*
X108218700Y-86418300D02*
X109678700Y-86418300D01*
D16*
X175275000Y-102619000D02*
X173225000Y-100569000D01*
X173225000Y-89169000D02*
X173225000Y-87119000D01*
X173225000Y-87119000D02*
X175275000Y-87119000D01*
X188725000Y-100569000D02*
X188725000Y-102619000D01*
X188725000Y-102619000D02*
X186675000Y-102619000D01*
X188725000Y-89169000D02*
X188725000Y-87119000D01*
X188725000Y-87119000D02*
X186675000Y-87119000D01*
D15*
X125997600Y-102420800D02*
X125997600Y-103420800D01*
X127697600Y-103420800D02*
X127697600Y-102420800D01*
X124168800Y-102420800D02*
X124168800Y-103420800D01*
X125868800Y-103420800D02*
X125868800Y-102420800D01*
X129045600Y-81440400D02*
X129045600Y-82440400D01*
X130745600Y-82440400D02*
X130745600Y-81440400D01*
X119981600Y-102807400D02*
X118981600Y-102807400D01*
X118981600Y-104507400D02*
X119981600Y-104507400D01*
X148375000Y-97137600D02*
X148375000Y-98137600D01*
X150075000Y-98137600D02*
X150075000Y-97137600D01*
X131605400Y-87235400D02*
X132605400Y-87235400D01*
X132605400Y-85535400D02*
X131605400Y-85535400D01*
X157742000Y-105574200D02*
X158742000Y-105574200D01*
X158742000Y-103874200D02*
X157742000Y-103874200D01*
X93458400Y-119194200D02*
X93458400Y-118194200D01*
X91758400Y-118194200D02*
X91758400Y-119194200D01*
X95338000Y-119219600D02*
X95338000Y-118219600D01*
X93638000Y-118219600D02*
X93638000Y-119219600D01*
X96883600Y-116902600D02*
X97883600Y-116902600D01*
X97883600Y-115202600D02*
X96883600Y-115202600D01*
X96883600Y-118706000D02*
X97883600Y-118706000D01*
X97883600Y-117006000D02*
X96883600Y-117006000D01*
X107580800Y-118914800D02*
X107580800Y-117914800D01*
X105880800Y-117914800D02*
X105880800Y-118914800D01*
X179718600Y-78189200D02*
X179718600Y-79189200D01*
X181418600Y-79189200D02*
X181418600Y-78189200D01*
X182079000Y-84726400D02*
X182079000Y-83726400D01*
X180379000Y-83726400D02*
X180379000Y-84726400D01*
X128614400Y-77905200D02*
X127214400Y-77905200D01*
X127214400Y-77905200D02*
X127214400Y-80705200D01*
X128614400Y-77905200D02*
X128614400Y-80705200D01*
X126734800Y-77905200D02*
X125334800Y-77905200D01*
X125334800Y-77905200D02*
X125334800Y-80705200D01*
X126734800Y-77905200D02*
X126734800Y-80705200D01*
X124855200Y-77905200D02*
X123455200Y-77905200D01*
X123455200Y-77905200D02*
X123455200Y-80705200D01*
X124855200Y-77905200D02*
X124855200Y-80705200D01*
X113859000Y-120075000D02*
X116519000Y-120075000D01*
X113859000Y-114935000D02*
X113859000Y-120075000D01*
X116519000Y-114935000D02*
X116519000Y-120075000D01*
X113859000Y-114935000D02*
X116519000Y-114935000D01*
X113859000Y-113665000D02*
X113859000Y-112335000D01*
X113859000Y-112335000D02*
X115189000Y-112335000D01*
X117516600Y-120075000D02*
X120176600Y-120075000D01*
X117516600Y-114935000D02*
X117516600Y-120075000D01*
X120176600Y-114935000D02*
X120176600Y-120075000D01*
X117516600Y-114935000D02*
X120176600Y-114935000D01*
X117516600Y-113665000D02*
X117516600Y-112335000D01*
X117516600Y-112335000D02*
X118846600Y-112335000D01*
X121174200Y-120075000D02*
X123834200Y-120075000D01*
X121174200Y-114935000D02*
X121174200Y-120075000D01*
X123834200Y-114935000D02*
X123834200Y-120075000D01*
X121174200Y-114935000D02*
X123834200Y-114935000D01*
X121174200Y-113665000D02*
X121174200Y-112335000D01*
X121174200Y-112335000D02*
X122504200Y-112335000D01*
X124831800Y-120075000D02*
X127491800Y-120075000D01*
X124831800Y-114935000D02*
X124831800Y-120075000D01*
X127491800Y-114935000D02*
X127491800Y-120075000D01*
X124831800Y-114935000D02*
X127491800Y-114935000D01*
X124831800Y-113665000D02*
X124831800Y-112335000D01*
X124831800Y-112335000D02*
X126161800Y-112335000D01*
X128489400Y-120075000D02*
X131149400Y-120075000D01*
X128489400Y-114935000D02*
X128489400Y-120075000D01*
X131149400Y-114935000D02*
X131149400Y-120075000D01*
X128489400Y-114935000D02*
X131149400Y-114935000D01*
X128489400Y-113665000D02*
X128489400Y-112335000D01*
X128489400Y-112335000D02*
X129819400Y-112335000D01*
X132147000Y-120075000D02*
X134807000Y-120075000D01*
X132147000Y-114935000D02*
X132147000Y-120075000D01*
X134807000Y-114935000D02*
X134807000Y-120075000D01*
X132147000Y-114935000D02*
X134807000Y-114935000D01*
X132147000Y-113665000D02*
X132147000Y-112335000D01*
X132147000Y-112335000D02*
X133477000Y-112335000D01*
X135804600Y-120075000D02*
X138464600Y-120075000D01*
X135804600Y-114935000D02*
X135804600Y-120075000D01*
X138464600Y-114935000D02*
X138464600Y-120075000D01*
X135804600Y-114935000D02*
X138464600Y-114935000D01*
X135804600Y-113665000D02*
X135804600Y-112335000D01*
X135804600Y-112335000D02*
X137134600Y-112335000D01*
X139462200Y-120075000D02*
X142122200Y-120075000D01*
X139462200Y-114935000D02*
X139462200Y-120075000D01*
X142122200Y-114935000D02*
X142122200Y-120075000D01*
X139462200Y-114935000D02*
X142122200Y-114935000D01*
X139462200Y-113665000D02*
X139462200Y-112335000D01*
X139462200Y-112335000D02*
X140792200Y-112335000D01*
X143119800Y-120075000D02*
X145779800Y-120075000D01*
X143119800Y-114935000D02*
X143119800Y-120075000D01*
X145779800Y-114935000D02*
X145779800Y-120075000D01*
X143119800Y-114935000D02*
X145779800Y-114935000D01*
X143119800Y-113665000D02*
X143119800Y-112335000D01*
X143119800Y-112335000D02*
X144449800Y-112335000D01*
X146777400Y-120075000D02*
X149437400Y-120075000D01*
X146777400Y-114935000D02*
X146777400Y-120075000D01*
X149437400Y-114935000D02*
X149437400Y-120075000D01*
X146777400Y-114935000D02*
X149437400Y-114935000D01*
X146777400Y-113665000D02*
X146777400Y-112335000D01*
X146777400Y-112335000D02*
X148107400Y-112335000D01*
X120913200Y-77968800D02*
X115713200Y-77968800D01*
X120913200Y-88188800D02*
X120913200Y-77968800D01*
X115713200Y-90788800D02*
X115713200Y-77968800D01*
X120913200Y-88188800D02*
X118313200Y-88188800D01*
X118313200Y-88188800D02*
X118313200Y-90788800D01*
X118313200Y-90788800D02*
X115713200Y-90788800D01*
X120913200Y-89458800D02*
X120913200Y-90788800D01*
X120913200Y-90788800D02*
X119583200Y-90788800D01*
X76629000Y-110069000D02*
X76629000Y-104969000D01*
X76629000Y-104969000D02*
X88429000Y-104969000D01*
X88429000Y-104969000D02*
X88429000Y-106169000D01*
X88429000Y-106169000D02*
X83929000Y-106169000D01*
X83929000Y-106169000D02*
X83929000Y-110069000D01*
X76629000Y-110069000D02*
X76629000Y-115169000D01*
X76629000Y-115169000D02*
X88429000Y-115169000D01*
X88429000Y-115169000D02*
X88429000Y-113969000D01*
X88429000Y-113969000D02*
X83929000Y-113969000D01*
X83929000Y-113969000D02*
X83929000Y-110069000D01*
X87479000Y-107569000D02*
X88079000Y-107269000D01*
X88079000Y-107269000D02*
X88079000Y-107869000D01*
X88079000Y-107869000D02*
X87479000Y-107569000D01*
X93421200Y-78968600D02*
X103581200Y-78968600D01*
X93421200Y-77698600D02*
X93421200Y-85318600D01*
X93421200Y-85318600D02*
X103581200Y-85318600D01*
X103581200Y-85318600D02*
X103581200Y-77698600D01*
X103581200Y-77698600D02*
X93421200Y-77698600D01*
X82245200Y-78968600D02*
X92405200Y-78968600D01*
X82245200Y-77698600D02*
X82245200Y-85318600D01*
X82245200Y-85318600D02*
X92405200Y-85318600D01*
X92405200Y-85318600D02*
X92405200Y-77698600D01*
X92405200Y-77698600D02*
X82245200Y-77698600D01*
X104470200Y-78968600D02*
X114630200Y-78968600D01*
X104470200Y-77698600D02*
X104470200Y-85318600D01*
X104470200Y-85318600D02*
X114630200Y-85318600D01*
X114630200Y-85318600D02*
X114630200Y-77698600D01*
X114630200Y-77698600D02*
X104470200Y-77698600D01*
X109388600Y-118424000D02*
X112048600Y-118424000D01*
X109388600Y-113284000D02*
X109388600Y-118424000D01*
X112048600Y-113284000D02*
X112048600Y-118424000D01*
X109388600Y-113284000D02*
X112048600Y-113284000D01*
X109388600Y-112014000D02*
X109388600Y-110684000D01*
X109388600Y-110684000D02*
X110718600Y-110684000D01*
X89373400Y-109026000D02*
X92033400Y-109026000D01*
X89373400Y-106426000D02*
X89373400Y-109026000D01*
X92033400Y-106426000D02*
X92033400Y-109026000D01*
X89373400Y-106426000D02*
X92033400Y-106426000D01*
X89373400Y-105156000D02*
X89373400Y-103826000D01*
X89373400Y-103826000D02*
X90703400Y-103826000D01*
X130216800Y-87385600D02*
X130216800Y-88585600D01*
X128456800Y-88585600D02*
X128456800Y-87385600D01*
X104472200Y-86418300D02*
X104472200Y-87348300D01*
X104472200Y-89578300D02*
X104472200Y-88648300D01*
X104472200Y-89578300D02*
X106632200Y-89578300D01*
X104472200Y-86418300D02*
X105932200Y-86418300D01*
X131810200Y-81898600D02*
X133010200Y-81898600D01*
X133010200Y-83658600D02*
X131810200Y-83658600D01*
X174329800Y-84337000D02*
X175529800Y-84337000D01*
X175529800Y-86097000D02*
X174329800Y-86097000D01*
X177479400Y-84337000D02*
X178679400Y-84337000D01*
X178679400Y-86097000D02*
X177479400Y-86097000D01*
X127034400Y-83861200D02*
X127034400Y-82661200D01*
X128794400Y-82661200D02*
X128794400Y-83861200D01*
X92693600Y-106670400D02*
X92693600Y-105470400D01*
X94453600Y-105470400D02*
X94453600Y-106670400D01*
X95539000Y-105774600D02*
X96739000Y-105774600D01*
X96739000Y-107534600D02*
X95539000Y-107534600D01*
X125154800Y-83861200D02*
X125154800Y-82661200D01*
X126914800Y-82661200D02*
X126914800Y-83861200D01*
X123275200Y-83861200D02*
X123275200Y-82661200D01*
X125035200Y-82661200D02*
X125035200Y-83861200D01*
X168461800Y-87950600D02*
X168461800Y-86750600D01*
X170221800Y-86750600D02*
X170221800Y-87950600D01*
X166455200Y-87976000D02*
X166455200Y-86776000D01*
X168215200Y-86776000D02*
X168215200Y-87976000D01*
X164448600Y-87976000D02*
X164448600Y-86776000D01*
X166208600Y-86776000D02*
X166208600Y-87976000D01*
X105304700Y-92027300D02*
X105304700Y-90827300D01*
X107064700Y-90827300D02*
X107064700Y-92027300D01*
X105159700Y-94002300D02*
X105159700Y-95202300D01*
X103399700Y-95202300D02*
X103399700Y-94002300D01*
X105159700Y-90827300D02*
X105159700Y-92027300D01*
X103399700Y-92027300D02*
X103399700Y-90827300D01*
X83861800Y-98180600D02*
X83861800Y-99380600D01*
X82101800Y-99380600D02*
X82101800Y-98180600D01*
X85741400Y-98180600D02*
X85741400Y-99380600D01*
X83981400Y-99380600D02*
X83981400Y-98180600D01*
X101494700Y-92027300D02*
X101494700Y-90827300D01*
X103254700Y-90827300D02*
X103254700Y-92027300D01*
X101349700Y-94002300D02*
X101349700Y-95202300D01*
X99589700Y-95202300D02*
X99589700Y-94002300D01*
X101349700Y-90827300D02*
X101349700Y-92027300D01*
X99589700Y-92027300D02*
X99589700Y-90827300D01*
X109114700Y-92027300D02*
X109114700Y-90827300D01*
X110874700Y-90827300D02*
X110874700Y-92027300D01*
X80051800Y-98180600D02*
X80051800Y-99380600D01*
X78291800Y-99380600D02*
X78291800Y-98180600D01*
X108969700Y-94002300D02*
X108969700Y-95202300D01*
X107209700Y-95202300D02*
X107209700Y-94002300D01*
X108969700Y-90827300D02*
X108969700Y-92027300D01*
X107209700Y-92027300D02*
X107209700Y-90827300D01*
X81931400Y-98180600D02*
X81931400Y-99380600D01*
X80171400Y-99380600D02*
X80171400Y-98180600D01*
X87621000Y-98180600D02*
X87621000Y-99380600D01*
X85861000Y-99380600D02*
X85861000Y-98180600D01*
X89500600Y-98180600D02*
X89500600Y-99380600D01*
X87740600Y-99380600D02*
X87740600Y-98180600D01*
X182584200Y-84597800D02*
X182584200Y-83397800D01*
X184344200Y-83397800D02*
X184344200Y-84597800D01*
X184463800Y-84597800D02*
X184463800Y-83397800D01*
X186223800Y-83397800D02*
X186223800Y-84597800D01*
X81720800Y-118633800D02*
X81720800Y-117433800D01*
X83480800Y-117433800D02*
X83480800Y-118633800D01*
X85360400Y-117433800D02*
X85360400Y-118633800D01*
X83600400Y-118633800D02*
X83600400Y-117433800D01*
D16*
X179612800Y-78654400D02*
G75*
G03X179612800Y-78654400I-250000J0D01*
G01*
X179112800Y-82404400D02*
X174362800Y-82404400D01*
X174362800Y-82404400D02*
X174362800Y-79154400D01*
X174362800Y-79154400D02*
X179112800Y-79154400D01*
X179112800Y-79154400D02*
X179112800Y-82404400D01*
D15*
X103563800Y-118706000D02*
X104563800Y-118706000D01*
X104563800Y-117006000D02*
X103563800Y-117006000D01*
X103563800Y-116877200D02*
X104563800Y-116877200D01*
X104563800Y-115177200D02*
X103563800Y-115177200D01*
X101311000Y-118710600D02*
X100111000Y-118710600D01*
X100111000Y-116950600D02*
X101311000Y-116950600D01*
X109483600Y-102599600D02*
X110683600Y-102599600D01*
X110683600Y-104359600D02*
X109483600Y-104359600D01*
X106663600Y-105756000D02*
X106663600Y-104556000D01*
X108423600Y-104556000D02*
X108423600Y-105756000D01*
X100111000Y-113343800D02*
X101311000Y-113343800D01*
X101311000Y-115103800D02*
X100111000Y-115103800D01*
X101311000Y-116932600D02*
X100111000Y-116932600D01*
X100111000Y-115172600D02*
X101311000Y-115172600D01*
X119981600Y-101029400D02*
X118981600Y-101029400D01*
X118981600Y-102729400D02*
X119981600Y-102729400D01*
X112530000Y-89546800D02*
X113530000Y-89546800D01*
X113530000Y-87846800D02*
X112530000Y-87846800D01*
X91578800Y-119219600D02*
X91578800Y-118219600D01*
X89878800Y-118219600D02*
X89878800Y-119219600D01*
X110786800Y-108370000D02*
X109786800Y-108370000D01*
X109786800Y-110070000D02*
X110786800Y-110070000D01*
X93870400Y-115202600D02*
X92870400Y-115202600D01*
X92870400Y-116902600D02*
X93870400Y-116902600D01*
X95800800Y-107862000D02*
X94800800Y-107862000D01*
X94800800Y-109562000D02*
X95800800Y-109562000D01*
X91502600Y-113816000D02*
X89802600Y-113816000D01*
X89802600Y-113816000D02*
X89802600Y-116366000D01*
X91502600Y-113816000D02*
X91502600Y-116366000D01*
X101330000Y-108137600D02*
X99330000Y-108137600D01*
X99330000Y-108137600D02*
X99330000Y-111987600D01*
X101330000Y-108137600D02*
X101330000Y-111987600D01*
X112825600Y-111354000D02*
X112825600Y-105054000D01*
X119025600Y-111354000D02*
X119025600Y-105054000D01*
X101828200Y-106907400D02*
X108128200Y-106907400D01*
X101828200Y-113107400D02*
X108128200Y-113107400D01*
D16*
X93302000Y-109794600D02*
X93302000Y-109844600D01*
X97452000Y-109794600D02*
X97452000Y-109939600D01*
X97452000Y-114944600D02*
X97452000Y-114799600D01*
X93302000Y-114944600D02*
X93302000Y-114799600D01*
X93302000Y-109794600D02*
X97452000Y-109794600D01*
X93302000Y-114944600D02*
X97452000Y-114944600D01*
X93302000Y-109844600D02*
X91902000Y-109844600D01*
D15*
X111947600Y-107224400D02*
X111947600Y-105424400D01*
X108727600Y-105424400D02*
X108727600Y-107874400D01*
X132080000Y-79612800D02*
X144840000Y-79612800D01*
X144840000Y-79612800D02*
X144840000Y-76952800D01*
X144840000Y-76952800D02*
X132080000Y-76952800D01*
X132080000Y-76952800D02*
X132080000Y-79612800D01*
X130810000Y-79612800D02*
X129480000Y-79612800D01*
X129480000Y-79612800D02*
X129480000Y-78282800D01*
X167656200Y-118119200D02*
X170316200Y-118119200D01*
X167656200Y-118059200D02*
X167656200Y-118119200D01*
X170316200Y-118059200D02*
X170316200Y-118119200D01*
X167656200Y-118059200D02*
X170316200Y-118059200D01*
X167656200Y-116789200D02*
X167656200Y-115459200D01*
X167656200Y-115459200D02*
X168986200Y-115459200D01*
X146626200Y-83427200D02*
X145626200Y-83427200D01*
X145626200Y-85127200D02*
X146626200Y-85127200D01*
X142533000Y-81897600D02*
X142533000Y-82897600D01*
X144233000Y-82897600D02*
X144233000Y-81897600D01*
X141139800Y-80201400D02*
X140139800Y-80201400D01*
X140139800Y-81901400D02*
X141139800Y-81901400D01*
X136109600Y-84693200D02*
X136109600Y-85893200D01*
X134349600Y-85893200D02*
X134349600Y-84693200D01*
X137530600Y-82323200D02*
G75*
G03X137530600Y-82323200I-60000J0D01*
G01*
X137620600Y-82323200D02*
G75*
G03X137620600Y-82323200I-150000J0D01*
G01*
X137470600Y-85723200D02*
X137470600Y-85023200D01*
X141370600Y-85723200D02*
X140620600Y-85723200D01*
X141370600Y-82323200D02*
X141370600Y-83023200D01*
X140620600Y-82323200D02*
X141370600Y-82323200D01*
X141370600Y-85023200D02*
X141370600Y-85723200D01*
X138220600Y-85723200D02*
X137470600Y-85723200D01*
X155997800Y-103438400D02*
X155997800Y-104638400D01*
X154237800Y-104638400D02*
X154237800Y-103438400D01*
X92311900Y-90139800D02*
X92311900Y-88639800D01*
X92311900Y-88639800D02*
X92041900Y-88639800D01*
X92041900Y-88639800D02*
X92041900Y-85809800D01*
X85411900Y-90139800D02*
X85411900Y-88639800D01*
X85411900Y-88639800D02*
X85681900Y-88639800D01*
X85681900Y-88639800D02*
X85681900Y-87539800D01*
X85199900Y-90139800D02*
X85199900Y-88639800D01*
X85199900Y-88639800D02*
X84929900Y-88639800D01*
X84929900Y-88639800D02*
X84929900Y-85809800D01*
X78299900Y-90139800D02*
X78299900Y-88639800D01*
X78299900Y-88639800D02*
X78569900Y-88639800D01*
X78569900Y-88639800D02*
X78569900Y-87539800D01*
X99423900Y-90139800D02*
X99423900Y-88639800D01*
X99423900Y-88639800D02*
X99153900Y-88639800D01*
X99153900Y-88639800D02*
X99153900Y-85809800D01*
X92523900Y-90139800D02*
X92523900Y-88639800D01*
X92523900Y-88639800D02*
X92793900Y-88639800D01*
X92793900Y-88639800D02*
X92793900Y-87539800D01*
D16*
X165433477Y-77277981D02*
X165433477Y-77992267D01*
X165385857Y-78135124D01*
X165290619Y-78230362D01*
X165147762Y-78277981D01*
X165052524Y-78277981D01*
X166433477Y-78277981D02*
X165862048Y-78277981D01*
X166147762Y-78277981D02*
X166147762Y-77277981D01*
X166052524Y-77420838D01*
X165957286Y-77516076D01*
X165862048Y-77563695D01*
X166766810Y-77277981D02*
X167385858Y-77277981D01*
X167052524Y-77658933D01*
X167195382Y-77658933D01*
X167290620Y-77706552D01*
X167338239Y-77754171D01*
X167385858Y-77849410D01*
X167385858Y-78087505D01*
X167338239Y-78182743D01*
X167290620Y-78230362D01*
X167195382Y-78277981D01*
X166909667Y-78277981D01*
X166814429Y-78230362D01*
X166766810Y-78182743D01*
X177446086Y-116819371D02*
X177588943Y-116866990D01*
X177636562Y-116914610D01*
X177684181Y-117009848D01*
X177684181Y-117152705D01*
X177636562Y-117247943D01*
X177588943Y-117295562D01*
X177493705Y-117343181D01*
X177112752Y-117343181D01*
X177112752Y-116343181D01*
X177446086Y-116343181D01*
X177541324Y-116390800D01*
X177588943Y-116438419D01*
X177636562Y-116533657D01*
X177636562Y-116628895D01*
X177588943Y-116724133D01*
X177541324Y-116771752D01*
X177446086Y-116819371D01*
X177112752Y-116819371D01*
X177969895Y-116343181D02*
X178541324Y-116343181D01*
X178255609Y-117343181D02*
X178255609Y-116343181D01*
X179398467Y-117343181D02*
X178827038Y-117343181D01*
X179112752Y-117343181D02*
X179112752Y-116343181D01*
X179017514Y-116486038D01*
X178922276Y-116581276D01*
X178827038Y-116628895D01*
X133381809Y-107367390D02*
X133381809Y-107843581D01*
X133048476Y-106843581D02*
X133381809Y-107367390D01*
X133715143Y-106843581D01*
X134572286Y-107843581D02*
X134000857Y-107843581D01*
X134286571Y-107843581D02*
X134286571Y-106843581D01*
X134191333Y-106986438D01*
X134096095Y-107081676D01*
X134000857Y-107129295D01*
X150709381Y-107997523D02*
X151423667Y-107997523D01*
X151566524Y-108045143D01*
X151661762Y-108140381D01*
X151709381Y-108283238D01*
X151709381Y-108378476D01*
X151709381Y-106997523D02*
X151709381Y-107568952D01*
X151709381Y-107283238D02*
X150709381Y-107283238D01*
X150852238Y-107378476D01*
X150947476Y-107473714D01*
X150995095Y-107568952D01*
X150709381Y-106092761D02*
X150709381Y-106568952D01*
X151185571Y-106616571D01*
X151137952Y-106568952D01*
X151090333Y-106473714D01*
X151090333Y-106235618D01*
X151137952Y-106140380D01*
X151185571Y-106092761D01*
X151280810Y-106045142D01*
X151518905Y-106045142D01*
X151614143Y-106092761D01*
X151661762Y-106140380D01*
X151709381Y-106235618D01*
X151709381Y-106473714D01*
X151661762Y-106568952D01*
X151614143Y-106616571D01*
X151598381Y-99440905D02*
X152407905Y-99440905D01*
X152503143Y-99393286D01*
X152550762Y-99345667D01*
X152598381Y-99250429D01*
X152598381Y-99059952D01*
X152550762Y-98964714D01*
X152503143Y-98917095D01*
X152407905Y-98869476D01*
X151598381Y-98869476D01*
X151693619Y-98440905D02*
X151646000Y-98393286D01*
X151598381Y-98298048D01*
X151598381Y-98059952D01*
X151646000Y-97964714D01*
X151693619Y-97917095D01*
X151788857Y-97869476D01*
X151884095Y-97869476D01*
X152026952Y-97917095D01*
X152598381Y-98488524D01*
X152598381Y-97869476D01*
X128941581Y-96748505D02*
X129751105Y-96748505D01*
X129846343Y-96700886D01*
X129893962Y-96653267D01*
X129941581Y-96558029D01*
X129941581Y-96367552D01*
X129893962Y-96272314D01*
X129846343Y-96224695D01*
X129751105Y-96177076D01*
X128941581Y-96177076D01*
X129941581Y-95177076D02*
X129941581Y-95748505D01*
X129941581Y-95462791D02*
X128941581Y-95462791D01*
X129084438Y-95558029D01*
X129179676Y-95653267D01*
X129227295Y-95748505D01*
X151285677Y-77836781D02*
X151285677Y-78551067D01*
X151238057Y-78693924D01*
X151142819Y-78789162D01*
X150999962Y-78836781D01*
X150904724Y-78836781D01*
X151714248Y-77932019D02*
X151761867Y-77884400D01*
X151857105Y-77836781D01*
X152095201Y-77836781D01*
X152190439Y-77884400D01*
X152238058Y-77932019D01*
X152285677Y-78027257D01*
X152285677Y-78122495D01*
X152238058Y-78265352D01*
X151666629Y-78836781D01*
X152285677Y-78836781D01*
X152904724Y-77836781D02*
X152999963Y-77836781D01*
X153095201Y-77884400D01*
X153142820Y-77932019D01*
X153190439Y-78027257D01*
X153238058Y-78217733D01*
X153238058Y-78455829D01*
X153190439Y-78646305D01*
X153142820Y-78741543D01*
X153095201Y-78789162D01*
X152999963Y-78836781D01*
X152904724Y-78836781D01*
X152809486Y-78789162D01*
X152761867Y-78741543D01*
X152714248Y-78646305D01*
X152666629Y-78455829D01*
X152666629Y-78217733D01*
X152714248Y-78027257D01*
X152761867Y-77932019D01*
X152809486Y-77884400D01*
X152904724Y-77836781D01*
D11*
X105393372Y-102946971D02*
X105369562Y-102970781D01*
X105298134Y-102994590D01*
X105250515Y-102994590D01*
X105179086Y-102970781D01*
X105131467Y-102923162D01*
X105107658Y-102875543D01*
X105083848Y-102780305D01*
X105083848Y-102708876D01*
X105107658Y-102613638D01*
X105131467Y-102566019D01*
X105179086Y-102518400D01*
X105250515Y-102494590D01*
X105298134Y-102494590D01*
X105369562Y-102518400D01*
X105393372Y-102542210D01*
X105583848Y-102542210D02*
X105607658Y-102518400D01*
X105655277Y-102494590D01*
X105774324Y-102494590D01*
X105821943Y-102518400D01*
X105845753Y-102542210D01*
X105869562Y-102589829D01*
X105869562Y-102637448D01*
X105845753Y-102708876D01*
X105560039Y-102994590D01*
X105869562Y-102994590D01*
X106036229Y-102494590D02*
X106345752Y-102494590D01*
X106179086Y-102685067D01*
X106250514Y-102685067D01*
X106298133Y-102708876D01*
X106321943Y-102732686D01*
X106345752Y-102780305D01*
X106345752Y-102899352D01*
X106321943Y-102946971D01*
X106298133Y-102970781D01*
X106250514Y-102994590D01*
X106107657Y-102994590D01*
X106060038Y-102970781D01*
X106036229Y-102946971D01*
X101349181Y-86176610D02*
X101301562Y-86152800D01*
X101253943Y-86105181D01*
X101182514Y-86033752D01*
X101134895Y-86009943D01*
X101087276Y-86009943D01*
X101111086Y-86128990D02*
X101063467Y-86105181D01*
X101015848Y-86057562D01*
X100992038Y-85962324D01*
X100992038Y-85795657D01*
X101015848Y-85700419D01*
X101063467Y-85652800D01*
X101111086Y-85628990D01*
X101206324Y-85628990D01*
X101253943Y-85652800D01*
X101301562Y-85700419D01*
X101325371Y-85795657D01*
X101325371Y-85962324D01*
X101301562Y-86057562D01*
X101253943Y-86105181D01*
X101206324Y-86128990D01*
X101111086Y-86128990D01*
X101492039Y-85628990D02*
X101801562Y-85628990D01*
X101634896Y-85819467D01*
X101706324Y-85819467D01*
X101753943Y-85843276D01*
X101777753Y-85867086D01*
X101801562Y-85914705D01*
X101801562Y-86033752D01*
X101777753Y-86081371D01*
X101753943Y-86105181D01*
X101706324Y-86128990D01*
X101563467Y-86128990D01*
X101515848Y-86105181D01*
X101492039Y-86081371D01*
X108918381Y-86176610D02*
X108870762Y-86152800D01*
X108823143Y-86105181D01*
X108751714Y-86033752D01*
X108704095Y-86009943D01*
X108656476Y-86009943D01*
X108680286Y-86128990D02*
X108632667Y-86105181D01*
X108585048Y-86057562D01*
X108561238Y-85962324D01*
X108561238Y-85795657D01*
X108585048Y-85700419D01*
X108632667Y-85652800D01*
X108680286Y-85628990D01*
X108775524Y-85628990D01*
X108823143Y-85652800D01*
X108870762Y-85700419D01*
X108894571Y-85795657D01*
X108894571Y-85962324D01*
X108870762Y-86057562D01*
X108823143Y-86105181D01*
X108775524Y-86128990D01*
X108680286Y-86128990D01*
X109346953Y-85628990D02*
X109108858Y-85628990D01*
X109085048Y-85867086D01*
X109108858Y-85843276D01*
X109156477Y-85819467D01*
X109275524Y-85819467D01*
X109323143Y-85843276D01*
X109346953Y-85867086D01*
X109370762Y-85914705D01*
X109370762Y-86033752D01*
X109346953Y-86081371D01*
X109323143Y-86105181D01*
X109275524Y-86128990D01*
X109156477Y-86128990D01*
X109108858Y-86105181D01*
X109085048Y-86081371D01*
D16*
X171402457Y-100710886D02*
X172373886Y-100710886D01*
X172488171Y-100653743D01*
X172545314Y-100596600D01*
X172602457Y-100482314D01*
X172602457Y-100253743D01*
X172545314Y-100139457D01*
X172488171Y-100082314D01*
X172373886Y-100025171D01*
X171402457Y-100025171D01*
X171402457Y-98939457D02*
X171402457Y-99168028D01*
X171459600Y-99282314D01*
X171516743Y-99339457D01*
X171688171Y-99453743D01*
X171916743Y-99510886D01*
X172373886Y-99510886D01*
X172488171Y-99453743D01*
X172545314Y-99396600D01*
X172602457Y-99282314D01*
X172602457Y-99053743D01*
X172545314Y-98939457D01*
X172488171Y-98882314D01*
X172373886Y-98825171D01*
X172088171Y-98825171D01*
X171973886Y-98882314D01*
X171916743Y-98939457D01*
X171859600Y-99053743D01*
X171859600Y-99282314D01*
X171916743Y-99396600D01*
X171973886Y-99453743D01*
X172088171Y-99510886D01*
X127204743Y-100293466D02*
X127252362Y-100341085D01*
X127299981Y-100483942D01*
X127299981Y-100579180D01*
X127252362Y-100722038D01*
X127157124Y-100817276D01*
X127061886Y-100864895D01*
X126871410Y-100912514D01*
X126728552Y-100912514D01*
X126538076Y-100864895D01*
X126442838Y-100817276D01*
X126347600Y-100722038D01*
X126299981Y-100579180D01*
X126299981Y-100483942D01*
X126347600Y-100341085D01*
X126395219Y-100293466D01*
X126633314Y-99436323D02*
X127299981Y-99436323D01*
X126252362Y-99674419D02*
X126966648Y-99912514D01*
X126966648Y-99293466D01*
X125375943Y-100344266D02*
X125423562Y-100391885D01*
X125471181Y-100534742D01*
X125471181Y-100629980D01*
X125423562Y-100772838D01*
X125328324Y-100868076D01*
X125233086Y-100915695D01*
X125042610Y-100963314D01*
X124899752Y-100963314D01*
X124709276Y-100915695D01*
X124614038Y-100868076D01*
X124518800Y-100772838D01*
X124471181Y-100629980D01*
X124471181Y-100534742D01*
X124518800Y-100391885D01*
X124566419Y-100344266D01*
X124471181Y-99439504D02*
X124471181Y-99915695D01*
X124947371Y-99963314D01*
X124899752Y-99915695D01*
X124852133Y-99820457D01*
X124852133Y-99582361D01*
X124899752Y-99487123D01*
X124947371Y-99439504D01*
X125042610Y-99391885D01*
X125280705Y-99391885D01*
X125375943Y-99439504D01*
X125423562Y-99487123D01*
X125471181Y-99582361D01*
X125471181Y-99820457D01*
X125423562Y-99915695D01*
X125375943Y-99963314D01*
X130252743Y-84824866D02*
X130300362Y-84872485D01*
X130347981Y-85015342D01*
X130347981Y-85110580D01*
X130300362Y-85253438D01*
X130205124Y-85348676D01*
X130109886Y-85396295D01*
X129919410Y-85443914D01*
X129776552Y-85443914D01*
X129586076Y-85396295D01*
X129490838Y-85348676D01*
X129395600Y-85253438D01*
X129347981Y-85110580D01*
X129347981Y-85015342D01*
X129395600Y-84872485D01*
X129443219Y-84824866D01*
X129347981Y-84491533D02*
X129347981Y-83824866D01*
X130347981Y-84253438D01*
X116520934Y-103989143D02*
X116473315Y-104036762D01*
X116330458Y-104084381D01*
X116235220Y-104084381D01*
X116092362Y-104036762D01*
X115997124Y-103941524D01*
X115949505Y-103846286D01*
X115901886Y-103655810D01*
X115901886Y-103512952D01*
X115949505Y-103322476D01*
X115997124Y-103227238D01*
X116092362Y-103132000D01*
X116235220Y-103084381D01*
X116330458Y-103084381D01*
X116473315Y-103132000D01*
X116520934Y-103179619D01*
X117092362Y-103512952D02*
X116997124Y-103465333D01*
X116949505Y-103417714D01*
X116901886Y-103322476D01*
X116901886Y-103274857D01*
X116949505Y-103179619D01*
X116997124Y-103132000D01*
X117092362Y-103084381D01*
X117282839Y-103084381D01*
X117378077Y-103132000D01*
X117425696Y-103179619D01*
X117473315Y-103274857D01*
X117473315Y-103322476D01*
X117425696Y-103417714D01*
X117378077Y-103465333D01*
X117282839Y-103512952D01*
X117092362Y-103512952D01*
X116997124Y-103560571D01*
X116949505Y-103608190D01*
X116901886Y-103703429D01*
X116901886Y-103893905D01*
X116949505Y-103989143D01*
X116997124Y-104036762D01*
X117092362Y-104084381D01*
X117282839Y-104084381D01*
X117378077Y-104036762D01*
X117425696Y-103989143D01*
X117473315Y-103893905D01*
X117473315Y-103703429D01*
X117425696Y-103608190D01*
X117378077Y-103560571D01*
X117282839Y-103512952D01*
X149455143Y-101734857D02*
X149502762Y-101782476D01*
X149550381Y-101925333D01*
X149550381Y-102020571D01*
X149502762Y-102163429D01*
X149407524Y-102258667D01*
X149312286Y-102306286D01*
X149121810Y-102353905D01*
X148978952Y-102353905D01*
X148788476Y-102306286D01*
X148693238Y-102258667D01*
X148598000Y-102163429D01*
X148550381Y-102020571D01*
X148550381Y-101925333D01*
X148598000Y-101782476D01*
X148645619Y-101734857D01*
X149550381Y-100782476D02*
X149550381Y-101353905D01*
X149550381Y-101068191D02*
X148550381Y-101068191D01*
X148693238Y-101163429D01*
X148788476Y-101258667D01*
X148836095Y-101353905D01*
X148550381Y-100163429D02*
X148550381Y-100068190D01*
X148598000Y-99972952D01*
X148645619Y-99925333D01*
X148740857Y-99877714D01*
X148931333Y-99830095D01*
X149169429Y-99830095D01*
X149359905Y-99877714D01*
X149455143Y-99925333D01*
X149502762Y-99972952D01*
X149550381Y-100068190D01*
X149550381Y-100163429D01*
X149502762Y-100258667D01*
X149455143Y-100306286D01*
X149359905Y-100353905D01*
X149169429Y-100401524D01*
X148931333Y-100401524D01*
X148740857Y-100353905D01*
X148645619Y-100306286D01*
X148598000Y-100258667D01*
X148550381Y-100163429D01*
X131462543Y-85066143D02*
X131414924Y-85113762D01*
X131272067Y-85161381D01*
X131176829Y-85161381D01*
X131033971Y-85113762D01*
X130938733Y-85018524D01*
X130891114Y-84923286D01*
X130843495Y-84732810D01*
X130843495Y-84589952D01*
X130891114Y-84399476D01*
X130938733Y-84304238D01*
X131033971Y-84209000D01*
X131176829Y-84161381D01*
X131272067Y-84161381D01*
X131414924Y-84209000D01*
X131462543Y-84256619D01*
X132414924Y-85161381D02*
X131843495Y-85161381D01*
X132129209Y-85161381D02*
X132129209Y-84161381D01*
X132033971Y-84304238D01*
X131938733Y-84399476D01*
X131843495Y-84447095D01*
X132795876Y-84256619D02*
X132843495Y-84209000D01*
X132938733Y-84161381D01*
X133176829Y-84161381D01*
X133272067Y-84209000D01*
X133319686Y-84256619D01*
X133367305Y-84351857D01*
X133367305Y-84447095D01*
X133319686Y-84589952D01*
X132748257Y-85161381D01*
X133367305Y-85161381D01*
X160977343Y-105132143D02*
X160929724Y-105179762D01*
X160786867Y-105227381D01*
X160691629Y-105227381D01*
X160548771Y-105179762D01*
X160453533Y-105084524D01*
X160405914Y-104989286D01*
X160358295Y-104798810D01*
X160358295Y-104655952D01*
X160405914Y-104465476D01*
X160453533Y-104370238D01*
X160548771Y-104275000D01*
X160691629Y-104227381D01*
X160786867Y-104227381D01*
X160929724Y-104275000D01*
X160977343Y-104322619D01*
X161929724Y-105227381D02*
X161358295Y-105227381D01*
X161644009Y-105227381D02*
X161644009Y-104227381D01*
X161548771Y-104370238D01*
X161453533Y-104465476D01*
X161358295Y-104513095D01*
X162263057Y-104227381D02*
X162882105Y-104227381D01*
X162548771Y-104608333D01*
X162691629Y-104608333D01*
X162786867Y-104655952D01*
X162834486Y-104703571D01*
X162882105Y-104798810D01*
X162882105Y-105036905D01*
X162834486Y-105132143D01*
X162786867Y-105179762D01*
X162691629Y-105227381D01*
X162405914Y-105227381D01*
X162310676Y-105179762D01*
X162263057Y-105132143D01*
D11*
X89586571Y-119041028D02*
X89610381Y-119064838D01*
X89634190Y-119136266D01*
X89634190Y-119183885D01*
X89610381Y-119255314D01*
X89562762Y-119302933D01*
X89515143Y-119326742D01*
X89419905Y-119350552D01*
X89348476Y-119350552D01*
X89253238Y-119326742D01*
X89205619Y-119302933D01*
X89158000Y-119255314D01*
X89134190Y-119183885D01*
X89134190Y-119136266D01*
X89158000Y-119064838D01*
X89181810Y-119041028D01*
X89634190Y-118564838D02*
X89634190Y-118850552D01*
X89634190Y-118707695D02*
X89134190Y-118707695D01*
X89205619Y-118755314D01*
X89253238Y-118802933D01*
X89277048Y-118850552D01*
X89134190Y-118112457D02*
X89134190Y-118350552D01*
X89372286Y-118374362D01*
X89348476Y-118350552D01*
X89324667Y-118302933D01*
X89324667Y-118183886D01*
X89348476Y-118136267D01*
X89372286Y-118112457D01*
X89419905Y-118088648D01*
X89538952Y-118088648D01*
X89586571Y-118112457D01*
X89610381Y-118136267D01*
X89634190Y-118183886D01*
X89634190Y-118302933D01*
X89610381Y-118350552D01*
X89586571Y-118374362D01*
X96088971Y-119955428D02*
X96112781Y-119979238D01*
X96136590Y-120050666D01*
X96136590Y-120098285D01*
X96112781Y-120169714D01*
X96065162Y-120217333D01*
X96017543Y-120241142D01*
X95922305Y-120264952D01*
X95850876Y-120264952D01*
X95755638Y-120241142D01*
X95708019Y-120217333D01*
X95660400Y-120169714D01*
X95636590Y-120098285D01*
X95636590Y-120050666D01*
X95660400Y-119979238D01*
X95684210Y-119955428D01*
X96136590Y-119479238D02*
X96136590Y-119764952D01*
X96136590Y-119622095D02*
X95636590Y-119622095D01*
X95708019Y-119669714D01*
X95755638Y-119717333D01*
X95779448Y-119764952D01*
X95636590Y-119050667D02*
X95636590Y-119145905D01*
X95660400Y-119193524D01*
X95684210Y-119217333D01*
X95755638Y-119264952D01*
X95850876Y-119288762D01*
X96041352Y-119288762D01*
X96088971Y-119264952D01*
X96112781Y-119241143D01*
X96136590Y-119193524D01*
X96136590Y-119098286D01*
X96112781Y-119050667D01*
X96088971Y-119026857D01*
X96041352Y-119003048D01*
X95922305Y-119003048D01*
X95874686Y-119026857D01*
X95850876Y-119050667D01*
X95827067Y-119098286D01*
X95827067Y-119193524D01*
X95850876Y-119241143D01*
X95874686Y-119264952D01*
X95922305Y-119288762D01*
X97062172Y-119355371D02*
X97038362Y-119379181D01*
X96966934Y-119402990D01*
X96919315Y-119402990D01*
X96847886Y-119379181D01*
X96800267Y-119331562D01*
X96776458Y-119283943D01*
X96752648Y-119188705D01*
X96752648Y-119117276D01*
X96776458Y-119022038D01*
X96800267Y-118974419D01*
X96847886Y-118926800D01*
X96919315Y-118902990D01*
X96966934Y-118902990D01*
X97038362Y-118926800D01*
X97062172Y-118950610D01*
X97538362Y-119402990D02*
X97252648Y-119402990D01*
X97395505Y-119402990D02*
X97395505Y-118902990D01*
X97347886Y-118974419D01*
X97300267Y-119022038D01*
X97252648Y-119045848D01*
X97824076Y-119117276D02*
X97776457Y-119093467D01*
X97752648Y-119069657D01*
X97728838Y-119022038D01*
X97728838Y-118998229D01*
X97752648Y-118950610D01*
X97776457Y-118926800D01*
X97824076Y-118902990D01*
X97919314Y-118902990D01*
X97966933Y-118926800D01*
X97990743Y-118950610D01*
X98014552Y-118998229D01*
X98014552Y-119022038D01*
X97990743Y-119069657D01*
X97966933Y-119093467D01*
X97919314Y-119117276D01*
X97824076Y-119117276D01*
X97776457Y-119141086D01*
X97752648Y-119164895D01*
X97728838Y-119212514D01*
X97728838Y-119307752D01*
X97752648Y-119355371D01*
X97776457Y-119379181D01*
X97824076Y-119402990D01*
X97919314Y-119402990D01*
X97966933Y-119379181D01*
X97990743Y-119355371D01*
X98014552Y-119307752D01*
X98014552Y-119212514D01*
X97990743Y-119164895D01*
X97966933Y-119141086D01*
X97919314Y-119117276D01*
X97062172Y-120066571D02*
X97038362Y-120090381D01*
X96966934Y-120114190D01*
X96919315Y-120114190D01*
X96847886Y-120090381D01*
X96800267Y-120042762D01*
X96776458Y-119995143D01*
X96752648Y-119899905D01*
X96752648Y-119828476D01*
X96776458Y-119733238D01*
X96800267Y-119685619D01*
X96847886Y-119638000D01*
X96919315Y-119614190D01*
X96966934Y-119614190D01*
X97038362Y-119638000D01*
X97062172Y-119661810D01*
X97252648Y-119661810D02*
X97276458Y-119638000D01*
X97324077Y-119614190D01*
X97443124Y-119614190D01*
X97490743Y-119638000D01*
X97514553Y-119661810D01*
X97538362Y-119709429D01*
X97538362Y-119757048D01*
X97514553Y-119828476D01*
X97228839Y-120114190D01*
X97538362Y-120114190D01*
X97847886Y-119614190D02*
X97895505Y-119614190D01*
X97943124Y-119638000D01*
X97966933Y-119661810D01*
X97990743Y-119709429D01*
X98014552Y-119804667D01*
X98014552Y-119923714D01*
X97990743Y-120018952D01*
X97966933Y-120066571D01*
X97943124Y-120090381D01*
X97895505Y-120114190D01*
X97847886Y-120114190D01*
X97800267Y-120090381D01*
X97776457Y-120066571D01*
X97752648Y-120018952D01*
X97728838Y-119923714D01*
X97728838Y-119804667D01*
X97752648Y-119709429D01*
X97776457Y-119661810D01*
X97800267Y-119638000D01*
X97847886Y-119614190D01*
D16*
X107062543Y-115806457D02*
X107110162Y-115854076D01*
X107157781Y-115996933D01*
X107157781Y-116092171D01*
X107110162Y-116235029D01*
X107014924Y-116330267D01*
X106919686Y-116377886D01*
X106729210Y-116425505D01*
X106586352Y-116425505D01*
X106395876Y-116377886D01*
X106300638Y-116330267D01*
X106205400Y-116235029D01*
X106157781Y-116092171D01*
X106157781Y-115996933D01*
X106205400Y-115854076D01*
X106253019Y-115806457D01*
X106253019Y-115425505D02*
X106205400Y-115377886D01*
X106157781Y-115282648D01*
X106157781Y-115044552D01*
X106205400Y-114949314D01*
X106253019Y-114901695D01*
X106348257Y-114854076D01*
X106443495Y-114854076D01*
X106586352Y-114901695D01*
X107157781Y-115473124D01*
X107157781Y-114854076D01*
X106491114Y-113996933D02*
X107157781Y-113996933D01*
X106110162Y-114235029D02*
X106824448Y-114473124D01*
X106824448Y-113854076D01*
X182500543Y-79357457D02*
X182548162Y-79405076D01*
X182595781Y-79547933D01*
X182595781Y-79643171D01*
X182548162Y-79786029D01*
X182452924Y-79881267D01*
X182357686Y-79928886D01*
X182167210Y-79976505D01*
X182024352Y-79976505D01*
X181833876Y-79928886D01*
X181738638Y-79881267D01*
X181643400Y-79786029D01*
X181595781Y-79643171D01*
X181595781Y-79547933D01*
X181643400Y-79405076D01*
X181691019Y-79357457D01*
X181691019Y-78976505D02*
X181643400Y-78928886D01*
X181595781Y-78833648D01*
X181595781Y-78595552D01*
X181643400Y-78500314D01*
X181691019Y-78452695D01*
X181786257Y-78405076D01*
X181881495Y-78405076D01*
X182024352Y-78452695D01*
X182595781Y-79024124D01*
X182595781Y-78405076D01*
X182024352Y-77833648D02*
X181976733Y-77928886D01*
X181929114Y-77976505D01*
X181833876Y-78024124D01*
X181786257Y-78024124D01*
X181691019Y-77976505D01*
X181643400Y-77928886D01*
X181595781Y-77833648D01*
X181595781Y-77643171D01*
X181643400Y-77547933D01*
X181691019Y-77500314D01*
X181786257Y-77452695D01*
X181833876Y-77452695D01*
X181929114Y-77500314D01*
X181976733Y-77547933D01*
X182024352Y-77643171D01*
X182024352Y-77833648D01*
X182071971Y-77928886D01*
X182119590Y-77976505D01*
X182214829Y-78024124D01*
X182405305Y-78024124D01*
X182500543Y-77976505D01*
X182548162Y-77928886D01*
X182595781Y-77833648D01*
X182595781Y-77643171D01*
X182548162Y-77547933D01*
X182500543Y-77500314D01*
X182405305Y-77452695D01*
X182214829Y-77452695D01*
X182119590Y-77500314D01*
X182071971Y-77547933D01*
X182024352Y-77643171D01*
X180535343Y-82170543D02*
X180487724Y-82218162D01*
X180344867Y-82265781D01*
X180249629Y-82265781D01*
X180106771Y-82218162D01*
X180011533Y-82122924D01*
X179963914Y-82027686D01*
X179916295Y-81837210D01*
X179916295Y-81694352D01*
X179963914Y-81503876D01*
X180011533Y-81408638D01*
X180106771Y-81313400D01*
X180249629Y-81265781D01*
X180344867Y-81265781D01*
X180487724Y-81313400D01*
X180535343Y-81361019D01*
X180916295Y-81361019D02*
X180963914Y-81313400D01*
X181059152Y-81265781D01*
X181297248Y-81265781D01*
X181392486Y-81313400D01*
X181440105Y-81361019D01*
X181487724Y-81456257D01*
X181487724Y-81551495D01*
X181440105Y-81694352D01*
X180868676Y-82265781D01*
X181487724Y-82265781D01*
X181963914Y-82265781D02*
X182154390Y-82265781D01*
X182249629Y-82218162D01*
X182297248Y-82170543D01*
X182392486Y-82027686D01*
X182440105Y-81837210D01*
X182440105Y-81456257D01*
X182392486Y-81361019D01*
X182344867Y-81313400D01*
X182249629Y-81265781D01*
X182059152Y-81265781D01*
X181963914Y-81313400D01*
X181916295Y-81361019D01*
X181868676Y-81456257D01*
X181868676Y-81694352D01*
X181916295Y-81789590D01*
X181963914Y-81837210D01*
X182059152Y-81884829D01*
X182249629Y-81884829D01*
X182344867Y-81837210D01*
X182392486Y-81789590D01*
X182440105Y-81694352D01*
X112634781Y-116665333D02*
X113349067Y-116665333D01*
X113491924Y-116712953D01*
X113587162Y-116808191D01*
X113634781Y-116951048D01*
X113634781Y-117046286D01*
X113634781Y-115665333D02*
X113634781Y-116236762D01*
X113634781Y-115951048D02*
X112634781Y-115951048D01*
X112777638Y-116046286D01*
X112872876Y-116141524D01*
X112920495Y-116236762D01*
X119681667Y-110805981D02*
X119681667Y-111520267D01*
X119634047Y-111663124D01*
X119538809Y-111758362D01*
X119395952Y-111805981D01*
X119300714Y-111805981D01*
X120110238Y-110901219D02*
X120157857Y-110853600D01*
X120253095Y-110805981D01*
X120491191Y-110805981D01*
X120586429Y-110853600D01*
X120634048Y-110901219D01*
X120681667Y-110996457D01*
X120681667Y-111091695D01*
X120634048Y-111234552D01*
X120062619Y-111805981D01*
X120681667Y-111805981D01*
X122170867Y-110787381D02*
X122170867Y-111501667D01*
X122123247Y-111644524D01*
X122028009Y-111739762D01*
X121885152Y-111787381D01*
X121789914Y-111787381D01*
X122551819Y-110787381D02*
X123170867Y-110787381D01*
X122837533Y-111168333D01*
X122980391Y-111168333D01*
X123075629Y-111215952D01*
X123123248Y-111263571D01*
X123170867Y-111358810D01*
X123170867Y-111596905D01*
X123123248Y-111692143D01*
X123075629Y-111739762D01*
X122980391Y-111787381D01*
X122694676Y-111787381D01*
X122599438Y-111739762D01*
X122551819Y-111692143D01*
X125828467Y-110787381D02*
X125828467Y-111501667D01*
X125780847Y-111644524D01*
X125685609Y-111739762D01*
X125542752Y-111787381D01*
X125447514Y-111787381D01*
X126733229Y-111120714D02*
X126733229Y-111787381D01*
X126495133Y-110739762D02*
X126257038Y-111454048D01*
X126876086Y-111454048D01*
X129486067Y-110787381D02*
X129486067Y-111501667D01*
X129438447Y-111644524D01*
X129343209Y-111739762D01*
X129200352Y-111787381D01*
X129105114Y-111787381D01*
X130438448Y-110787381D02*
X129962257Y-110787381D01*
X129914638Y-111263571D01*
X129962257Y-111215952D01*
X130057495Y-111168333D01*
X130295591Y-111168333D01*
X130390829Y-111215952D01*
X130438448Y-111263571D01*
X130486067Y-111358810D01*
X130486067Y-111596905D01*
X130438448Y-111692143D01*
X130390829Y-111739762D01*
X130295591Y-111787381D01*
X130057495Y-111787381D01*
X129962257Y-111739762D01*
X129914638Y-111692143D01*
X133143667Y-110787381D02*
X133143667Y-111501667D01*
X133096047Y-111644524D01*
X133000809Y-111739762D01*
X132857952Y-111787381D01*
X132762714Y-111787381D01*
X134048429Y-110787381D02*
X133857952Y-110787381D01*
X133762714Y-110835000D01*
X133715095Y-110882619D01*
X133619857Y-111025476D01*
X133572238Y-111215952D01*
X133572238Y-111596905D01*
X133619857Y-111692143D01*
X133667476Y-111739762D01*
X133762714Y-111787381D01*
X133953191Y-111787381D01*
X134048429Y-111739762D01*
X134096048Y-111692143D01*
X134143667Y-111596905D01*
X134143667Y-111358810D01*
X134096048Y-111263571D01*
X134048429Y-111215952D01*
X133953191Y-111168333D01*
X133762714Y-111168333D01*
X133667476Y-111215952D01*
X133619857Y-111263571D01*
X133572238Y-111358810D01*
X136801267Y-110787381D02*
X136801267Y-111501667D01*
X136753647Y-111644524D01*
X136658409Y-111739762D01*
X136515552Y-111787381D01*
X136420314Y-111787381D01*
X137182219Y-110787381D02*
X137848886Y-110787381D01*
X137420314Y-111787381D01*
X140458867Y-110787381D02*
X140458867Y-111501667D01*
X140411247Y-111644524D01*
X140316009Y-111739762D01*
X140173152Y-111787381D01*
X140077914Y-111787381D01*
X141077914Y-111215952D02*
X140982676Y-111168333D01*
X140935057Y-111120714D01*
X140887438Y-111025476D01*
X140887438Y-110977857D01*
X140935057Y-110882619D01*
X140982676Y-110835000D01*
X141077914Y-110787381D01*
X141268391Y-110787381D01*
X141363629Y-110835000D01*
X141411248Y-110882619D01*
X141458867Y-110977857D01*
X141458867Y-111025476D01*
X141411248Y-111120714D01*
X141363629Y-111168333D01*
X141268391Y-111215952D01*
X141077914Y-111215952D01*
X140982676Y-111263571D01*
X140935057Y-111311190D01*
X140887438Y-111406429D01*
X140887438Y-111596905D01*
X140935057Y-111692143D01*
X140982676Y-111739762D01*
X141077914Y-111787381D01*
X141268391Y-111787381D01*
X141363629Y-111739762D01*
X141411248Y-111692143D01*
X141458867Y-111596905D01*
X141458867Y-111406429D01*
X141411248Y-111311190D01*
X141363629Y-111263571D01*
X141268391Y-111215952D01*
X144116467Y-110787381D02*
X144116467Y-111501667D01*
X144068847Y-111644524D01*
X143973609Y-111739762D01*
X143830752Y-111787381D01*
X143735514Y-111787381D01*
X144640276Y-111787381D02*
X144830752Y-111787381D01*
X144925991Y-111739762D01*
X144973610Y-111692143D01*
X145068848Y-111549286D01*
X145116467Y-111358810D01*
X145116467Y-110977857D01*
X145068848Y-110882619D01*
X145021229Y-110835000D01*
X144925991Y-110787381D01*
X144735514Y-110787381D01*
X144640276Y-110835000D01*
X144592657Y-110882619D01*
X144545038Y-110977857D01*
X144545038Y-111215952D01*
X144592657Y-111311190D01*
X144640276Y-111358810D01*
X144735514Y-111406429D01*
X144925991Y-111406429D01*
X145021229Y-111358810D01*
X145068848Y-111311190D01*
X145116467Y-111215952D01*
X147297877Y-110787381D02*
X147297877Y-111501667D01*
X147250257Y-111644524D01*
X147155019Y-111739762D01*
X147012162Y-111787381D01*
X146916924Y-111787381D01*
X148297877Y-111787381D02*
X147726448Y-111787381D01*
X148012162Y-111787381D02*
X148012162Y-110787381D01*
X147916924Y-110930238D01*
X147821686Y-111025476D01*
X147726448Y-111073095D01*
X148916924Y-110787381D02*
X149012163Y-110787381D01*
X149107401Y-110835000D01*
X149155020Y-110882619D01*
X149202639Y-110977857D01*
X149250258Y-111168333D01*
X149250258Y-111406429D01*
X149202639Y-111596905D01*
X149155020Y-111692143D01*
X149107401Y-111739762D01*
X149012163Y-111787381D01*
X148916924Y-111787381D01*
X148821686Y-111739762D01*
X148774067Y-111692143D01*
X148726448Y-111596905D01*
X148678829Y-111406429D01*
X148678829Y-111168333D01*
X148726448Y-110977857D01*
X148774067Y-110882619D01*
X148821686Y-110835000D01*
X148916924Y-110787381D01*
X97691677Y-83881981D02*
X97691677Y-84596267D01*
X97644057Y-84739124D01*
X97548819Y-84834362D01*
X97405962Y-84881981D01*
X97310724Y-84881981D01*
X98691677Y-84881981D02*
X98120248Y-84881981D01*
X98405962Y-84881981D02*
X98405962Y-83881981D01*
X98310724Y-84024838D01*
X98215486Y-84120076D01*
X98120248Y-84167695D01*
X99025010Y-83881981D02*
X99691677Y-83881981D01*
X99263105Y-84881981D01*
X86363277Y-83881981D02*
X86363277Y-84596267D01*
X86315657Y-84739124D01*
X86220419Y-84834362D01*
X86077562Y-84881981D01*
X85982324Y-84881981D01*
X87363277Y-84881981D02*
X86791848Y-84881981D01*
X87077562Y-84881981D02*
X87077562Y-83881981D01*
X86982324Y-84024838D01*
X86887086Y-84120076D01*
X86791848Y-84167695D01*
X87934705Y-84310552D02*
X87839467Y-84262933D01*
X87791848Y-84215314D01*
X87744229Y-84120076D01*
X87744229Y-84072457D01*
X87791848Y-83977219D01*
X87839467Y-83929600D01*
X87934705Y-83881981D01*
X88125182Y-83881981D01*
X88220420Y-83929600D01*
X88268039Y-83977219D01*
X88315658Y-84072457D01*
X88315658Y-84120076D01*
X88268039Y-84215314D01*
X88220420Y-84262933D01*
X88125182Y-84310552D01*
X87934705Y-84310552D01*
X87839467Y-84358171D01*
X87791848Y-84405790D01*
X87744229Y-84501029D01*
X87744229Y-84691505D01*
X87791848Y-84786743D01*
X87839467Y-84834362D01*
X87934705Y-84881981D01*
X88125182Y-84881981D01*
X88220420Y-84834362D01*
X88268039Y-84786743D01*
X88315658Y-84691505D01*
X88315658Y-84501029D01*
X88268039Y-84405790D01*
X88220420Y-84358171D01*
X88125182Y-84310552D01*
X108867677Y-83881981D02*
X108867677Y-84596267D01*
X108820057Y-84739124D01*
X108724819Y-84834362D01*
X108581962Y-84881981D01*
X108486724Y-84881981D01*
X109867677Y-84881981D02*
X109296248Y-84881981D01*
X109581962Y-84881981D02*
X109581962Y-83881981D01*
X109486724Y-84024838D01*
X109391486Y-84120076D01*
X109296248Y-84167695D01*
X110343867Y-84881981D02*
X110534343Y-84881981D01*
X110629582Y-84834362D01*
X110677201Y-84786743D01*
X110772439Y-84643886D01*
X110820058Y-84453410D01*
X110820058Y-84072457D01*
X110772439Y-83977219D01*
X110724820Y-83929600D01*
X110629582Y-83881981D01*
X110439105Y-83881981D01*
X110343867Y-83929600D01*
X110296248Y-83977219D01*
X110248629Y-84072457D01*
X110248629Y-84310552D01*
X110296248Y-84405790D01*
X110343867Y-84453410D01*
X110439105Y-84501029D01*
X110629582Y-84501029D01*
X110724820Y-84453410D01*
X110772439Y-84405790D01*
X110820058Y-84310552D01*
X128061981Y-88126866D02*
X128061981Y-88603057D01*
X127061981Y-88603057D01*
X128061981Y-87269723D02*
X128061981Y-87841152D01*
X128061981Y-87555438D02*
X127061981Y-87555438D01*
X127204838Y-87650676D01*
X127300076Y-87745914D01*
X127347695Y-87841152D01*
D11*
X105209981Y-86176610D02*
X105162362Y-86152800D01*
X105114743Y-86105181D01*
X105043314Y-86033752D01*
X104995695Y-86009943D01*
X104948076Y-86009943D01*
X104971886Y-86128990D02*
X104924267Y-86105181D01*
X104876648Y-86057562D01*
X104852838Y-85962324D01*
X104852838Y-85795657D01*
X104876648Y-85700419D01*
X104924267Y-85652800D01*
X104971886Y-85628990D01*
X105067124Y-85628990D01*
X105114743Y-85652800D01*
X105162362Y-85700419D01*
X105186171Y-85795657D01*
X105186171Y-85962324D01*
X105162362Y-86057562D01*
X105114743Y-86105181D01*
X105067124Y-86128990D01*
X104971886Y-86128990D01*
X105662362Y-86128990D02*
X105376648Y-86128990D01*
X105519505Y-86128990D02*
X105519505Y-85628990D01*
X105471886Y-85700419D01*
X105424267Y-85748038D01*
X105376648Y-85771848D01*
D16*
X132192734Y-81630781D02*
X131859400Y-81154590D01*
X131621305Y-81630781D02*
X131621305Y-80630781D01*
X132002258Y-80630781D01*
X132097496Y-80678400D01*
X132145115Y-80726019D01*
X132192734Y-80821257D01*
X132192734Y-80964114D01*
X132145115Y-81059352D01*
X132097496Y-81106971D01*
X132002258Y-81154590D01*
X131621305Y-81154590D01*
X133145115Y-81630781D02*
X132573686Y-81630781D01*
X132859400Y-81630781D02*
X132859400Y-80630781D01*
X132764162Y-80773638D01*
X132668924Y-80868876D01*
X132573686Y-80916495D01*
X174763134Y-84043781D02*
X174429800Y-83567590D01*
X174191705Y-84043781D02*
X174191705Y-83043781D01*
X174572658Y-83043781D01*
X174667896Y-83091400D01*
X174715515Y-83139019D01*
X174763134Y-83234257D01*
X174763134Y-83377114D01*
X174715515Y-83472352D01*
X174667896Y-83519971D01*
X174572658Y-83567590D01*
X174191705Y-83567590D01*
X175144086Y-83139019D02*
X175191705Y-83091400D01*
X175286943Y-83043781D01*
X175525039Y-83043781D01*
X175620277Y-83091400D01*
X175667896Y-83139019D01*
X175715515Y-83234257D01*
X175715515Y-83329495D01*
X175667896Y-83472352D01*
X175096467Y-84043781D01*
X175715515Y-84043781D01*
X177836534Y-84043781D02*
X177503200Y-83567590D01*
X177265105Y-84043781D02*
X177265105Y-83043781D01*
X177646058Y-83043781D01*
X177741296Y-83091400D01*
X177788915Y-83139019D01*
X177836534Y-83234257D01*
X177836534Y-83377114D01*
X177788915Y-83472352D01*
X177741296Y-83519971D01*
X177646058Y-83567590D01*
X177265105Y-83567590D01*
X178169867Y-83043781D02*
X178788915Y-83043781D01*
X178455581Y-83424733D01*
X178598439Y-83424733D01*
X178693677Y-83472352D01*
X178741296Y-83519971D01*
X178788915Y-83615210D01*
X178788915Y-83853305D01*
X178741296Y-83948543D01*
X178693677Y-83996162D01*
X178598439Y-84043781D01*
X178312724Y-84043781D01*
X178217486Y-83996162D01*
X178169867Y-83948543D01*
X128214381Y-85993266D02*
X127738190Y-86326600D01*
X128214381Y-86564695D02*
X127214381Y-86564695D01*
X127214381Y-86183742D01*
X127262000Y-86088504D01*
X127309619Y-86040885D01*
X127404857Y-85993266D01*
X127547714Y-85993266D01*
X127642952Y-86040885D01*
X127690571Y-86088504D01*
X127738190Y-86183742D01*
X127738190Y-86564695D01*
X127547714Y-85136123D02*
X128214381Y-85136123D01*
X127166762Y-85374219D02*
X127881048Y-85612314D01*
X127881048Y-84993266D01*
X94076781Y-103722466D02*
X93600590Y-104055800D01*
X94076781Y-104293895D02*
X93076781Y-104293895D01*
X93076781Y-103912942D01*
X93124400Y-103817704D01*
X93172019Y-103770085D01*
X93267257Y-103722466D01*
X93410114Y-103722466D01*
X93505352Y-103770085D01*
X93552971Y-103817704D01*
X93600590Y-103912942D01*
X93600590Y-104293895D01*
X93076781Y-102817704D02*
X93076781Y-103293895D01*
X93552971Y-103341514D01*
X93505352Y-103293895D01*
X93457733Y-103198657D01*
X93457733Y-102960561D01*
X93505352Y-102865323D01*
X93552971Y-102817704D01*
X93648210Y-102770085D01*
X93886305Y-102770085D01*
X93981543Y-102817704D01*
X94029162Y-102865323D01*
X94076781Y-102960561D01*
X94076781Y-103198657D01*
X94029162Y-103293895D01*
X93981543Y-103341514D01*
X98436134Y-107157781D02*
X98102800Y-106681590D01*
X97864705Y-107157781D02*
X97864705Y-106157781D01*
X98245658Y-106157781D01*
X98340896Y-106205400D01*
X98388515Y-106253019D01*
X98436134Y-106348257D01*
X98436134Y-106491114D01*
X98388515Y-106586352D01*
X98340896Y-106633971D01*
X98245658Y-106681590D01*
X97864705Y-106681590D01*
X99293277Y-106157781D02*
X99102800Y-106157781D01*
X99007562Y-106205400D01*
X98959943Y-106253019D01*
X98864705Y-106395876D01*
X98817086Y-106586352D01*
X98817086Y-106967305D01*
X98864705Y-107062543D01*
X98912324Y-107110162D01*
X99007562Y-107157781D01*
X99198039Y-107157781D01*
X99293277Y-107110162D01*
X99340896Y-107062543D01*
X99388515Y-106967305D01*
X99388515Y-106729210D01*
X99340896Y-106633971D01*
X99293277Y-106586352D01*
X99198039Y-106538733D01*
X99007562Y-106538733D01*
X98912324Y-106586352D01*
X98864705Y-106633971D01*
X98817086Y-106729210D01*
X126537981Y-85967866D02*
X126061790Y-86301200D01*
X126537981Y-86539295D02*
X125537981Y-86539295D01*
X125537981Y-86158342D01*
X125585600Y-86063104D01*
X125633219Y-86015485D01*
X125728457Y-85967866D01*
X125871314Y-85967866D01*
X125966552Y-86015485D01*
X126014171Y-86063104D01*
X126061790Y-86158342D01*
X126061790Y-86539295D01*
X125537981Y-85634533D02*
X125537981Y-84967866D01*
X126537981Y-85396438D01*
X124607581Y-85967866D02*
X124131390Y-86301200D01*
X124607581Y-86539295D02*
X123607581Y-86539295D01*
X123607581Y-86158342D01*
X123655200Y-86063104D01*
X123702819Y-86015485D01*
X123798057Y-85967866D01*
X123940914Y-85967866D01*
X124036152Y-86015485D01*
X124083771Y-86063104D01*
X124131390Y-86158342D01*
X124131390Y-86539295D01*
X124036152Y-85396438D02*
X123988533Y-85491676D01*
X123940914Y-85539295D01*
X123845676Y-85586914D01*
X123798057Y-85586914D01*
X123702819Y-85539295D01*
X123655200Y-85491676D01*
X123607581Y-85396438D01*
X123607581Y-85205961D01*
X123655200Y-85110723D01*
X123702819Y-85063104D01*
X123798057Y-85015485D01*
X123845676Y-85015485D01*
X123940914Y-85063104D01*
X123988533Y-85110723D01*
X124036152Y-85205961D01*
X124036152Y-85396438D01*
X124083771Y-85491676D01*
X124131390Y-85539295D01*
X124226629Y-85586914D01*
X124417105Y-85586914D01*
X124512343Y-85539295D01*
X124559962Y-85491676D01*
X124607581Y-85396438D01*
X124607581Y-85205961D01*
X124559962Y-85110723D01*
X124512343Y-85063104D01*
X124417105Y-85015485D01*
X124226629Y-85015485D01*
X124131390Y-85063104D01*
X124083771Y-85110723D01*
X124036152Y-85205961D01*
X169819581Y-91047866D02*
X169343390Y-91381200D01*
X169819581Y-91619295D02*
X168819581Y-91619295D01*
X168819581Y-91238342D01*
X168867200Y-91143104D01*
X168914819Y-91095485D01*
X169010057Y-91047866D01*
X169152914Y-91047866D01*
X169248152Y-91095485D01*
X169295771Y-91143104D01*
X169343390Y-91238342D01*
X169343390Y-91619295D01*
X169819581Y-90571676D02*
X169819581Y-90381200D01*
X169771962Y-90285961D01*
X169724343Y-90238342D01*
X169581486Y-90143104D01*
X169391010Y-90095485D01*
X169010057Y-90095485D01*
X168914819Y-90143104D01*
X168867200Y-90190723D01*
X168819581Y-90285961D01*
X168819581Y-90476438D01*
X168867200Y-90571676D01*
X168914819Y-90619295D01*
X169010057Y-90666914D01*
X169248152Y-90666914D01*
X169343390Y-90619295D01*
X169391010Y-90571676D01*
X169438629Y-90476438D01*
X169438629Y-90285961D01*
X169391010Y-90190723D01*
X169343390Y-90143104D01*
X169248152Y-90095485D01*
X167863781Y-91092257D02*
X167387590Y-91425591D01*
X167863781Y-91663686D02*
X166863781Y-91663686D01*
X166863781Y-91282733D01*
X166911400Y-91187495D01*
X166959019Y-91139876D01*
X167054257Y-91092257D01*
X167197114Y-91092257D01*
X167292352Y-91139876D01*
X167339971Y-91187495D01*
X167387590Y-91282733D01*
X167387590Y-91663686D01*
X167863781Y-90139876D02*
X167863781Y-90711305D01*
X167863781Y-90425591D02*
X166863781Y-90425591D01*
X167006638Y-90520829D01*
X167101876Y-90616067D01*
X167149495Y-90711305D01*
X166863781Y-89520829D02*
X166863781Y-89425590D01*
X166911400Y-89330352D01*
X166959019Y-89282733D01*
X167054257Y-89235114D01*
X167244733Y-89187495D01*
X167482829Y-89187495D01*
X167673305Y-89235114D01*
X167768543Y-89282733D01*
X167816162Y-89330352D01*
X167863781Y-89425590D01*
X167863781Y-89520829D01*
X167816162Y-89616067D01*
X167768543Y-89663686D01*
X167673305Y-89711305D01*
X167482829Y-89758924D01*
X167244733Y-89758924D01*
X167054257Y-89711305D01*
X166959019Y-89663686D01*
X166911400Y-89616067D01*
X166863781Y-89520829D01*
X165755581Y-91041457D02*
X165279390Y-91374791D01*
X165755581Y-91612886D02*
X164755581Y-91612886D01*
X164755581Y-91231933D01*
X164803200Y-91136695D01*
X164850819Y-91089076D01*
X164946057Y-91041457D01*
X165088914Y-91041457D01*
X165184152Y-91089076D01*
X165231771Y-91136695D01*
X165279390Y-91231933D01*
X165279390Y-91612886D01*
X165755581Y-90089076D02*
X165755581Y-90660505D01*
X165755581Y-90374791D02*
X164755581Y-90374791D01*
X164898438Y-90470029D01*
X164993676Y-90565267D01*
X165041295Y-90660505D01*
X165755581Y-89136695D02*
X165755581Y-89708124D01*
X165755581Y-89422410D02*
X164755581Y-89422410D01*
X164898438Y-89517648D01*
X164993676Y-89612886D01*
X165041295Y-89708124D01*
X106675181Y-95232457D02*
X106198990Y-95565791D01*
X106675181Y-95803886D02*
X105675181Y-95803886D01*
X105675181Y-95422933D01*
X105722800Y-95327695D01*
X105770419Y-95280076D01*
X105865657Y-95232457D01*
X106008514Y-95232457D01*
X106103752Y-95280076D01*
X106151371Y-95327695D01*
X106198990Y-95422933D01*
X106198990Y-95803886D01*
X106675181Y-94280076D02*
X106675181Y-94851505D01*
X106675181Y-94565791D02*
X105675181Y-94565791D01*
X105818038Y-94661029D01*
X105913276Y-94756267D01*
X105960895Y-94851505D01*
X105770419Y-93899124D02*
X105722800Y-93851505D01*
X105675181Y-93756267D01*
X105675181Y-93518171D01*
X105722800Y-93422933D01*
X105770419Y-93375314D01*
X105865657Y-93327695D01*
X105960895Y-93327695D01*
X106103752Y-93375314D01*
X106675181Y-93946743D01*
X106675181Y-93327695D01*
X104795581Y-101074457D02*
X104319390Y-101407791D01*
X104795581Y-101645886D02*
X103795581Y-101645886D01*
X103795581Y-101264933D01*
X103843200Y-101169695D01*
X103890819Y-101122076D01*
X103986057Y-101074457D01*
X104128914Y-101074457D01*
X104224152Y-101122076D01*
X104271771Y-101169695D01*
X104319390Y-101264933D01*
X104319390Y-101645886D01*
X104795581Y-100122076D02*
X104795581Y-100693505D01*
X104795581Y-100407791D02*
X103795581Y-100407791D01*
X103938438Y-100503029D01*
X104033676Y-100598267D01*
X104081295Y-100693505D01*
X103795581Y-99788743D02*
X103795581Y-99169695D01*
X104176533Y-99503029D01*
X104176533Y-99360171D01*
X104224152Y-99264933D01*
X104271771Y-99217314D01*
X104367010Y-99169695D01*
X104605105Y-99169695D01*
X104700343Y-99217314D01*
X104747962Y-99264933D01*
X104795581Y-99360171D01*
X104795581Y-99645886D01*
X104747962Y-99741124D01*
X104700343Y-99788743D01*
X104744781Y-98280457D02*
X104268590Y-98613791D01*
X104744781Y-98851886D02*
X103744781Y-98851886D01*
X103744781Y-98470933D01*
X103792400Y-98375695D01*
X103840019Y-98328076D01*
X103935257Y-98280457D01*
X104078114Y-98280457D01*
X104173352Y-98328076D01*
X104220971Y-98375695D01*
X104268590Y-98470933D01*
X104268590Y-98851886D01*
X104744781Y-97328076D02*
X104744781Y-97899505D01*
X104744781Y-97613791D02*
X103744781Y-97613791D01*
X103887638Y-97709029D01*
X103982876Y-97804267D01*
X104030495Y-97899505D01*
X104078114Y-96470933D02*
X104744781Y-96470933D01*
X103697162Y-96709029D02*
X104411448Y-96947124D01*
X104411448Y-96328076D01*
X83459581Y-102496857D02*
X82983390Y-102830191D01*
X83459581Y-103068286D02*
X82459581Y-103068286D01*
X82459581Y-102687333D01*
X82507200Y-102592095D01*
X82554819Y-102544476D01*
X82650057Y-102496857D01*
X82792914Y-102496857D01*
X82888152Y-102544476D01*
X82935771Y-102592095D01*
X82983390Y-102687333D01*
X82983390Y-103068286D01*
X83459581Y-101544476D02*
X83459581Y-102115905D01*
X83459581Y-101830191D02*
X82459581Y-101830191D01*
X82602438Y-101925429D01*
X82697676Y-102020667D01*
X82745295Y-102115905D01*
X82459581Y-100639714D02*
X82459581Y-101115905D01*
X82935771Y-101163524D01*
X82888152Y-101115905D01*
X82840533Y-101020667D01*
X82840533Y-100782571D01*
X82888152Y-100687333D01*
X82935771Y-100639714D01*
X83031010Y-100592095D01*
X83269105Y-100592095D01*
X83364343Y-100639714D01*
X83411962Y-100687333D01*
X83459581Y-100782571D01*
X83459581Y-101020667D01*
X83411962Y-101115905D01*
X83364343Y-101163524D01*
X85339181Y-102496857D02*
X84862990Y-102830191D01*
X85339181Y-103068286D02*
X84339181Y-103068286D01*
X84339181Y-102687333D01*
X84386800Y-102592095D01*
X84434419Y-102544476D01*
X84529657Y-102496857D01*
X84672514Y-102496857D01*
X84767752Y-102544476D01*
X84815371Y-102592095D01*
X84862990Y-102687333D01*
X84862990Y-103068286D01*
X85339181Y-101544476D02*
X85339181Y-102115905D01*
X85339181Y-101830191D02*
X84339181Y-101830191D01*
X84482038Y-101925429D01*
X84577276Y-102020667D01*
X84624895Y-102115905D01*
X84339181Y-100687333D02*
X84339181Y-100877810D01*
X84386800Y-100973048D01*
X84434419Y-101020667D01*
X84577276Y-101115905D01*
X84767752Y-101163524D01*
X85148705Y-101163524D01*
X85243943Y-101115905D01*
X85291562Y-101068286D01*
X85339181Y-100973048D01*
X85339181Y-100782571D01*
X85291562Y-100687333D01*
X85243943Y-100639714D01*
X85148705Y-100592095D01*
X84910610Y-100592095D01*
X84815371Y-100639714D01*
X84767752Y-100687333D01*
X84720133Y-100782571D01*
X84720133Y-100973048D01*
X84767752Y-101068286D01*
X84815371Y-101115905D01*
X84910610Y-101163524D01*
X102814381Y-95283257D02*
X102338190Y-95616591D01*
X102814381Y-95854686D02*
X101814381Y-95854686D01*
X101814381Y-95473733D01*
X101862000Y-95378495D01*
X101909619Y-95330876D01*
X102004857Y-95283257D01*
X102147714Y-95283257D01*
X102242952Y-95330876D01*
X102290571Y-95378495D01*
X102338190Y-95473733D01*
X102338190Y-95854686D01*
X102814381Y-94330876D02*
X102814381Y-94902305D01*
X102814381Y-94616591D02*
X101814381Y-94616591D01*
X101957238Y-94711829D01*
X102052476Y-94807067D01*
X102100095Y-94902305D01*
X101814381Y-93997543D02*
X101814381Y-93330876D01*
X102814381Y-93759448D01*
X100934781Y-101074457D02*
X100458590Y-101407791D01*
X100934781Y-101645886D02*
X99934781Y-101645886D01*
X99934781Y-101264933D01*
X99982400Y-101169695D01*
X100030019Y-101122076D01*
X100125257Y-101074457D01*
X100268114Y-101074457D01*
X100363352Y-101122076D01*
X100410971Y-101169695D01*
X100458590Y-101264933D01*
X100458590Y-101645886D01*
X100934781Y-100122076D02*
X100934781Y-100693505D01*
X100934781Y-100407791D02*
X99934781Y-100407791D01*
X100077638Y-100503029D01*
X100172876Y-100598267D01*
X100220495Y-100693505D01*
X100363352Y-99550648D02*
X100315733Y-99645886D01*
X100268114Y-99693505D01*
X100172876Y-99741124D01*
X100125257Y-99741124D01*
X100030019Y-99693505D01*
X99982400Y-99645886D01*
X99934781Y-99550648D01*
X99934781Y-99360171D01*
X99982400Y-99264933D01*
X100030019Y-99217314D01*
X100125257Y-99169695D01*
X100172876Y-99169695D01*
X100268114Y-99217314D01*
X100315733Y-99264933D01*
X100363352Y-99360171D01*
X100363352Y-99550648D01*
X100410971Y-99645886D01*
X100458590Y-99693505D01*
X100553829Y-99741124D01*
X100744305Y-99741124D01*
X100839543Y-99693505D01*
X100887162Y-99645886D01*
X100934781Y-99550648D01*
X100934781Y-99360171D01*
X100887162Y-99264933D01*
X100839543Y-99217314D01*
X100744305Y-99169695D01*
X100553829Y-99169695D01*
X100458590Y-99217314D01*
X100410971Y-99264933D01*
X100363352Y-99360171D01*
X100934781Y-98280457D02*
X100458590Y-98613791D01*
X100934781Y-98851886D02*
X99934781Y-98851886D01*
X99934781Y-98470933D01*
X99982400Y-98375695D01*
X100030019Y-98328076D01*
X100125257Y-98280457D01*
X100268114Y-98280457D01*
X100363352Y-98328076D01*
X100410971Y-98375695D01*
X100458590Y-98470933D01*
X100458590Y-98851886D01*
X100934781Y-97328076D02*
X100934781Y-97899505D01*
X100934781Y-97613791D02*
X99934781Y-97613791D01*
X100077638Y-97709029D01*
X100172876Y-97804267D01*
X100220495Y-97899505D01*
X100934781Y-96851886D02*
X100934781Y-96661410D01*
X100887162Y-96566171D01*
X100839543Y-96518552D01*
X100696686Y-96423314D01*
X100506210Y-96375695D01*
X100125257Y-96375695D01*
X100030019Y-96423314D01*
X99982400Y-96470933D01*
X99934781Y-96566171D01*
X99934781Y-96756648D01*
X99982400Y-96851886D01*
X100030019Y-96899505D01*
X100125257Y-96947124D01*
X100363352Y-96947124D01*
X100458590Y-96899505D01*
X100506210Y-96851886D01*
X100553829Y-96756648D01*
X100553829Y-96566171D01*
X100506210Y-96470933D01*
X100458590Y-96423314D01*
X100363352Y-96375695D01*
X110535981Y-95334057D02*
X110059790Y-95667391D01*
X110535981Y-95905486D02*
X109535981Y-95905486D01*
X109535981Y-95524533D01*
X109583600Y-95429295D01*
X109631219Y-95381676D01*
X109726457Y-95334057D01*
X109869314Y-95334057D01*
X109964552Y-95381676D01*
X110012171Y-95429295D01*
X110059790Y-95524533D01*
X110059790Y-95905486D01*
X109631219Y-94953105D02*
X109583600Y-94905486D01*
X109535981Y-94810248D01*
X109535981Y-94572152D01*
X109583600Y-94476914D01*
X109631219Y-94429295D01*
X109726457Y-94381676D01*
X109821695Y-94381676D01*
X109964552Y-94429295D01*
X110535981Y-95000724D01*
X110535981Y-94381676D01*
X109535981Y-93762629D02*
X109535981Y-93667390D01*
X109583600Y-93572152D01*
X109631219Y-93524533D01*
X109726457Y-93476914D01*
X109916933Y-93429295D01*
X110155029Y-93429295D01*
X110345505Y-93476914D01*
X110440743Y-93524533D01*
X110488362Y-93572152D01*
X110535981Y-93667390D01*
X110535981Y-93762629D01*
X110488362Y-93857867D01*
X110440743Y-93905486D01*
X110345505Y-93953105D01*
X110155029Y-94000724D01*
X109916933Y-94000724D01*
X109726457Y-93953105D01*
X109631219Y-93905486D01*
X109583600Y-93857867D01*
X109535981Y-93762629D01*
X79649581Y-102496857D02*
X79173390Y-102830191D01*
X79649581Y-103068286D02*
X78649581Y-103068286D01*
X78649581Y-102687333D01*
X78697200Y-102592095D01*
X78744819Y-102544476D01*
X78840057Y-102496857D01*
X78982914Y-102496857D01*
X79078152Y-102544476D01*
X79125771Y-102592095D01*
X79173390Y-102687333D01*
X79173390Y-103068286D01*
X78744819Y-102115905D02*
X78697200Y-102068286D01*
X78649581Y-101973048D01*
X78649581Y-101734952D01*
X78697200Y-101639714D01*
X78744819Y-101592095D01*
X78840057Y-101544476D01*
X78935295Y-101544476D01*
X79078152Y-101592095D01*
X79649581Y-102163524D01*
X79649581Y-101544476D01*
X79649581Y-100592095D02*
X79649581Y-101163524D01*
X79649581Y-100877810D02*
X78649581Y-100877810D01*
X78792438Y-100973048D01*
X78887676Y-101068286D01*
X78935295Y-101163524D01*
X108554781Y-101074457D02*
X108078590Y-101407791D01*
X108554781Y-101645886D02*
X107554781Y-101645886D01*
X107554781Y-101264933D01*
X107602400Y-101169695D01*
X107650019Y-101122076D01*
X107745257Y-101074457D01*
X107888114Y-101074457D01*
X107983352Y-101122076D01*
X108030971Y-101169695D01*
X108078590Y-101264933D01*
X108078590Y-101645886D01*
X107650019Y-100693505D02*
X107602400Y-100645886D01*
X107554781Y-100550648D01*
X107554781Y-100312552D01*
X107602400Y-100217314D01*
X107650019Y-100169695D01*
X107745257Y-100122076D01*
X107840495Y-100122076D01*
X107983352Y-100169695D01*
X108554781Y-100741124D01*
X108554781Y-100122076D01*
X107650019Y-99741124D02*
X107602400Y-99693505D01*
X107554781Y-99598267D01*
X107554781Y-99360171D01*
X107602400Y-99264933D01*
X107650019Y-99217314D01*
X107745257Y-99169695D01*
X107840495Y-99169695D01*
X107983352Y-99217314D01*
X108554781Y-99788743D01*
X108554781Y-99169695D01*
X108554781Y-98280457D02*
X108078590Y-98613791D01*
X108554781Y-98851886D02*
X107554781Y-98851886D01*
X107554781Y-98470933D01*
X107602400Y-98375695D01*
X107650019Y-98328076D01*
X107745257Y-98280457D01*
X107888114Y-98280457D01*
X107983352Y-98328076D01*
X108030971Y-98375695D01*
X108078590Y-98470933D01*
X108078590Y-98851886D01*
X107650019Y-97899505D02*
X107602400Y-97851886D01*
X107554781Y-97756648D01*
X107554781Y-97518552D01*
X107602400Y-97423314D01*
X107650019Y-97375695D01*
X107745257Y-97328076D01*
X107840495Y-97328076D01*
X107983352Y-97375695D01*
X108554781Y-97947124D01*
X108554781Y-97328076D01*
X107554781Y-96994743D02*
X107554781Y-96375695D01*
X107935733Y-96709029D01*
X107935733Y-96566171D01*
X107983352Y-96470933D01*
X108030971Y-96423314D01*
X108126210Y-96375695D01*
X108364305Y-96375695D01*
X108459543Y-96423314D01*
X108507162Y-96470933D01*
X108554781Y-96566171D01*
X108554781Y-96851886D01*
X108507162Y-96947124D01*
X108459543Y-96994743D01*
X81529181Y-102496857D02*
X81052990Y-102830191D01*
X81529181Y-103068286D02*
X80529181Y-103068286D01*
X80529181Y-102687333D01*
X80576800Y-102592095D01*
X80624419Y-102544476D01*
X80719657Y-102496857D01*
X80862514Y-102496857D01*
X80957752Y-102544476D01*
X81005371Y-102592095D01*
X81052990Y-102687333D01*
X81052990Y-103068286D01*
X80624419Y-102115905D02*
X80576800Y-102068286D01*
X80529181Y-101973048D01*
X80529181Y-101734952D01*
X80576800Y-101639714D01*
X80624419Y-101592095D01*
X80719657Y-101544476D01*
X80814895Y-101544476D01*
X80957752Y-101592095D01*
X81529181Y-102163524D01*
X81529181Y-101544476D01*
X80862514Y-100687333D02*
X81529181Y-100687333D01*
X80481562Y-100925429D02*
X81195848Y-101163524D01*
X81195848Y-100544476D01*
X87218781Y-102496857D02*
X86742590Y-102830191D01*
X87218781Y-103068286D02*
X86218781Y-103068286D01*
X86218781Y-102687333D01*
X86266400Y-102592095D01*
X86314019Y-102544476D01*
X86409257Y-102496857D01*
X86552114Y-102496857D01*
X86647352Y-102544476D01*
X86694971Y-102592095D01*
X86742590Y-102687333D01*
X86742590Y-103068286D01*
X86314019Y-102115905D02*
X86266400Y-102068286D01*
X86218781Y-101973048D01*
X86218781Y-101734952D01*
X86266400Y-101639714D01*
X86314019Y-101592095D01*
X86409257Y-101544476D01*
X86504495Y-101544476D01*
X86647352Y-101592095D01*
X87218781Y-102163524D01*
X87218781Y-101544476D01*
X86218781Y-100639714D02*
X86218781Y-101115905D01*
X86694971Y-101163524D01*
X86647352Y-101115905D01*
X86599733Y-101020667D01*
X86599733Y-100782571D01*
X86647352Y-100687333D01*
X86694971Y-100639714D01*
X86790210Y-100592095D01*
X87028305Y-100592095D01*
X87123543Y-100639714D01*
X87171162Y-100687333D01*
X87218781Y-100782571D01*
X87218781Y-101020667D01*
X87171162Y-101115905D01*
X87123543Y-101163524D01*
X89047581Y-102496857D02*
X88571390Y-102830191D01*
X89047581Y-103068286D02*
X88047581Y-103068286D01*
X88047581Y-102687333D01*
X88095200Y-102592095D01*
X88142819Y-102544476D01*
X88238057Y-102496857D01*
X88380914Y-102496857D01*
X88476152Y-102544476D01*
X88523771Y-102592095D01*
X88571390Y-102687333D01*
X88571390Y-103068286D01*
X88142819Y-102115905D02*
X88095200Y-102068286D01*
X88047581Y-101973048D01*
X88047581Y-101734952D01*
X88095200Y-101639714D01*
X88142819Y-101592095D01*
X88238057Y-101544476D01*
X88333295Y-101544476D01*
X88476152Y-101592095D01*
X89047581Y-102163524D01*
X89047581Y-101544476D01*
X88047581Y-100687333D02*
X88047581Y-100877810D01*
X88095200Y-100973048D01*
X88142819Y-101020667D01*
X88285676Y-101115905D01*
X88476152Y-101163524D01*
X88857105Y-101163524D01*
X88952343Y-101115905D01*
X88999962Y-101068286D01*
X89047581Y-100973048D01*
X89047581Y-100782571D01*
X88999962Y-100687333D01*
X88952343Y-100639714D01*
X88857105Y-100592095D01*
X88619010Y-100592095D01*
X88523771Y-100639714D01*
X88476152Y-100687333D01*
X88428533Y-100782571D01*
X88428533Y-100973048D01*
X88476152Y-101068286D01*
X88523771Y-101115905D01*
X88619010Y-101163524D01*
X183916581Y-81592657D02*
X183440390Y-81925991D01*
X183916581Y-82164086D02*
X182916581Y-82164086D01*
X182916581Y-81783133D01*
X182964200Y-81687895D01*
X183011819Y-81640276D01*
X183107057Y-81592657D01*
X183249914Y-81592657D01*
X183345152Y-81640276D01*
X183392771Y-81687895D01*
X183440390Y-81783133D01*
X183440390Y-82164086D01*
X183011819Y-81211705D02*
X182964200Y-81164086D01*
X182916581Y-81068848D01*
X182916581Y-80830752D01*
X182964200Y-80735514D01*
X183011819Y-80687895D01*
X183107057Y-80640276D01*
X183202295Y-80640276D01*
X183345152Y-80687895D01*
X183916581Y-81259324D01*
X183916581Y-80640276D01*
X182916581Y-80306943D02*
X182916581Y-79640276D01*
X183916581Y-80068848D01*
X185770781Y-81694257D02*
X185294590Y-82027591D01*
X185770781Y-82265686D02*
X184770781Y-82265686D01*
X184770781Y-81884733D01*
X184818400Y-81789495D01*
X184866019Y-81741876D01*
X184961257Y-81694257D01*
X185104114Y-81694257D01*
X185199352Y-81741876D01*
X185246971Y-81789495D01*
X185294590Y-81884733D01*
X185294590Y-82265686D01*
X184866019Y-81313305D02*
X184818400Y-81265686D01*
X184770781Y-81170448D01*
X184770781Y-80932352D01*
X184818400Y-80837114D01*
X184866019Y-80789495D01*
X184961257Y-80741876D01*
X185056495Y-80741876D01*
X185199352Y-80789495D01*
X185770781Y-81360924D01*
X185770781Y-80741876D01*
X185199352Y-80170448D02*
X185151733Y-80265686D01*
X185104114Y-80313305D01*
X185008876Y-80360924D01*
X184961257Y-80360924D01*
X184866019Y-80313305D01*
X184818400Y-80265686D01*
X184770781Y-80170448D01*
X184770781Y-79979971D01*
X184818400Y-79884733D01*
X184866019Y-79837114D01*
X184961257Y-79789495D01*
X185008876Y-79789495D01*
X185104114Y-79837114D01*
X185151733Y-79884733D01*
X185199352Y-79979971D01*
X185199352Y-80170448D01*
X185246971Y-80265686D01*
X185294590Y-80313305D01*
X185389829Y-80360924D01*
X185580305Y-80360924D01*
X185675543Y-80313305D01*
X185723162Y-80265686D01*
X185770781Y-80170448D01*
X185770781Y-79979971D01*
X185723162Y-79884733D01*
X185675543Y-79837114D01*
X185580305Y-79789495D01*
X185389829Y-79789495D01*
X185294590Y-79837114D01*
X185246971Y-79884733D01*
X185199352Y-79979971D01*
D11*
X82330172Y-120266590D02*
X82163505Y-120028495D01*
X82044458Y-120266590D02*
X82044458Y-119766590D01*
X82234934Y-119766590D01*
X82282553Y-119790400D01*
X82306362Y-119814210D01*
X82330172Y-119861829D01*
X82330172Y-119933257D01*
X82306362Y-119980876D01*
X82282553Y-120004686D01*
X82234934Y-120028495D01*
X82044458Y-120028495D01*
X82520648Y-119814210D02*
X82544458Y-119790400D01*
X82592077Y-119766590D01*
X82711124Y-119766590D01*
X82758743Y-119790400D01*
X82782553Y-119814210D01*
X82806362Y-119861829D01*
X82806362Y-119909448D01*
X82782553Y-119980876D01*
X82496839Y-120266590D01*
X82806362Y-120266590D01*
X83044457Y-120266590D02*
X83139695Y-120266590D01*
X83187314Y-120242781D01*
X83211124Y-120218971D01*
X83258743Y-120147543D01*
X83282552Y-120052305D01*
X83282552Y-119861829D01*
X83258743Y-119814210D01*
X83234933Y-119790400D01*
X83187314Y-119766590D01*
X83092076Y-119766590D01*
X83044457Y-119790400D01*
X83020648Y-119814210D01*
X82996838Y-119861829D01*
X82996838Y-119980876D01*
X83020648Y-120028495D01*
X83044457Y-120052305D01*
X83092076Y-120076114D01*
X83187314Y-120076114D01*
X83234933Y-120052305D01*
X83258743Y-120028495D01*
X83282552Y-119980876D01*
X84158972Y-120266590D02*
X83992305Y-120028495D01*
X83873258Y-120266590D02*
X83873258Y-119766590D01*
X84063734Y-119766590D01*
X84111353Y-119790400D01*
X84135162Y-119814210D01*
X84158972Y-119861829D01*
X84158972Y-119933257D01*
X84135162Y-119980876D01*
X84111353Y-120004686D01*
X84063734Y-120028495D01*
X83873258Y-120028495D01*
X84325639Y-119766590D02*
X84635162Y-119766590D01*
X84468496Y-119957067D01*
X84539924Y-119957067D01*
X84587543Y-119980876D01*
X84611353Y-120004686D01*
X84635162Y-120052305D01*
X84635162Y-120171352D01*
X84611353Y-120218971D01*
X84587543Y-120242781D01*
X84539924Y-120266590D01*
X84397067Y-120266590D01*
X84349448Y-120242781D01*
X84325639Y-120218971D01*
X84944686Y-119766590D02*
X84992305Y-119766590D01*
X85039924Y-119790400D01*
X85063733Y-119814210D01*
X85087543Y-119861829D01*
X85111352Y-119957067D01*
X85111352Y-120076114D01*
X85087543Y-120171352D01*
X85063733Y-120218971D01*
X85039924Y-120242781D01*
X84992305Y-120266590D01*
X84944686Y-120266590D01*
X84897067Y-120242781D01*
X84873257Y-120218971D01*
X84849448Y-120171352D01*
X84825638Y-120076114D01*
X84825638Y-119957067D01*
X84849448Y-119861829D01*
X84873257Y-119814210D01*
X84897067Y-119790400D01*
X84944686Y-119766590D01*
X176662590Y-78714552D02*
X177067352Y-78714552D01*
X177114971Y-78690743D01*
X177138781Y-78666933D01*
X177162590Y-78619314D01*
X177162590Y-78524076D01*
X177138781Y-78476457D01*
X177114971Y-78452648D01*
X177067352Y-78428838D01*
X176662590Y-78428838D01*
X176876876Y-78119314D02*
X176853067Y-78166933D01*
X176829257Y-78190742D01*
X176781638Y-78214552D01*
X176757829Y-78214552D01*
X176710210Y-78190742D01*
X176686400Y-78166933D01*
X176662590Y-78119314D01*
X176662590Y-78024076D01*
X176686400Y-77976457D01*
X176710210Y-77952647D01*
X176757829Y-77928838D01*
X176781638Y-77928838D01*
X176829257Y-77952647D01*
X176853067Y-77976457D01*
X176876876Y-78024076D01*
X176876876Y-78119314D01*
X176900686Y-78166933D01*
X176924495Y-78190742D01*
X176972114Y-78214552D01*
X177067352Y-78214552D01*
X177114971Y-78190742D01*
X177138781Y-78166933D01*
X177162590Y-78119314D01*
X177162590Y-78024076D01*
X177138781Y-77976457D01*
X177114971Y-77952647D01*
X177067352Y-77928838D01*
X176972114Y-77928838D01*
X176924495Y-77952647D01*
X176900686Y-77976457D01*
X176876876Y-78024076D01*
D16*
X103395543Y-120016543D02*
X103347924Y-120064162D01*
X103205067Y-120111781D01*
X103109829Y-120111781D01*
X102966971Y-120064162D01*
X102871733Y-119968924D01*
X102824114Y-119873686D01*
X102776495Y-119683210D01*
X102776495Y-119540352D01*
X102824114Y-119349876D01*
X102871733Y-119254638D01*
X102966971Y-119159400D01*
X103109829Y-119111781D01*
X103205067Y-119111781D01*
X103347924Y-119159400D01*
X103395543Y-119207019D01*
X103728876Y-119111781D02*
X104347924Y-119111781D01*
X104014590Y-119492733D01*
X104157448Y-119492733D01*
X104252686Y-119540352D01*
X104300305Y-119587971D01*
X104347924Y-119683210D01*
X104347924Y-119921305D01*
X104300305Y-120016543D01*
X104252686Y-120064162D01*
X104157448Y-120111781D01*
X103871733Y-120111781D01*
X103776495Y-120064162D01*
X103728876Y-120016543D01*
X104966971Y-119111781D02*
X105062210Y-119111781D01*
X105157448Y-119159400D01*
X105205067Y-119207019D01*
X105252686Y-119302257D01*
X105300305Y-119492733D01*
X105300305Y-119730829D01*
X105252686Y-119921305D01*
X105205067Y-120016543D01*
X105157448Y-120064162D01*
X105062210Y-120111781D01*
X104966971Y-120111781D01*
X104871733Y-120064162D01*
X104824114Y-120016543D01*
X104776495Y-119921305D01*
X104728876Y-119730829D01*
X104728876Y-119492733D01*
X104776495Y-119302257D01*
X104824114Y-119207019D01*
X104871733Y-119159400D01*
X104966971Y-119111781D01*
X103395543Y-114733343D02*
X103347924Y-114780962D01*
X103205067Y-114828581D01*
X103109829Y-114828581D01*
X102966971Y-114780962D01*
X102871733Y-114685724D01*
X102824114Y-114590486D01*
X102776495Y-114400010D01*
X102776495Y-114257152D01*
X102824114Y-114066676D01*
X102871733Y-113971438D01*
X102966971Y-113876200D01*
X103109829Y-113828581D01*
X103205067Y-113828581D01*
X103347924Y-113876200D01*
X103395543Y-113923819D01*
X103728876Y-113828581D02*
X104347924Y-113828581D01*
X104014590Y-114209533D01*
X104157448Y-114209533D01*
X104252686Y-114257152D01*
X104300305Y-114304771D01*
X104347924Y-114400010D01*
X104347924Y-114638105D01*
X104300305Y-114733343D01*
X104252686Y-114780962D01*
X104157448Y-114828581D01*
X103871733Y-114828581D01*
X103776495Y-114780962D01*
X103728876Y-114733343D01*
X105300305Y-114828581D02*
X104728876Y-114828581D01*
X105014590Y-114828581D02*
X105014590Y-113828581D01*
X104919352Y-113971438D01*
X104824114Y-114066676D01*
X104728876Y-114114295D01*
D11*
X100389572Y-120114190D02*
X100222905Y-119876095D01*
X100103858Y-120114190D02*
X100103858Y-119614190D01*
X100294334Y-119614190D01*
X100341953Y-119638000D01*
X100365762Y-119661810D01*
X100389572Y-119709429D01*
X100389572Y-119780857D01*
X100365762Y-119828476D01*
X100341953Y-119852286D01*
X100294334Y-119876095D01*
X100103858Y-119876095D01*
X100556239Y-119614190D02*
X100865762Y-119614190D01*
X100699096Y-119804667D01*
X100770524Y-119804667D01*
X100818143Y-119828476D01*
X100841953Y-119852286D01*
X100865762Y-119899905D01*
X100865762Y-120018952D01*
X100841953Y-120066571D01*
X100818143Y-120090381D01*
X100770524Y-120114190D01*
X100627667Y-120114190D01*
X100580048Y-120090381D01*
X100556239Y-120066571D01*
X101341952Y-120114190D02*
X101056238Y-120114190D01*
X101199095Y-120114190D02*
X101199095Y-119614190D01*
X101151476Y-119685619D01*
X101103857Y-119733238D01*
X101056238Y-119757048D01*
X109762172Y-102384990D02*
X109595505Y-102146895D01*
X109476458Y-102384990D02*
X109476458Y-101884990D01*
X109666934Y-101884990D01*
X109714553Y-101908800D01*
X109738362Y-101932610D01*
X109762172Y-101980229D01*
X109762172Y-102051657D01*
X109738362Y-102099276D01*
X109714553Y-102123086D01*
X109666934Y-102146895D01*
X109476458Y-102146895D01*
X109928839Y-101884990D02*
X110238362Y-101884990D01*
X110071696Y-102075467D01*
X110143124Y-102075467D01*
X110190743Y-102099276D01*
X110214553Y-102123086D01*
X110238362Y-102170705D01*
X110238362Y-102289752D01*
X110214553Y-102337371D01*
X110190743Y-102361181D01*
X110143124Y-102384990D01*
X110000267Y-102384990D01*
X109952648Y-102361181D01*
X109928839Y-102337371D01*
X110428838Y-101932610D02*
X110452648Y-101908800D01*
X110500267Y-101884990D01*
X110619314Y-101884990D01*
X110666933Y-101908800D01*
X110690743Y-101932610D01*
X110714552Y-101980229D01*
X110714552Y-102027848D01*
X110690743Y-102099276D01*
X110405029Y-102384990D01*
X110714552Y-102384990D01*
X107171372Y-103451790D02*
X107004705Y-103213695D01*
X106885658Y-103451790D02*
X106885658Y-102951790D01*
X107076134Y-102951790D01*
X107123753Y-102975600D01*
X107147562Y-102999410D01*
X107171372Y-103047029D01*
X107171372Y-103118457D01*
X107147562Y-103166076D01*
X107123753Y-103189886D01*
X107076134Y-103213695D01*
X106885658Y-103213695D01*
X107338039Y-102951790D02*
X107647562Y-102951790D01*
X107480896Y-103142267D01*
X107552324Y-103142267D01*
X107599943Y-103166076D01*
X107623753Y-103189886D01*
X107647562Y-103237505D01*
X107647562Y-103356552D01*
X107623753Y-103404171D01*
X107599943Y-103427981D01*
X107552324Y-103451790D01*
X107409467Y-103451790D01*
X107361848Y-103427981D01*
X107338039Y-103404171D01*
X107814229Y-102951790D02*
X108123752Y-102951790D01*
X107957086Y-103142267D01*
X108028514Y-103142267D01*
X108076133Y-103166076D01*
X108099943Y-103189886D01*
X108123752Y-103237505D01*
X108123752Y-103356552D01*
X108099943Y-103404171D01*
X108076133Y-103427981D01*
X108028514Y-103451790D01*
X107885657Y-103451790D01*
X107838038Y-103427981D01*
X107814229Y-103404171D01*
X100389572Y-119402990D02*
X100222905Y-119164895D01*
X100103858Y-119402990D02*
X100103858Y-118902990D01*
X100294334Y-118902990D01*
X100341953Y-118926800D01*
X100365762Y-118950610D01*
X100389572Y-118998229D01*
X100389572Y-119069657D01*
X100365762Y-119117276D01*
X100341953Y-119141086D01*
X100294334Y-119164895D01*
X100103858Y-119164895D01*
X100556239Y-118902990D02*
X100865762Y-118902990D01*
X100699096Y-119093467D01*
X100770524Y-119093467D01*
X100818143Y-119117276D01*
X100841953Y-119141086D01*
X100865762Y-119188705D01*
X100865762Y-119307752D01*
X100841953Y-119355371D01*
X100818143Y-119379181D01*
X100770524Y-119402990D01*
X100627667Y-119402990D01*
X100580048Y-119379181D01*
X100556239Y-119355371D01*
X101294333Y-119069657D02*
X101294333Y-119402990D01*
X101175286Y-118879181D02*
X101056238Y-119236324D01*
X101365762Y-119236324D01*
X100389572Y-113205390D02*
X100222905Y-112967295D01*
X100103858Y-113205390D02*
X100103858Y-112705390D01*
X100294334Y-112705390D01*
X100341953Y-112729200D01*
X100365762Y-112753010D01*
X100389572Y-112800629D01*
X100389572Y-112872057D01*
X100365762Y-112919676D01*
X100341953Y-112943486D01*
X100294334Y-112967295D01*
X100103858Y-112967295D01*
X100556239Y-112705390D02*
X100865762Y-112705390D01*
X100699096Y-112895867D01*
X100770524Y-112895867D01*
X100818143Y-112919676D01*
X100841953Y-112943486D01*
X100865762Y-112991105D01*
X100865762Y-113110152D01*
X100841953Y-113157771D01*
X100818143Y-113181581D01*
X100770524Y-113205390D01*
X100627667Y-113205390D01*
X100580048Y-113181581D01*
X100556239Y-113157771D01*
X101318143Y-112705390D02*
X101080048Y-112705390D01*
X101056238Y-112943486D01*
X101080048Y-112919676D01*
X101127667Y-112895867D01*
X101246714Y-112895867D01*
X101294333Y-112919676D01*
X101318143Y-112943486D01*
X101341952Y-112991105D01*
X101341952Y-113110152D01*
X101318143Y-113157771D01*
X101294333Y-113181581D01*
X101246714Y-113205390D01*
X101127667Y-113205390D01*
X101080048Y-113181581D01*
X101056238Y-113157771D01*
D16*
X116520934Y-102363543D02*
X116473315Y-102411162D01*
X116330458Y-102458781D01*
X116235220Y-102458781D01*
X116092362Y-102411162D01*
X115997124Y-102315924D01*
X115949505Y-102220686D01*
X115901886Y-102030210D01*
X115901886Y-101887352D01*
X115949505Y-101696876D01*
X115997124Y-101601638D01*
X116092362Y-101506400D01*
X116235220Y-101458781D01*
X116330458Y-101458781D01*
X116473315Y-101506400D01*
X116520934Y-101554019D01*
X116997124Y-102458781D02*
X117187600Y-102458781D01*
X117282839Y-102411162D01*
X117330458Y-102363543D01*
X117425696Y-102220686D01*
X117473315Y-102030210D01*
X117473315Y-101649257D01*
X117425696Y-101554019D01*
X117378077Y-101506400D01*
X117282839Y-101458781D01*
X117092362Y-101458781D01*
X116997124Y-101506400D01*
X116949505Y-101554019D01*
X116901886Y-101649257D01*
X116901886Y-101887352D01*
X116949505Y-101982590D01*
X116997124Y-102030210D01*
X117092362Y-102077829D01*
X117282839Y-102077829D01*
X117378077Y-102030210D01*
X117425696Y-101982590D01*
X117473315Y-101887352D01*
X112387143Y-87377543D02*
X112339524Y-87425162D01*
X112196667Y-87472781D01*
X112101429Y-87472781D01*
X111958571Y-87425162D01*
X111863333Y-87329924D01*
X111815714Y-87234686D01*
X111768095Y-87044210D01*
X111768095Y-86901352D01*
X111815714Y-86710876D01*
X111863333Y-86615638D01*
X111958571Y-86520400D01*
X112101429Y-86472781D01*
X112196667Y-86472781D01*
X112339524Y-86520400D01*
X112387143Y-86568019D01*
X113339524Y-87472781D02*
X112768095Y-87472781D01*
X113053809Y-87472781D02*
X113053809Y-86472781D01*
X112958571Y-86615638D01*
X112863333Y-86710876D01*
X112768095Y-86758495D01*
X114291905Y-87472781D02*
X113720476Y-87472781D01*
X114006190Y-87472781D02*
X114006190Y-86472781D01*
X113910952Y-86615638D01*
X113815714Y-86710876D01*
X113720476Y-86758495D01*
D11*
X88672171Y-119041028D02*
X88695981Y-119064838D01*
X88719790Y-119136266D01*
X88719790Y-119183885D01*
X88695981Y-119255314D01*
X88648362Y-119302933D01*
X88600743Y-119326742D01*
X88505505Y-119350552D01*
X88434076Y-119350552D01*
X88338838Y-119326742D01*
X88291219Y-119302933D01*
X88243600Y-119255314D01*
X88219790Y-119183885D01*
X88219790Y-119136266D01*
X88243600Y-119064838D01*
X88267410Y-119041028D01*
X88719790Y-118564838D02*
X88719790Y-118850552D01*
X88719790Y-118707695D02*
X88219790Y-118707695D01*
X88291219Y-118755314D01*
X88338838Y-118802933D01*
X88362648Y-118850552D01*
X88219790Y-118398171D02*
X88219790Y-118064838D01*
X88719790Y-118279124D01*
X112522771Y-109490628D02*
X112546581Y-109514438D01*
X112570390Y-109585866D01*
X112570390Y-109633485D01*
X112546581Y-109704914D01*
X112498962Y-109752533D01*
X112451343Y-109776342D01*
X112356105Y-109800152D01*
X112284676Y-109800152D01*
X112189438Y-109776342D01*
X112141819Y-109752533D01*
X112094200Y-109704914D01*
X112070390Y-109633485D01*
X112070390Y-109585866D01*
X112094200Y-109514438D01*
X112118010Y-109490628D01*
X112570390Y-109014438D02*
X112570390Y-109300152D01*
X112570390Y-109157295D02*
X112070390Y-109157295D01*
X112141819Y-109204914D01*
X112189438Y-109252533D01*
X112213248Y-109300152D01*
X112570390Y-108776343D02*
X112570390Y-108681105D01*
X112546581Y-108633486D01*
X112522771Y-108609676D01*
X112451343Y-108562057D01*
X112356105Y-108538248D01*
X112165629Y-108538248D01*
X112118010Y-108562057D01*
X112094200Y-108585867D01*
X112070390Y-108633486D01*
X112070390Y-108728724D01*
X112094200Y-108776343D01*
X112118010Y-108800152D01*
X112165629Y-108823962D01*
X112284676Y-108823962D01*
X112332295Y-108800152D01*
X112356105Y-108776343D01*
X112379914Y-108728724D01*
X112379914Y-108633486D01*
X112356105Y-108585867D01*
X112332295Y-108562057D01*
X112284676Y-108538248D01*
X95580971Y-116374028D02*
X95604781Y-116397838D01*
X95628590Y-116469266D01*
X95628590Y-116516885D01*
X95604781Y-116588314D01*
X95557162Y-116635933D01*
X95509543Y-116659742D01*
X95414305Y-116683552D01*
X95342876Y-116683552D01*
X95247638Y-116659742D01*
X95200019Y-116635933D01*
X95152400Y-116588314D01*
X95128590Y-116516885D01*
X95128590Y-116469266D01*
X95152400Y-116397838D01*
X95176210Y-116374028D01*
X95176210Y-116183552D02*
X95152400Y-116159742D01*
X95128590Y-116112123D01*
X95128590Y-115993076D01*
X95152400Y-115945457D01*
X95176210Y-115921647D01*
X95223829Y-115897838D01*
X95271448Y-115897838D01*
X95342876Y-115921647D01*
X95628590Y-116207361D01*
X95628590Y-115897838D01*
X95628590Y-115421648D02*
X95628590Y-115707362D01*
X95628590Y-115564505D02*
X95128590Y-115564505D01*
X95200019Y-115612124D01*
X95247638Y-115659743D01*
X95271448Y-115707362D01*
X93269571Y-108957228D02*
X93293381Y-108981038D01*
X93317190Y-109052466D01*
X93317190Y-109100085D01*
X93293381Y-109171514D01*
X93245762Y-109219133D01*
X93198143Y-109242942D01*
X93102905Y-109266752D01*
X93031476Y-109266752D01*
X92936238Y-109242942D01*
X92888619Y-109219133D01*
X92841000Y-109171514D01*
X92817190Y-109100085D01*
X92817190Y-109052466D01*
X92841000Y-108981038D01*
X92864810Y-108957228D01*
X92864810Y-108766752D02*
X92841000Y-108742942D01*
X92817190Y-108695323D01*
X92817190Y-108576276D01*
X92841000Y-108528657D01*
X92864810Y-108504847D01*
X92912429Y-108481038D01*
X92960048Y-108481038D01*
X93031476Y-108504847D01*
X93317190Y-108790561D01*
X93317190Y-108481038D01*
X92864810Y-108290562D02*
X92841000Y-108266752D01*
X92817190Y-108219133D01*
X92817190Y-108100086D01*
X92841000Y-108052467D01*
X92864810Y-108028657D01*
X92912429Y-108004848D01*
X92960048Y-108004848D01*
X93031476Y-108028657D01*
X93317190Y-108314371D01*
X93317190Y-108004848D01*
D16*
X91079581Y-113463295D02*
X90079581Y-113463295D01*
X90079581Y-113225200D01*
X90127200Y-113082342D01*
X90222438Y-112987104D01*
X90317676Y-112939485D01*
X90508152Y-112891866D01*
X90651010Y-112891866D01*
X90841486Y-112939485D01*
X90936724Y-112987104D01*
X91031962Y-113082342D01*
X91079581Y-113225200D01*
X91079581Y-113463295D01*
X90412914Y-112034723D02*
X91079581Y-112034723D01*
X90031962Y-112272819D02*
X90746248Y-112510914D01*
X90746248Y-111891866D01*
X100807781Y-107875295D02*
X99807781Y-107875295D01*
X99807781Y-107637200D01*
X99855400Y-107494342D01*
X99950638Y-107399104D01*
X100045876Y-107351485D01*
X100236352Y-107303866D01*
X100379210Y-107303866D01*
X100569686Y-107351485D01*
X100664924Y-107399104D01*
X100760162Y-107494342D01*
X100807781Y-107637200D01*
X100807781Y-107875295D01*
X99807781Y-106399104D02*
X99807781Y-106875295D01*
X100283971Y-106922914D01*
X100236352Y-106875295D01*
X100188733Y-106780057D01*
X100188733Y-106541961D01*
X100236352Y-106446723D01*
X100283971Y-106399104D01*
X100379210Y-106351485D01*
X100617305Y-106351485D01*
X100712543Y-106399104D01*
X100760162Y-106446723D01*
X100807781Y-106541961D01*
X100807781Y-106780057D01*
X100760162Y-106875295D01*
X100712543Y-106922914D01*
X113269734Y-104592381D02*
X112793543Y-104592381D01*
X112793543Y-103592381D01*
X113555448Y-103687619D02*
X113603067Y-103640000D01*
X113698305Y-103592381D01*
X113936401Y-103592381D01*
X114031639Y-103640000D01*
X114079258Y-103687619D01*
X114126877Y-103782857D01*
X114126877Y-103878095D01*
X114079258Y-104020952D01*
X113507829Y-104592381D01*
X114126877Y-104592381D01*
X102296934Y-106573581D02*
X101820743Y-106573581D01*
X101820743Y-105573581D01*
X102535029Y-105573581D02*
X103154077Y-105573581D01*
X102820743Y-105954533D01*
X102963601Y-105954533D01*
X103058839Y-106002152D01*
X103106458Y-106049771D01*
X103154077Y-106145010D01*
X103154077Y-106383105D01*
X103106458Y-106478343D01*
X103058839Y-106525962D01*
X102963601Y-106573581D01*
X102677886Y-106573581D01*
X102582648Y-106525962D01*
X102535029Y-106478343D01*
X97358295Y-108367581D02*
X97358295Y-109177105D01*
X97405914Y-109272343D01*
X97453533Y-109319962D01*
X97548771Y-109367581D01*
X97739248Y-109367581D01*
X97834486Y-109319962D01*
X97882105Y-109272343D01*
X97929724Y-109177105D01*
X97929724Y-108367581D01*
X98834486Y-108700914D02*
X98834486Y-109367581D01*
X98596390Y-108319962D02*
X98358295Y-109034248D01*
X98977343Y-109034248D01*
D11*
X112095790Y-106705352D02*
X112500552Y-106705352D01*
X112548171Y-106681543D01*
X112571981Y-106657733D01*
X112595790Y-106610114D01*
X112595790Y-106514876D01*
X112571981Y-106467257D01*
X112548171Y-106443448D01*
X112500552Y-106419638D01*
X112095790Y-106419638D01*
X112095790Y-105943447D02*
X112095790Y-106181542D01*
X112333886Y-106205352D01*
X112310076Y-106181542D01*
X112286267Y-106133923D01*
X112286267Y-106014876D01*
X112310076Y-105967257D01*
X112333886Y-105943447D01*
X112381505Y-105919638D01*
X112500552Y-105919638D01*
X112548171Y-105943447D01*
X112571981Y-105967257D01*
X112595790Y-106014876D01*
X112595790Y-106133923D01*
X112571981Y-106181542D01*
X112548171Y-106205352D01*
D16*
X145457943Y-86463143D02*
X145410324Y-86510762D01*
X145267467Y-86558381D01*
X145172229Y-86558381D01*
X145029371Y-86510762D01*
X144934133Y-86415524D01*
X144886514Y-86320286D01*
X144838895Y-86129810D01*
X144838895Y-85986952D01*
X144886514Y-85796476D01*
X144934133Y-85701238D01*
X145029371Y-85606000D01*
X145172229Y-85558381D01*
X145267467Y-85558381D01*
X145410324Y-85606000D01*
X145457943Y-85653619D01*
X145791276Y-85558381D02*
X146410324Y-85558381D01*
X146076990Y-85939333D01*
X146219848Y-85939333D01*
X146315086Y-85986952D01*
X146362705Y-86034571D01*
X146410324Y-86129810D01*
X146410324Y-86367905D01*
X146362705Y-86463143D01*
X146315086Y-86510762D01*
X146219848Y-86558381D01*
X145934133Y-86558381D01*
X145838895Y-86510762D01*
X145791276Y-86463143D01*
X146791276Y-85653619D02*
X146838895Y-85606000D01*
X146934133Y-85558381D01*
X147172229Y-85558381D01*
X147267467Y-85606000D01*
X147315086Y-85653619D01*
X147362705Y-85748857D01*
X147362705Y-85844095D01*
X147315086Y-85986952D01*
X146743657Y-86558381D01*
X147362705Y-86558381D01*
X145289543Y-82126057D02*
X145337162Y-82173676D01*
X145384781Y-82316533D01*
X145384781Y-82411771D01*
X145337162Y-82554629D01*
X145241924Y-82649867D01*
X145146686Y-82697486D01*
X144956210Y-82745105D01*
X144813352Y-82745105D01*
X144622876Y-82697486D01*
X144527638Y-82649867D01*
X144432400Y-82554629D01*
X144384781Y-82411771D01*
X144384781Y-82316533D01*
X144432400Y-82173676D01*
X144480019Y-82126057D01*
X144384781Y-81792724D02*
X144384781Y-81173676D01*
X144765733Y-81507010D01*
X144765733Y-81364152D01*
X144813352Y-81268914D01*
X144860971Y-81221295D01*
X144956210Y-81173676D01*
X145194305Y-81173676D01*
X145289543Y-81221295D01*
X145337162Y-81268914D01*
X145384781Y-81364152D01*
X145384781Y-81649867D01*
X145337162Y-81745105D01*
X145289543Y-81792724D01*
X144384781Y-80840343D02*
X144384781Y-80221295D01*
X144765733Y-80554629D01*
X144765733Y-80411771D01*
X144813352Y-80316533D01*
X144860971Y-80268914D01*
X144956210Y-80221295D01*
X145194305Y-80221295D01*
X145289543Y-80268914D01*
X145337162Y-80316533D01*
X145384781Y-80411771D01*
X145384781Y-80697486D01*
X145337162Y-80792724D01*
X145289543Y-80840343D01*
X137126743Y-81433943D02*
X137079124Y-81481562D01*
X136936267Y-81529181D01*
X136841029Y-81529181D01*
X136698171Y-81481562D01*
X136602933Y-81386324D01*
X136555314Y-81291086D01*
X136507695Y-81100610D01*
X136507695Y-80957752D01*
X136555314Y-80767276D01*
X136602933Y-80672038D01*
X136698171Y-80576800D01*
X136841029Y-80529181D01*
X136936267Y-80529181D01*
X137079124Y-80576800D01*
X137126743Y-80624419D01*
X137460076Y-80529181D02*
X138079124Y-80529181D01*
X137745790Y-80910133D01*
X137888648Y-80910133D01*
X137983886Y-80957752D01*
X138031505Y-81005371D01*
X138079124Y-81100610D01*
X138079124Y-81338705D01*
X138031505Y-81433943D01*
X137983886Y-81481562D01*
X137888648Y-81529181D01*
X137602933Y-81529181D01*
X137507695Y-81481562D01*
X137460076Y-81433943D01*
X138936267Y-80862514D02*
X138936267Y-81529181D01*
X138698171Y-80481562D02*
X138460076Y-81195848D01*
X139079124Y-81195848D01*
X135656581Y-82913457D02*
X135180390Y-83246791D01*
X135656581Y-83484886D02*
X134656581Y-83484886D01*
X134656581Y-83103933D01*
X134704200Y-83008695D01*
X134751819Y-82961076D01*
X134847057Y-82913457D01*
X134989914Y-82913457D01*
X135085152Y-82961076D01*
X135132771Y-83008695D01*
X135180390Y-83103933D01*
X135180390Y-83484886D01*
X134656581Y-82580124D02*
X134656581Y-81961076D01*
X135037533Y-82294410D01*
X135037533Y-82151552D01*
X135085152Y-82056314D01*
X135132771Y-82008695D01*
X135228010Y-81961076D01*
X135466105Y-81961076D01*
X135561343Y-82008695D01*
X135608962Y-82056314D01*
X135656581Y-82151552D01*
X135656581Y-82437267D01*
X135608962Y-82532505D01*
X135561343Y-82580124D01*
X134656581Y-81627743D02*
X134656581Y-80961076D01*
X135656581Y-81389648D01*
X138709495Y-85913981D02*
X138709495Y-86723505D01*
X138757114Y-86818743D01*
X138804733Y-86866362D01*
X138899971Y-86913981D01*
X139090448Y-86913981D01*
X139185686Y-86866362D01*
X139233305Y-86818743D01*
X139280924Y-86723505D01*
X139280924Y-85913981D01*
X139661876Y-85913981D02*
X140328543Y-85913981D01*
X139899971Y-86913981D01*
X153893781Y-104732057D02*
X153417590Y-105065391D01*
X153893781Y-105303486D02*
X152893781Y-105303486D01*
X152893781Y-104922533D01*
X152941400Y-104827295D01*
X152989019Y-104779676D01*
X153084257Y-104732057D01*
X153227114Y-104732057D01*
X153322352Y-104779676D01*
X153369971Y-104827295D01*
X153417590Y-104922533D01*
X153417590Y-105303486D01*
X153227114Y-103874914D02*
X153893781Y-103874914D01*
X152846162Y-104113010D02*
X153560448Y-104351105D01*
X153560448Y-103732057D01*
X153893781Y-102827295D02*
X153893781Y-103398724D01*
X153893781Y-103113010D02*
X152893781Y-103113010D01*
X153036638Y-103208248D01*
X153131876Y-103303486D01*
X153179495Y-103398724D01*
X93909519Y-91205038D02*
X93861900Y-91300276D01*
X93766662Y-91395514D01*
X93623805Y-91538371D01*
X93576186Y-91633610D01*
X93576186Y-91728848D01*
X93814281Y-91681229D02*
X93766662Y-91776467D01*
X93671424Y-91871705D01*
X93480948Y-91919324D01*
X93147614Y-91919324D01*
X92957138Y-91871705D01*
X92861900Y-91776467D01*
X92814281Y-91681229D01*
X92814281Y-91490752D01*
X92861900Y-91395514D01*
X92957138Y-91300276D01*
X93147614Y-91252657D01*
X93480948Y-91252657D01*
X93671424Y-91300276D01*
X93766662Y-91395514D01*
X93814281Y-91490752D01*
X93814281Y-91681229D01*
X92909519Y-90871705D02*
X92861900Y-90824086D01*
X92814281Y-90728848D01*
X92814281Y-90490752D01*
X92861900Y-90395514D01*
X92909519Y-90347895D01*
X93004757Y-90300276D01*
X93099995Y-90300276D01*
X93242852Y-90347895D01*
X93814281Y-90919324D01*
X93814281Y-90300276D01*
X86797519Y-91205038D02*
X86749900Y-91300276D01*
X86654662Y-91395514D01*
X86511805Y-91538371D01*
X86464186Y-91633610D01*
X86464186Y-91728848D01*
X86702281Y-91681229D02*
X86654662Y-91776467D01*
X86559424Y-91871705D01*
X86368948Y-91919324D01*
X86035614Y-91919324D01*
X85845138Y-91871705D01*
X85749900Y-91776467D01*
X85702281Y-91681229D01*
X85702281Y-91490752D01*
X85749900Y-91395514D01*
X85845138Y-91300276D01*
X86035614Y-91252657D01*
X86368948Y-91252657D01*
X86559424Y-91300276D01*
X86654662Y-91395514D01*
X86702281Y-91490752D01*
X86702281Y-91681229D01*
X86035614Y-90395514D02*
X86702281Y-90395514D01*
X85654662Y-90633610D02*
X86368948Y-90871705D01*
X86368948Y-90252657D01*
X101021519Y-91205038D02*
X100973900Y-91300276D01*
X100878662Y-91395514D01*
X100735805Y-91538371D01*
X100688186Y-91633610D01*
X100688186Y-91728848D01*
X100926281Y-91681229D02*
X100878662Y-91776467D01*
X100783424Y-91871705D01*
X100592948Y-91919324D01*
X100259614Y-91919324D01*
X100069138Y-91871705D01*
X99973900Y-91776467D01*
X99926281Y-91681229D01*
X99926281Y-91490752D01*
X99973900Y-91395514D01*
X100069138Y-91300276D01*
X100259614Y-91252657D01*
X100592948Y-91252657D01*
X100783424Y-91300276D01*
X100878662Y-91395514D01*
X100926281Y-91490752D01*
X100926281Y-91681229D01*
X99926281Y-90395514D02*
X99926281Y-90585991D01*
X99973900Y-90681229D01*
X100021519Y-90728848D01*
X100164376Y-90824086D01*
X100354852Y-90871705D01*
X100735805Y-90871705D01*
X100831043Y-90824086D01*
X100878662Y-90776467D01*
X100926281Y-90681229D01*
X100926281Y-90490752D01*
X100878662Y-90395514D01*
X100831043Y-90347895D01*
X100735805Y-90300276D01*
X100497710Y-90300276D01*
X100402471Y-90347895D01*
X100354852Y-90395514D01*
X100307233Y-90490752D01*
X100307233Y-90681229D01*
X100354852Y-90776467D01*
X100402471Y-90824086D01*
X100497710Y-90871705D01*
M02*
