G04 #@! TF.FileFunction,Soldermask,Top*
%FSLAX46Y46*%
G04 Gerber Fmt 4.6, Leading zero omitted, Abs format (unit mm)*
G04 Created by KiCad (PCBNEW 4.0.7) date 01/30/18 00:16:16*
%MOMM*%
%LPD*%
G01*
G04 APERTURE LIST*
%ADD10C,0.100000*%
%ADD11R,2.150000X2.150000*%
%ADD12C,2.150000*%
%ADD13R,3.900000X3.700000*%
%ADD14R,4.400000X4.400000*%
%ADD15R,4.900000X2.400000*%
%ADD16R,1.850000X2.400000*%
%ADD17R,1.200000X1.900000*%
%ADD18R,1.670000X0.806400*%
%ADD19R,1.900000X0.700000*%
%ADD20R,0.700000X1.900000*%
%ADD21R,1.650000X1.400000*%
%ADD22R,1.600000X2.600000*%
%ADD23R,6.200000X6.800000*%
%ADD24C,4.800000*%
%ADD25R,1.300000X1.200000*%
%ADD26R,1.900000X2.200000*%
%ADD27R,2.200000X1.900000*%
%ADD28R,1.400000X1.650000*%
%ADD29R,1.600000X1.600000*%
%ADD30R,2.100000X2.100000*%
%ADD31O,2.100000X2.100000*%
%ADD32R,3.400000X3.400000*%
%ADD33C,3.400000*%
%ADD34R,1.700000X1.100000*%
%ADD35R,1.100000X1.700000*%
%ADD36R,1.000000X1.500000*%
%ADD37R,0.850000X1.000000*%
%ADD38R,1.500000X1.500000*%
%ADD39R,6.300000X2.000000*%
%ADD40R,2.000000X6.300000*%
%ADD41R,1.950000X1.000000*%
%ADD42R,1.575000X1.575000*%
%ADD43R,1.050000X1.460000*%
%ADD44R,0.630000X0.750000*%
%ADD45R,0.750000X0.630000*%
G04 APERTURE END LIST*
D10*
D11*
X171221400Y-80314800D03*
D12*
X168721400Y-80314800D03*
X166221400Y-80314800D03*
X163721400Y-80314800D03*
X161221400Y-80314800D03*
D13*
X170281000Y-112141000D03*
X186081000Y-112141000D03*
D14*
X178181000Y-112141000D03*
D15*
X130284800Y-107340400D03*
X121784800Y-107340400D03*
D16*
X152205200Y-118406200D03*
X165955200Y-118406200D03*
X165955200Y-110106200D03*
X152205200Y-110106200D03*
D17*
X154580200Y-115806200D03*
X155680200Y-115806200D03*
X156780200Y-115806200D03*
X157880200Y-115806200D03*
X158980200Y-115806200D03*
X160080200Y-115806200D03*
X161180200Y-115806200D03*
X162280200Y-115806200D03*
D18*
X159131000Y-101447600D03*
X159131000Y-100812600D03*
X159131000Y-100152200D03*
X159131000Y-99491800D03*
X159131000Y-98856800D03*
X159131000Y-98196400D03*
X159131000Y-97536000D03*
X159131000Y-96901000D03*
X159131000Y-96240600D03*
X159131000Y-95605600D03*
X153797000Y-95605600D03*
X153797000Y-96240600D03*
X153797000Y-96901000D03*
X153797000Y-97536000D03*
X153797000Y-98196400D03*
X153797000Y-98856800D03*
X153797000Y-99491800D03*
X153797000Y-100152200D03*
X153797000Y-100812600D03*
X153797000Y-101447600D03*
D19*
X131339600Y-90012000D03*
X131339600Y-90512000D03*
X131339600Y-91012000D03*
X131339600Y-91512000D03*
X131339600Y-92012000D03*
X131339600Y-92512000D03*
X131339600Y-93012000D03*
X131339600Y-93512000D03*
X131339600Y-94012000D03*
X131339600Y-94512000D03*
X131339600Y-95012000D03*
X131339600Y-95512000D03*
X131339600Y-96012000D03*
X131339600Y-96512000D03*
X131339600Y-97012000D03*
X131339600Y-97512000D03*
X131339600Y-98012000D03*
X131339600Y-98512000D03*
X131339600Y-99012000D03*
X131339600Y-99512000D03*
X131339600Y-100012000D03*
X131339600Y-100512000D03*
X131339600Y-101012000D03*
X131339600Y-101512000D03*
X131339600Y-102012000D03*
D20*
X133039600Y-103712000D03*
X133539600Y-103712000D03*
X134039600Y-103712000D03*
X134539600Y-103712000D03*
X135039600Y-103712000D03*
X135539600Y-103712000D03*
X136039600Y-103712000D03*
X136539600Y-103712000D03*
X137039600Y-103712000D03*
X137539600Y-103712000D03*
X138039600Y-103712000D03*
X138539600Y-103712000D03*
X139039600Y-103712000D03*
X139539600Y-103712000D03*
X140039600Y-103712000D03*
X140539600Y-103712000D03*
X141039600Y-103712000D03*
X141539600Y-103712000D03*
X142039600Y-103712000D03*
X142539600Y-103712000D03*
X143039600Y-103712000D03*
X143539600Y-103712000D03*
X144039600Y-103712000D03*
X144539600Y-103712000D03*
X145039600Y-103712000D03*
D19*
X146739600Y-102012000D03*
X146739600Y-101512000D03*
X146739600Y-101012000D03*
X146739600Y-100512000D03*
X146739600Y-100012000D03*
X146739600Y-99512000D03*
X146739600Y-99012000D03*
X146739600Y-98512000D03*
X146739600Y-98012000D03*
X146739600Y-97512000D03*
X146739600Y-97012000D03*
X146739600Y-96512000D03*
X146739600Y-96012000D03*
X146739600Y-95512000D03*
X146739600Y-95012000D03*
X146739600Y-94512000D03*
X146739600Y-94012000D03*
X146739600Y-93512000D03*
X146739600Y-93012000D03*
X146739600Y-92512000D03*
X146739600Y-92012000D03*
X146739600Y-91512000D03*
X146739600Y-91012000D03*
X146739600Y-90512000D03*
X146739600Y-90012000D03*
D20*
X145039600Y-88312000D03*
X144539600Y-88312000D03*
X144039600Y-88312000D03*
X143539600Y-88312000D03*
X143039600Y-88312000D03*
X142539600Y-88312000D03*
X142039600Y-88312000D03*
X141539600Y-88312000D03*
X141039600Y-88312000D03*
X140539600Y-88312000D03*
X140039600Y-88312000D03*
X139539600Y-88312000D03*
X139039600Y-88312000D03*
X138539600Y-88312000D03*
X138039600Y-88312000D03*
X137539600Y-88312000D03*
X137039600Y-88312000D03*
X136539600Y-88312000D03*
X136039600Y-88312000D03*
X135539600Y-88312000D03*
X135039600Y-88312000D03*
X134539600Y-88312000D03*
X134039600Y-88312000D03*
X133539600Y-88312000D03*
X133039600Y-88312000D03*
D11*
X155905200Y-80314800D03*
D12*
X153405200Y-80314800D03*
X150905200Y-80314800D03*
X148405200Y-80314800D03*
D21*
X105714800Y-103952800D03*
X105714800Y-105952800D03*
D22*
X98253900Y-86909800D03*
X93693900Y-86909800D03*
D23*
X95973900Y-93209800D03*
D24*
X187909200Y-78790800D03*
X187909200Y-117983000D03*
X78867000Y-117983000D03*
D25*
X102422200Y-88948300D03*
X102422200Y-87048300D03*
X100422200Y-87998300D03*
X109978700Y-88948300D03*
X109978700Y-87048300D03*
X107978700Y-87998300D03*
D26*
X177175000Y-101469000D03*
X179075000Y-101469000D03*
X180975000Y-101469000D03*
X182875000Y-101469000D03*
X184775000Y-101469000D03*
D27*
X187575000Y-98669000D03*
X187575000Y-96769000D03*
X187575000Y-94869000D03*
X187575000Y-92969000D03*
X187575000Y-91069000D03*
D26*
X184775000Y-88269000D03*
X182875000Y-88269000D03*
X180975000Y-88269000D03*
X179075000Y-88269000D03*
X177175000Y-88269000D03*
D27*
X174375000Y-91069000D03*
X174375000Y-92969000D03*
X174375000Y-94869000D03*
X174375000Y-96769000D03*
X174375000Y-98669000D03*
D21*
X126847600Y-103920800D03*
X126847600Y-101920800D03*
X125018800Y-103920800D03*
X125018800Y-101920800D03*
X129895600Y-82940400D03*
X129895600Y-80940400D03*
D28*
X118481600Y-103657400D03*
X120481600Y-103657400D03*
D21*
X149225000Y-98637600D03*
X149225000Y-96637600D03*
D28*
X133105400Y-86385400D03*
X131105400Y-86385400D03*
X159242000Y-104724200D03*
X157242000Y-104724200D03*
D21*
X92608400Y-117694200D03*
X92608400Y-119694200D03*
X94488000Y-117719600D03*
X94488000Y-119719600D03*
D28*
X98383600Y-116052600D03*
X96383600Y-116052600D03*
X98383600Y-117856000D03*
X96383600Y-117856000D03*
D21*
X106730800Y-117414800D03*
X106730800Y-119414800D03*
X180568600Y-79689200D03*
X180568600Y-77689200D03*
X181229000Y-83226400D03*
X181229000Y-85226400D03*
D29*
X127914400Y-80805200D03*
X127914400Y-78605200D03*
X126034800Y-80805200D03*
X126034800Y-78605200D03*
X124155200Y-80805200D03*
X124155200Y-78605200D03*
D30*
X115189000Y-113665000D03*
D31*
X115189000Y-116205000D03*
X115189000Y-118745000D03*
D30*
X118846600Y-113665000D03*
D31*
X118846600Y-116205000D03*
X118846600Y-118745000D03*
D30*
X122504200Y-113665000D03*
D31*
X122504200Y-116205000D03*
X122504200Y-118745000D03*
D30*
X126161800Y-113665000D03*
D31*
X126161800Y-116205000D03*
X126161800Y-118745000D03*
D30*
X129819400Y-113665000D03*
D31*
X129819400Y-116205000D03*
X129819400Y-118745000D03*
D30*
X133477000Y-113665000D03*
D31*
X133477000Y-116205000D03*
X133477000Y-118745000D03*
D30*
X137134600Y-113665000D03*
D31*
X137134600Y-116205000D03*
X137134600Y-118745000D03*
D30*
X140792200Y-113665000D03*
D31*
X140792200Y-116205000D03*
X140792200Y-118745000D03*
D30*
X144449800Y-113665000D03*
D31*
X144449800Y-116205000D03*
X144449800Y-118745000D03*
D30*
X148107400Y-113665000D03*
D31*
X148107400Y-116205000D03*
X148107400Y-118745000D03*
D30*
X119583200Y-89458800D03*
D31*
X117043200Y-89458800D03*
X119583200Y-86918800D03*
X117043200Y-86918800D03*
X119583200Y-84378800D03*
X117043200Y-84378800D03*
X119583200Y-81838800D03*
X117043200Y-81838800D03*
X119583200Y-79298800D03*
X117043200Y-79298800D03*
D11*
X85979000Y-107569000D03*
D12*
X85979000Y-110069000D03*
X85979000Y-112569000D03*
D32*
X101041200Y-81508600D03*
D33*
X95961200Y-81508600D03*
D32*
X89865200Y-81508600D03*
D33*
X84785200Y-81508600D03*
D32*
X112090200Y-81508600D03*
D33*
X107010200Y-81508600D03*
D30*
X110718600Y-112014000D03*
D31*
X110718600Y-114554000D03*
X110718600Y-117094000D03*
D30*
X90703400Y-105156000D03*
D31*
X90703400Y-107696000D03*
D34*
X129336800Y-88935600D03*
X129336800Y-87035600D03*
D25*
X106232200Y-88948300D03*
X106232200Y-87048300D03*
X104232200Y-87998300D03*
D22*
X91141900Y-86909800D03*
X86581900Y-86909800D03*
D23*
X88861900Y-93209800D03*
D22*
X84029900Y-86909800D03*
X79469900Y-86909800D03*
D23*
X81749900Y-93209800D03*
D35*
X133360200Y-82778600D03*
X131460200Y-82778600D03*
X175879800Y-85217000D03*
X173979800Y-85217000D03*
X179029400Y-85217000D03*
X177129400Y-85217000D03*
D34*
X127914400Y-82311200D03*
X127914400Y-84211200D03*
X93573600Y-105120400D03*
X93573600Y-107020400D03*
D35*
X97089000Y-106654600D03*
X95189000Y-106654600D03*
D34*
X126034800Y-82311200D03*
X126034800Y-84211200D03*
X124155200Y-82311200D03*
X124155200Y-84211200D03*
X169341800Y-86400600D03*
X169341800Y-88300600D03*
X167335200Y-86426000D03*
X167335200Y-88326000D03*
X165328600Y-86426000D03*
X165328600Y-88326000D03*
X106184700Y-90477300D03*
X106184700Y-92377300D03*
X104279700Y-95552300D03*
X104279700Y-93652300D03*
X104279700Y-92377300D03*
X104279700Y-90477300D03*
X82981800Y-99730600D03*
X82981800Y-97830600D03*
X84861400Y-99730600D03*
X84861400Y-97830600D03*
X102374700Y-90477300D03*
X102374700Y-92377300D03*
X100469700Y-95552300D03*
X100469700Y-93652300D03*
X100469700Y-92377300D03*
X100469700Y-90477300D03*
X109994700Y-90477300D03*
X109994700Y-92377300D03*
X79171800Y-99730600D03*
X79171800Y-97830600D03*
X108089700Y-95552300D03*
X108089700Y-93652300D03*
X108089700Y-92377300D03*
X108089700Y-90477300D03*
X81051400Y-99730600D03*
X81051400Y-97830600D03*
X86741000Y-99730600D03*
X86741000Y-97830600D03*
X88620600Y-99730600D03*
X88620600Y-97830600D03*
X183464200Y-83047800D03*
X183464200Y-84947800D03*
X185343800Y-83047800D03*
X185343800Y-84947800D03*
X82600800Y-117083800D03*
X82600800Y-118983800D03*
X84480400Y-118983800D03*
X84480400Y-117083800D03*
D36*
X178612800Y-79654400D03*
X177362800Y-79654400D03*
X176112800Y-79654400D03*
X174862800Y-79654400D03*
X178612800Y-81854400D03*
X177362800Y-81854400D03*
X176112800Y-81854400D03*
X174862800Y-81854400D03*
D28*
X105063800Y-117856000D03*
X103063800Y-117856000D03*
X105063800Y-116027200D03*
X103063800Y-116027200D03*
D35*
X99761000Y-117830600D03*
X101661000Y-117830600D03*
X111033600Y-103479600D03*
X109133600Y-103479600D03*
D34*
X107543600Y-104206000D03*
X107543600Y-106106000D03*
D35*
X101661000Y-114223800D03*
X99761000Y-114223800D03*
X99761000Y-116052600D03*
X101661000Y-116052600D03*
D28*
X118481600Y-101879400D03*
X120481600Y-101879400D03*
X114030000Y-88696800D03*
X112030000Y-88696800D03*
D21*
X90728800Y-117719600D03*
X90728800Y-119719600D03*
D28*
X109286800Y-109220000D03*
X111286800Y-109220000D03*
X92370400Y-116052600D03*
X94370400Y-116052600D03*
X94300800Y-108712000D03*
X96300800Y-108712000D03*
D37*
X90652600Y-114266000D03*
X90652600Y-116366000D03*
D38*
X100330000Y-108937600D03*
X100330000Y-111737600D03*
D39*
X115925600Y-110554000D03*
X115925600Y-105854000D03*
D40*
X102628200Y-110007400D03*
X107328200Y-110007400D03*
D41*
X92677000Y-110464600D03*
X92677000Y-111734600D03*
X92677000Y-113004600D03*
X92677000Y-114274600D03*
X98077000Y-114274600D03*
X98077000Y-113004600D03*
X98077000Y-111734600D03*
X98077000Y-110464600D03*
D42*
X95964500Y-112957100D03*
X95964500Y-111782100D03*
X94789500Y-112957100D03*
X94789500Y-111782100D03*
D43*
X109387600Y-107424400D03*
X110337600Y-107424400D03*
X111287600Y-107424400D03*
X111287600Y-105224400D03*
X109387600Y-105224400D03*
D24*
X78867000Y-78790800D03*
D30*
X130810000Y-78282800D03*
D31*
X133350000Y-78282800D03*
X135890000Y-78282800D03*
X138430000Y-78282800D03*
X140970000Y-78282800D03*
X143510000Y-78282800D03*
D30*
X168986200Y-116789200D03*
D28*
X145126200Y-84277200D03*
X147126200Y-84277200D03*
D21*
X143383000Y-83397600D03*
X143383000Y-81397600D03*
D28*
X139639800Y-81051400D03*
X141639800Y-81051400D03*
D34*
X135229600Y-86243200D03*
X135229600Y-84343200D03*
D44*
X137915600Y-82798200D03*
D45*
X137945600Y-83378200D03*
X140895600Y-83378200D03*
X137945600Y-83808200D03*
X140895600Y-83808200D03*
X137945600Y-84238200D03*
X140895600Y-84238200D03*
X137945600Y-84668200D03*
X140895600Y-84668200D03*
D44*
X138345600Y-82798200D03*
X138775600Y-82798200D03*
X139205600Y-82798200D03*
X139635600Y-82798200D03*
X140065600Y-82798200D03*
X140495600Y-82798200D03*
X140925600Y-82798200D03*
X137915600Y-85248200D03*
X138345600Y-85248200D03*
X138775600Y-85248200D03*
X139205600Y-85248200D03*
X139635600Y-85248200D03*
X140065600Y-85248200D03*
X140495600Y-85248200D03*
X140925600Y-85248200D03*
D34*
X155117800Y-104988400D03*
X155117800Y-103088400D03*
M02*
