G04 #@! TF.FileFunction,Paste,Top*
%FSLAX46Y46*%
G04 Gerber Fmt 4.6, Leading zero omitted, Abs format (unit mm)*
G04 Created by KiCad (PCBNEW 4.0.7) date 01/31/18 14:54:27*
%MOMM*%
%LPD*%
G01*
G04 APERTURE LIST*
%ADD10C,0.100000*%
%ADD11R,3.500000X3.300000*%
%ADD12R,4.500000X2.000000*%
%ADD13R,1.450000X2.000000*%
%ADD14R,0.800000X1.500000*%
%ADD15R,1.270000X0.406400*%
%ADD16R,1.500000X0.300000*%
%ADD17R,0.300000X1.500000*%
%ADD18R,1.250000X1.000000*%
%ADD19R,0.900000X0.800000*%
%ADD20R,1.500000X1.800000*%
%ADD21R,1.800000X1.500000*%
%ADD22R,1.000000X1.250000*%
%ADD23R,1.200000X1.200000*%
%ADD24R,1.300000X0.700000*%
%ADD25R,0.700000X1.300000*%
%ADD26R,0.600000X1.100000*%
%ADD27R,0.450000X0.600000*%
%ADD28R,1.100000X1.100000*%
%ADD29R,5.900000X1.600000*%
%ADD30R,1.600000X5.900000*%
%ADD31R,1.550000X0.600000*%
%ADD32R,0.705000X0.705000*%
%ADD33R,0.650000X1.060000*%
%ADD34R,0.230000X0.350000*%
%ADD35R,0.350000X0.230000*%
%ADD36R,1.200000X2.200000*%
%ADD37R,2.750000X3.050000*%
G04 APERTURE END LIST*
D10*
D11*
X170281000Y-112141000D03*
X186081000Y-112141000D03*
D12*
X130284800Y-107340400D03*
X121784800Y-107340400D03*
D13*
X152205200Y-118406200D03*
X165955200Y-118406200D03*
X165955200Y-110106200D03*
X152205200Y-110106200D03*
D14*
X154580200Y-115806200D03*
X155680200Y-115806200D03*
X156780200Y-115806200D03*
X157880200Y-115806200D03*
X158980200Y-115806200D03*
X160080200Y-115806200D03*
X161180200Y-115806200D03*
X162280200Y-115806200D03*
D15*
X159131000Y-101447600D03*
X159131000Y-100812600D03*
X159131000Y-100152200D03*
X159131000Y-99491800D03*
X159131000Y-98856800D03*
X159131000Y-98196400D03*
X159131000Y-97536000D03*
X159131000Y-96901000D03*
X159131000Y-96240600D03*
X159131000Y-95605600D03*
X153797000Y-95605600D03*
X153797000Y-96240600D03*
X153797000Y-96901000D03*
X153797000Y-97536000D03*
X153797000Y-98196400D03*
X153797000Y-98856800D03*
X153797000Y-99491800D03*
X153797000Y-100152200D03*
X153797000Y-100812600D03*
X153797000Y-101447600D03*
D16*
X131339600Y-90012000D03*
X131339600Y-90512000D03*
X131339600Y-91012000D03*
X131339600Y-91512000D03*
X131339600Y-92012000D03*
X131339600Y-92512000D03*
X131339600Y-93012000D03*
X131339600Y-93512000D03*
X131339600Y-94012000D03*
X131339600Y-94512000D03*
X131339600Y-95012000D03*
X131339600Y-95512000D03*
X131339600Y-96012000D03*
X131339600Y-96512000D03*
X131339600Y-97012000D03*
X131339600Y-97512000D03*
X131339600Y-98012000D03*
X131339600Y-98512000D03*
X131339600Y-99012000D03*
X131339600Y-99512000D03*
X131339600Y-100012000D03*
X131339600Y-100512000D03*
X131339600Y-101012000D03*
X131339600Y-101512000D03*
X131339600Y-102012000D03*
D17*
X133039600Y-103712000D03*
X133539600Y-103712000D03*
X134039600Y-103712000D03*
X134539600Y-103712000D03*
X135039600Y-103712000D03*
X135539600Y-103712000D03*
X136039600Y-103712000D03*
X136539600Y-103712000D03*
X137039600Y-103712000D03*
X137539600Y-103712000D03*
X138039600Y-103712000D03*
X138539600Y-103712000D03*
X139039600Y-103712000D03*
X139539600Y-103712000D03*
X140039600Y-103712000D03*
X140539600Y-103712000D03*
X141039600Y-103712000D03*
X141539600Y-103712000D03*
X142039600Y-103712000D03*
X142539600Y-103712000D03*
X143039600Y-103712000D03*
X143539600Y-103712000D03*
X144039600Y-103712000D03*
X144539600Y-103712000D03*
X145039600Y-103712000D03*
D16*
X146739600Y-102012000D03*
X146739600Y-101512000D03*
X146739600Y-101012000D03*
X146739600Y-100512000D03*
X146739600Y-100012000D03*
X146739600Y-99512000D03*
X146739600Y-99012000D03*
X146739600Y-98512000D03*
X146739600Y-98012000D03*
X146739600Y-97512000D03*
X146739600Y-97012000D03*
X146739600Y-96512000D03*
X146739600Y-96012000D03*
X146739600Y-95512000D03*
X146739600Y-95012000D03*
X146739600Y-94512000D03*
X146739600Y-94012000D03*
X146739600Y-93512000D03*
X146739600Y-93012000D03*
X146739600Y-92512000D03*
X146739600Y-92012000D03*
X146739600Y-91512000D03*
X146739600Y-91012000D03*
X146739600Y-90512000D03*
X146739600Y-90012000D03*
D17*
X145039600Y-88312000D03*
X144539600Y-88312000D03*
X144039600Y-88312000D03*
X143539600Y-88312000D03*
X143039600Y-88312000D03*
X142539600Y-88312000D03*
X142039600Y-88312000D03*
X141539600Y-88312000D03*
X141039600Y-88312000D03*
X140539600Y-88312000D03*
X140039600Y-88312000D03*
X139539600Y-88312000D03*
X139039600Y-88312000D03*
X138539600Y-88312000D03*
X138039600Y-88312000D03*
X137539600Y-88312000D03*
X137039600Y-88312000D03*
X136539600Y-88312000D03*
X136039600Y-88312000D03*
X135539600Y-88312000D03*
X135039600Y-88312000D03*
X134539600Y-88312000D03*
X134039600Y-88312000D03*
X133539600Y-88312000D03*
X133039600Y-88312000D03*
D18*
X105714800Y-103952800D03*
X105714800Y-105952800D03*
D19*
X102422200Y-88948300D03*
X102422200Y-87048300D03*
X100422200Y-87998300D03*
X109978700Y-88948300D03*
X109978700Y-87048300D03*
X107978700Y-87998300D03*
D20*
X177175000Y-101469000D03*
X179075000Y-101469000D03*
X180975000Y-101469000D03*
X182875000Y-101469000D03*
X184775000Y-101469000D03*
D21*
X187575000Y-98669000D03*
X187575000Y-96769000D03*
X187575000Y-94869000D03*
X187575000Y-92969000D03*
X187575000Y-91069000D03*
D20*
X184775000Y-88269000D03*
X182875000Y-88269000D03*
X180975000Y-88269000D03*
X179075000Y-88269000D03*
X177175000Y-88269000D03*
D21*
X174375000Y-91069000D03*
X174375000Y-92969000D03*
X174375000Y-94869000D03*
X174375000Y-96769000D03*
X174375000Y-98669000D03*
D18*
X126847600Y-103920800D03*
X126847600Y-101920800D03*
X125018800Y-103920800D03*
X125018800Y-101920800D03*
X129895600Y-82940400D03*
X129895600Y-80940400D03*
D22*
X118481600Y-103657400D03*
X120481600Y-103657400D03*
D18*
X149225000Y-98637600D03*
X149225000Y-96637600D03*
D22*
X133105400Y-86385400D03*
X131105400Y-86385400D03*
X159242000Y-104724200D03*
X157242000Y-104724200D03*
D18*
X92608400Y-117694200D03*
X92608400Y-119694200D03*
X94488000Y-117719600D03*
X94488000Y-119719600D03*
D22*
X98383600Y-116052600D03*
X96383600Y-116052600D03*
X98383600Y-117856000D03*
X96383600Y-117856000D03*
D18*
X106730800Y-117414800D03*
X106730800Y-119414800D03*
X180568600Y-79689200D03*
X180568600Y-77689200D03*
X181229000Y-83226400D03*
X181229000Y-85226400D03*
D23*
X127914400Y-80805200D03*
X127914400Y-78605200D03*
X126034800Y-80805200D03*
X126034800Y-78605200D03*
X124155200Y-80805200D03*
X124155200Y-78605200D03*
D24*
X129336800Y-88935600D03*
X129336800Y-87035600D03*
D19*
X106232200Y-88948300D03*
X106232200Y-87048300D03*
X104232200Y-87998300D03*
D25*
X133360200Y-82778600D03*
X131460200Y-82778600D03*
X175879800Y-85217000D03*
X173979800Y-85217000D03*
X179029400Y-85217000D03*
X177129400Y-85217000D03*
D24*
X127914400Y-82311200D03*
X127914400Y-84211200D03*
X93573600Y-105120400D03*
X93573600Y-107020400D03*
D25*
X97089000Y-106654600D03*
X95189000Y-106654600D03*
D24*
X126034800Y-82311200D03*
X126034800Y-84211200D03*
X124155200Y-82311200D03*
X124155200Y-84211200D03*
X169341800Y-86400600D03*
X169341800Y-88300600D03*
X167335200Y-86426000D03*
X167335200Y-88326000D03*
X165328600Y-86426000D03*
X165328600Y-88326000D03*
X106184700Y-90477300D03*
X106184700Y-92377300D03*
X104279700Y-95552300D03*
X104279700Y-93652300D03*
X104279700Y-92377300D03*
X104279700Y-90477300D03*
X82981800Y-99730600D03*
X82981800Y-97830600D03*
X84861400Y-99730600D03*
X84861400Y-97830600D03*
X102374700Y-90477300D03*
X102374700Y-92377300D03*
X100469700Y-95552300D03*
X100469700Y-93652300D03*
X100469700Y-92377300D03*
X100469700Y-90477300D03*
X109994700Y-90477300D03*
X109994700Y-92377300D03*
X79171800Y-99730600D03*
X79171800Y-97830600D03*
X108089700Y-95552300D03*
X108089700Y-93652300D03*
X108089700Y-92377300D03*
X108089700Y-90477300D03*
X81051400Y-99730600D03*
X81051400Y-97830600D03*
X86741000Y-99730600D03*
X86741000Y-97830600D03*
X88620600Y-99730600D03*
X88620600Y-97830600D03*
X183464200Y-83047800D03*
X183464200Y-84947800D03*
X185343800Y-83047800D03*
X185343800Y-84947800D03*
X82600800Y-117083800D03*
X82600800Y-118983800D03*
X84480400Y-118983800D03*
X84480400Y-117083800D03*
D26*
X178612800Y-79654400D03*
X177362800Y-79654400D03*
X176112800Y-79654400D03*
X174862800Y-79654400D03*
X178612800Y-81854400D03*
X177362800Y-81854400D03*
X176112800Y-81854400D03*
X174862800Y-81854400D03*
D22*
X105063800Y-117856000D03*
X103063800Y-117856000D03*
X105063800Y-116027200D03*
X103063800Y-116027200D03*
D25*
X99761000Y-117830600D03*
X101661000Y-117830600D03*
X111033600Y-103479600D03*
X109133600Y-103479600D03*
D24*
X107543600Y-104206000D03*
X107543600Y-106106000D03*
D25*
X101661000Y-114223800D03*
X99761000Y-114223800D03*
X99761000Y-116052600D03*
X101661000Y-116052600D03*
D22*
X118481600Y-101879400D03*
X120481600Y-101879400D03*
X114030000Y-88696800D03*
X112030000Y-88696800D03*
D18*
X90728800Y-117719600D03*
X90728800Y-119719600D03*
D22*
X109286800Y-109220000D03*
X111286800Y-109220000D03*
X92370400Y-116052600D03*
X94370400Y-116052600D03*
X94300800Y-108712000D03*
X96300800Y-108712000D03*
D27*
X90652600Y-114266000D03*
X90652600Y-116366000D03*
D28*
X100330000Y-108937600D03*
X100330000Y-111737600D03*
D29*
X115925600Y-110554000D03*
X115925600Y-105854000D03*
D30*
X102628200Y-110007400D03*
X107328200Y-110007400D03*
D31*
X92677000Y-110464600D03*
X92677000Y-111734600D03*
X92677000Y-113004600D03*
X92677000Y-114274600D03*
X98077000Y-114274600D03*
X98077000Y-113004600D03*
X98077000Y-111734600D03*
X98077000Y-110464600D03*
D32*
X95964500Y-112957100D03*
X95964500Y-111782100D03*
X94789500Y-112957100D03*
X94789500Y-111782100D03*
D33*
X109387600Y-107424400D03*
X110337600Y-107424400D03*
X111287600Y-107424400D03*
X111287600Y-105224400D03*
X109387600Y-105224400D03*
D22*
X145126200Y-84277200D03*
X147126200Y-84277200D03*
D18*
X143383000Y-83397600D03*
X143383000Y-81397600D03*
D22*
X139639800Y-81051400D03*
X141639800Y-81051400D03*
D24*
X135229600Y-86243200D03*
X135229600Y-84343200D03*
D34*
X137915600Y-82798200D03*
D35*
X137945600Y-83378200D03*
X140895600Y-83378200D03*
X137945600Y-83808200D03*
X140895600Y-83808200D03*
X137945600Y-84238200D03*
X140895600Y-84238200D03*
X137945600Y-84668200D03*
X140895600Y-84668200D03*
D34*
X138345600Y-82798200D03*
X138775600Y-82798200D03*
X139205600Y-82798200D03*
X139635600Y-82798200D03*
X140065600Y-82798200D03*
X140495600Y-82798200D03*
X140925600Y-82798200D03*
X137915600Y-85248200D03*
X138345600Y-85248200D03*
X138775600Y-85248200D03*
X139205600Y-85248200D03*
X139635600Y-85248200D03*
X140065600Y-85248200D03*
X140495600Y-85248200D03*
X140925600Y-85248200D03*
D24*
X155117800Y-104988400D03*
X155117800Y-103088400D03*
D36*
X91141900Y-86909800D03*
X86581900Y-86909800D03*
D37*
X87336900Y-94884800D03*
X90386900Y-91534800D03*
X90386900Y-94884800D03*
X87336900Y-91534800D03*
D36*
X84029900Y-86909800D03*
X79469900Y-86909800D03*
D37*
X80224900Y-94884800D03*
X83274900Y-91534800D03*
X83274900Y-94884800D03*
X80224900Y-91534800D03*
D36*
X98253900Y-86909800D03*
X93693900Y-86909800D03*
D37*
X94448900Y-94884800D03*
X97498900Y-91534800D03*
X97498900Y-94884800D03*
X94448900Y-91534800D03*
M02*
